<svg width="883" height="121" viewBox="0 0 883 121" fill="none" xmlns="http://www.w3.org/2000/svg">
<path d="M176.466 0H882.195L705.729 120.106H0L176.466 0Z" fill="#300E3D"/>
<line x1="287.881" y1="7.71621" x2="258.86" y2="30.1972" stroke="#5D2C70" stroke-width="11" stroke-linecap="round"/>
<line x1="356.91" y1="7.71621" x2="327.889" y2="30.1972" stroke="#5D2C70" stroke-width="11" stroke-linecap="round"/>
<line x1="425.94" y1="7.71621" x2="396.919" y2="30.1972" stroke="#5D2C70" stroke-width="11" stroke-linecap="round"/>
<line x1="494.97" y1="7.71621" x2="465.949" y2="30.1972" stroke="#5D2C70" stroke-width="11" stroke-linecap="round"/>
<line x1="563.999" y1="7.71621" x2="534.979" y2="30.1972" stroke="#5D2C70" stroke-width="11" stroke-linecap="round"/>
<line x1="633.029" y1="7.71621" x2="604.008" y2="30.1972" stroke="#5D2C70" stroke-width="11" stroke-linecap="round"/>
<line x1="702.059" y1="7.71621" x2="673.038" y2="30.1972" stroke="#5D2C70" stroke-width="11" stroke-linecap="round"/>
<line x1="771.088" y1="7.71621" x2="742.068" y2="30.1972" stroke="#5D2C70" stroke-width="11" stroke-linecap="round"/>
<line x1="165.478" y1="92.1078" x2="136.457" y2="114.589" stroke="#5D2C70" stroke-width="11" stroke-linecap="round"/>
<line x1="234.507" y1="92.1078" x2="205.486" y2="114.589" stroke="#5D2C70" stroke-width="11" stroke-linecap="round"/>
<line x1="303.537" y1="92.1078" x2="274.516" y2="114.589" stroke="#5D2C70" stroke-width="11" stroke-linecap="round"/>
<line x1="372.567" y1="92.1078" x2="343.546" y2="114.589" stroke="#5D2C70" stroke-width="11" stroke-linecap="round"/>
<line x1="441.596" y1="92.1078" x2="412.576" y2="114.589" stroke="#5D2C70" stroke-width="11" stroke-linecap="round"/>
<line x1="510.626" y1="92.1078" x2="481.605" y2="114.589" stroke="#5D2C70" stroke-width="11" stroke-linecap="round"/>
<line x1="579.656" y1="92.1078" x2="550.635" y2="114.589" stroke="#5D2C70" stroke-width="11" stroke-linecap="round"/>
<line x1="648.685" y1="92.1078" x2="619.665" y2="114.589" stroke="#5D2C70" stroke-width="11" stroke-linecap="round"/>
<path d="M209.033 18.394H811.188L675.272 101.712H73.1174L209.033 18.394Z" fill="#5E2C71"/>
<path d="M707.566 28.8917L701.522 32.5968L606.382 90.92L605.9 91.215H176.739L182.783 87.5099L277.924 29.1866L278.405 28.8917H707.566Z" stroke="#C0A353" stroke-width="4"/>
<ellipse cx="444.52" cy="60.0531" rx="101.6" ry="15.8401" fill="#C0A353"/>
<path d="M441.098 36.0984C475.643 36.0984 506.967 38.5607 529.699 42.5594C541.049 44.5558 550.355 46.9517 556.869 49.6609C560.118 51.012 562.788 52.4873 564.678 54.1121C566.554 55.7251 567.909 57.7098 567.909 60.0535C567.909 62.3973 566.554 64.382 564.678 65.9949C562.788 67.6197 560.118 69.0941 556.869 70.4451C550.355 73.1544 541.049 75.5512 529.699 77.5477C506.967 81.5463 475.643 84.0076 441.098 84.0076C406.553 84.0076 375.228 81.5463 352.496 77.5477C341.146 75.5512 331.841 73.1544 325.326 70.4451C322.078 69.0942 319.409 67.6196 317.519 65.9949C315.642 64.382 314.286 62.3973 314.286 60.0535C314.286 57.7096 315.642 55.7251 317.519 54.1121C319.409 52.4874 322.078 51.0119 325.326 49.6609C331.841 46.9517 341.146 44.5558 352.496 42.5594C375.228 38.5607 406.553 36.0985 441.098 36.0984Z" stroke="#C0A353" stroke-width="4"/>
</svg>
