<svg width="431" height="562" viewBox="0 0 431 562" fill="none" xmlns="http://www.w3.org/2000/svg">
<path d="M42.9139 484.242H123.023V550.015C123.023 550.015 98.4841 562.2 81.6907 561.907C65.8536 561.632 42.9139 550.015 42.9139 550.015V484.242Z" fill="#452F28"/>
<path d="M321.118 484.242H401.227V550.015C401.227 550.015 376.688 562.2 359.895 561.907C344.058 561.632 321.118 550.015 321.118 550.015V484.242Z" fill="#452F28"/>
<g filter="url(#filter0_i_74_505)">
<path d="M19.8296 425.005C19.8296 425.005 70.147 406.957 214.011 406.957C357.875 406.957 411.511 425.005 411.511 425.005C411.511 425.005 430.964 441.634 430.728 460.648C430.502 478.822 411.511 501.705 411.511 501.705C411.511 501.705 299.155 515.707 214.011 515.716C128.73 515.725 19.8296 501.705 19.8296 501.705C19.8296 501.705 0.601377 479.626 0.27697 460.649C-0.0612379 440.864 19.8296 425.005 19.8296 425.005Z" fill="#5C3F35"/>
</g>
<g filter="url(#filter1_d_74_505)">
<path d="M78.8704 450.247C78.8704 450.247 163.694 466.821 216.589 466.935C270.417 467.051 350.108 450.247 350.108 450.247C350.108 450.247 361.318 428.293 361.171 413.397C361.03 399.16 350.108 378.297 350.108 378.297H78.8704C78.8704 378.297 67.3416 398.53 67.1396 413.397C66.929 428.896 78.8704 450.247 78.8704 450.247Z" fill="#5C3F35"/>
</g>
<mask id="mask0_74_505" style="mask-type:alpha" maskUnits="userSpaceOnUse" x="0" y="0" width="430" height="430">
<circle cx="214.829" cy="214.829" r="214.829" fill="url(#paint0_linear_74_505)"/>
</mask>
<g mask="url(#mask0_74_505)">
<circle cx="214.829" cy="214.829" r="214.829" fill="url(#paint1_linear_74_505)"/>
<path d="M260.626 -62.1044C260.626 -61.2255 259.913 -60.5131 259.034 -60.5131C258.156 -60.5131 257.443 -61.2255 257.443 -62.1044C257.443 -62.9833 258.156 -63.6958 259.034 -63.6958C259.913 -63.6958 260.626 -62.9833 260.626 -62.1044Z" fill="white"/>
<path d="M214.638 -54.1332C214.638 -53.2543 213.926 -52.5418 213.047 -52.5418C212.168 -52.5418 211.456 -53.2543 211.456 -54.1332C211.456 -55.012 212.168 -55.7245 213.047 -55.7245C213.926 -55.7245 214.638 -55.012 214.638 -54.1332Z" fill="white"/>
<path d="M72.2596 -63.6959C72.2596 -62.817 71.5471 -62.1045 70.6683 -62.1045C69.7894 -62.1045 69.0769 -62.817 69.0769 -63.6959C69.0769 -64.5747 69.7894 -65.2872 70.6683 -65.2872C71.5471 -65.2872 72.2596 -64.5747 72.2596 -63.6959Z" fill="white"/>
<path d="M353.541 -57.3158C353.541 -56.4369 352.829 -55.7244 351.95 -55.7244C351.071 -55.7244 350.358 -56.4369 350.358 -57.3158C350.358 -58.1946 351.071 -58.9071 351.95 -58.9071C352.829 -58.9071 353.541 -58.1946 353.541 -57.3158Z" fill="white"/>
<path d="M-17.8254 -45.6515C-17.8254 -44.7727 -18.5379 -44.0602 -19.4167 -44.0602C-20.2956 -44.0602 -21.0081 -44.7727 -21.0081 -45.6515C-21.0081 -46.5304 -20.2956 -47.2429 -19.4167 -47.2429C-18.5379 -47.2429 -17.8254 -46.5304 -17.8254 -45.6515Z" fill="white"/>
<path d="M106.925 -35.2837C106.925 -34.4048 106.213 -33.6923 105.334 -33.6923C104.455 -33.6923 103.742 -34.4048 103.742 -35.2837C103.742 -36.1625 104.455 -36.875 105.334 -36.875C106.213 -36.875 106.925 -36.1625 106.925 -35.2837Z" fill="white"/>
<path d="M228.788 10.996C228.788 11.8749 228.075 12.5873 227.196 12.5873C226.318 12.5873 225.605 11.8749 225.605 10.996C225.605 10.1171 226.318 9.40465 227.196 9.40465C228.075 9.40465 228.788 10.1171 228.788 10.996Z" fill="white"/>
<path d="M155.597 -14.3541C155.597 -13.4752 154.885 -12.7628 154.006 -12.7628C153.127 -12.7628 152.414 -13.4752 152.414 -14.3541C152.414 -15.233 153.127 -15.9455 154.006 -15.9455C154.885 -15.9455 155.597 -15.233 155.597 -14.3541Z" fill="white"/>
<path d="M181.883 7.81331C181.883 8.69218 181.171 9.40465 180.292 9.40465C179.413 9.40465 178.701 8.69218 178.701 7.81331C178.701 6.93443 179.413 6.22197 180.292 6.22197C181.171 6.22197 181.883 6.93443 181.883 7.81331Z" fill="white"/>
<path d="M383.586 -6.10463C383.586 -5.22576 382.874 -4.51329 381.995 -4.51329C381.116 -4.51329 380.404 -5.22576 380.404 -6.10463C380.404 -6.98351 381.116 -7.69597 381.995 -7.69597C382.874 -7.69597 383.586 -6.98351 383.586 -6.10463Z" fill="white"/>
<path d="M72.2596 -3.95876C72.2596 -3.07988 71.5471 -2.36741 70.6683 -2.36741C69.7894 -2.36741 69.0769 -3.07988 69.0769 -3.95876C69.0769 -4.83763 69.7894 -5.55009 70.6683 -5.55009C71.5471 -5.55009 72.2596 -4.83763 72.2596 -3.95876Z" fill="white"/>
<path d="M-17.8254 20.3861C-17.8254 21.265 -18.5379 21.9774 -19.4167 21.9774C-20.2956 21.9774 -21.0081 21.265 -21.0081 20.3861C-21.0081 19.5072 -20.2956 18.7948 -19.4167 18.7948C-18.5379 18.7948 -17.8254 19.5072 -17.8254 20.3861Z" fill="white"/>
<path d="M222.586 -30.4014C222.586 -29.9438 222.215 -29.5729 221.758 -29.5729C221.3 -29.5729 220.929 -29.9438 220.929 -30.4014C220.929 -30.859 221.3 -31.2299 221.758 -31.2299C222.215 -31.2299 222.586 -30.859 222.586 -30.4014Z" fill="white"/>
<path d="M293.345 -63.6959C293.345 -63.2383 292.974 -62.8673 292.516 -62.8673C292.059 -62.8673 291.688 -63.2383 291.688 -63.6959C291.688 -64.1535 292.059 -64.5244 292.516 -64.5244C292.974 -64.5244 293.345 -64.1535 293.345 -63.6959Z" fill="white"/>
<path d="M151.037 -49.3977C151.037 -48.9402 150.666 -48.5692 150.209 -48.5692C149.751 -48.5692 149.38 -48.9402 149.38 -49.3977C149.38 -49.8553 149.751 -50.2263 150.209 -50.2263C150.666 -50.2263 151.037 -49.8553 151.037 -49.3977Z" fill="white"/>
<path d="M183.115 -35.634C183.115 -35.1764 182.744 -34.8055 182.286 -34.8055C181.829 -34.8055 181.458 -35.1764 181.458 -35.634C181.458 -36.0916 181.829 -36.4625 182.286 -36.4625C182.744 -36.4625 183.115 -36.0916 183.115 -35.634Z" fill="white"/>
<path d="M237.943 -59.6846C237.943 -59.227 237.572 -58.8561 237.114 -58.8561C236.656 -58.8561 236.286 -59.227 236.286 -59.6846C236.286 -60.1422 236.656 -60.5132 237.114 -60.5132C237.572 -60.5132 237.943 -60.1422 237.943 -59.6846Z" fill="white"/>
<path d="M248.659 -11.0267C248.659 -10.5691 248.288 -10.1981 247.83 -10.1981C247.372 -10.1981 247.001 -10.5691 247.001 -11.0267C247.001 -11.4843 247.372 -11.8552 247.83 -11.8552C248.288 -11.8552 248.659 -11.4843 248.659 -11.0267Z" fill="white"/>
<path d="M104.571 -59.6846C104.571 -59.227 104.2 -58.8561 103.742 -58.8561C103.285 -58.8561 102.914 -59.227 102.914 -59.6846C102.914 -60.1422 103.285 -60.5132 103.742 -60.5132C104.2 -60.5132 104.571 -60.1422 104.571 -59.6846Z" fill="white"/>
<path d="M60.7134 -36.4626C60.7134 -36.0051 60.3425 -35.6341 59.8849 -35.6341C59.4273 -35.6341 59.0564 -36.0051 59.0564 -36.4626C59.0564 -36.9202 59.4273 -37.2912 59.8849 -37.2912C60.3425 -37.2912 60.7134 -36.9202 60.7134 -36.4626Z" fill="white"/>
<path d="M116.163 -16.7739C116.163 -16.3163 115.792 -15.9454 115.334 -15.9454C114.877 -15.9454 114.506 -16.3163 114.506 -16.7739C114.506 -17.2315 114.877 -17.6025 115.334 -17.6025C115.792 -17.6025 116.163 -17.2315 116.163 -16.7739Z" fill="white"/>
<path d="M35.1365 -59.6846C35.1365 -59.227 34.7656 -58.8561 34.308 -58.8561C33.8504 -58.8561 33.4794 -59.227 33.4794 -59.6846C33.4794 -60.1422 33.8504 -60.5132 34.308 -60.5132C34.7656 -60.5132 35.1365 -60.1422 35.1365 -59.6846Z" fill="white"/>
<path d="M369.504 -39.8576C369.504 -39.4001 369.133 -39.0291 368.676 -39.0291C368.218 -39.0291 367.847 -39.4001 367.847 -39.8576C367.847 -40.3152 368.218 -40.6862 368.676 -40.6862C369.133 -40.6862 369.504 -40.3152 369.504 -39.8576Z" fill="white"/>
<path d="M272.224 9.40397C272.224 9.86156 271.853 10.2325 271.396 10.2325C270.938 10.2325 270.567 9.86156 270.567 9.40397C270.567 8.94638 270.938 8.57544 271.396 8.57544C271.853 8.57544 272.224 8.94638 272.224 9.40397Z" fill="white"/>
<path d="M290.319 30.3378C290.319 31.2167 291.031 31.9291 291.91 31.9291C292.789 31.9291 293.501 31.2167 293.501 30.3378C293.501 29.4589 292.789 28.7465 291.91 28.7465C291.031 28.7465 290.319 29.4589 290.319 30.3378Z" fill="white" fill-opacity="0.79"/>
<path d="M9.03709 36.7179C9.03709 37.5968 9.74955 38.3092 10.6284 38.3092C11.5073 38.3092 12.2198 37.5968 12.2198 36.7179C12.2198 35.839 11.5073 35.1266 10.6284 35.1266C9.74955 35.1266 9.03709 35.839 9.03709 36.7179Z" fill="white" fill-opacity="0.79"/>
<path d="M380.404 48.3821C380.404 49.261 381.116 49.9735 381.995 49.9735C382.874 49.9735 383.586 49.261 383.586 48.3821C383.586 47.5033 382.874 46.7908 381.995 46.7908C381.116 46.7908 380.404 47.5033 380.404 48.3821Z" fill="white" fill-opacity="0.79"/>
<path d="M255.653 58.75C255.653 59.6289 256.366 60.3414 257.245 60.3414C258.123 60.3414 258.836 59.6289 258.836 58.75C258.836 57.8711 258.123 57.1587 257.245 57.1587C256.366 57.1587 255.653 57.8711 255.653 58.75Z" fill="white" fill-opacity="0.79"/>
<path d="M163.47 94.5022C163.47 95.3811 164.183 96.0936 165.061 96.0936C165.94 96.0936 166.653 95.3811 166.653 94.5022C166.653 93.6234 165.94 92.9109 165.061 92.9109C164.183 92.9109 163.47 93.6234 163.47 94.5022Z" fill="white" fill-opacity="0.79"/>
<path d="M206.981 79.6796C206.981 80.5584 207.694 81.2709 208.573 81.2709C209.451 81.2709 210.164 80.5584 210.164 79.6796C210.164 78.8007 209.451 78.0882 208.573 78.0882C207.694 78.0882 206.981 78.8007 206.981 79.6796Z" fill="white" fill-opacity="0.79"/>
<path d="M-21.0081 87.929C-21.0081 88.8079 -20.2956 89.5204 -19.4167 89.5204C-18.5379 89.5204 -17.8254 88.8079 -17.8254 87.929C-17.8254 87.0502 -18.5379 86.3377 -19.4167 86.3377C-20.2956 86.3377 -21.0081 87.0502 -21.0081 87.929Z" fill="white" fill-opacity="0.79"/>
<path d="M290.319 90.0749C290.319 90.9538 291.031 91.6663 291.91 91.6663C292.789 91.6663 293.501 90.9538 293.501 90.0749C293.501 89.1961 292.789 88.4836 291.91 88.4836C291.031 88.4836 290.319 89.1961 290.319 90.0749Z" fill="white" fill-opacity="0.79"/>
<path d="M380.404 114.42C380.404 115.299 381.116 116.011 381.995 116.011C382.874 116.011 383.586 115.299 383.586 114.42C383.586 113.541 382.874 112.828 381.995 112.828C381.116 112.828 380.404 113.541 380.404 114.42Z" fill="white" fill-opacity="0.79"/>
<path d="M139.992 63.6323C139.992 64.0899 140.363 64.4608 140.82 64.4608C141.278 64.4608 141.649 64.0899 141.649 63.6323C141.649 63.1747 141.278 62.8037 140.82 62.8037C140.363 62.8037 139.992 63.1747 139.992 63.6323Z" fill="white" fill-opacity="0.79"/>
<path d="M69.2336 30.3378C69.2336 30.7954 69.6046 31.1663 70.0622 31.1663C70.5198 31.1663 70.8907 30.7954 70.8907 30.3378C70.8907 29.8802 70.5198 29.5093 70.0622 29.5093C69.6046 29.5093 69.2336 29.8802 69.2336 30.3378Z" fill="white" fill-opacity="0.79"/>
<path d="M211.541 44.6359C211.541 45.0935 211.912 45.4645 212.369 45.4645C212.827 45.4645 213.198 45.0935 213.198 44.6359C213.198 44.1784 212.827 43.8074 212.369 43.8074C211.912 43.8074 211.541 44.1784 211.541 44.6359Z" fill="white" fill-opacity="0.79"/>
<path d="M179.463 58.3997C179.463 58.8573 179.834 59.2282 180.292 59.2282C180.749 59.2282 181.12 58.8573 181.12 58.3997C181.12 57.9421 180.749 57.5711 180.292 57.5711C179.834 57.5711 179.463 57.9421 179.463 58.3997Z" fill="white" fill-opacity="0.79"/>
<path d="M124.636 34.3491C124.636 34.8066 125.007 35.1776 125.464 35.1776C125.922 35.1776 126.293 34.8066 126.293 34.3491C126.293 33.8915 125.922 33.5205 125.464 33.5205C125.007 33.5205 124.636 33.8915 124.636 34.3491Z" fill="white" fill-opacity="0.79"/>
<path d="M113.92 83.007C113.92 83.4646 114.291 83.8355 114.748 83.8355C115.206 83.8355 115.577 83.4646 115.577 83.007C115.577 82.5494 115.206 82.1785 114.748 82.1785C114.291 82.1785 113.92 82.5494 113.92 83.007Z" fill="white" fill-opacity="0.79"/>
<path d="M258.007 34.3491C258.007 34.8066 258.378 35.1776 258.836 35.1776C259.293 35.1776 259.664 34.8066 259.664 34.3491C259.664 33.8915 259.293 33.5205 258.836 33.5205C258.378 33.5205 258.007 33.8915 258.007 34.3491Z" fill="white" fill-opacity="0.79"/>
<path d="M301.865 57.571C301.865 58.0286 302.236 58.3996 302.693 58.3996C303.151 58.3996 303.522 58.0286 303.522 57.571C303.522 57.1134 303.151 56.7425 302.693 56.7425C302.236 56.7425 301.865 57.1134 301.865 57.571Z" fill="white" fill-opacity="0.79"/>
<path d="M246.416 77.2598C246.416 77.7173 246.787 78.0883 247.244 78.0883C247.702 78.0883 248.073 77.7173 248.073 77.2598C248.073 76.8022 247.702 76.4312 247.244 76.4312C246.787 76.4312 246.416 76.8022 246.416 77.2598Z" fill="white" fill-opacity="0.79"/>
<path d="M342.689 66.8766C342.689 67.3342 343.06 67.7051 343.517 67.7051C343.975 67.7051 344.346 67.3342 344.346 66.8766C344.346 66.419 343.975 66.0481 343.517 66.0481C343.06 66.0481 342.689 66.419 342.689 66.8766Z" fill="white" fill-opacity="0.79"/>
<path d="M-6.92587 54.176C-6.92587 54.6336 -6.55492 55.0046 -6.09734 55.0046C-5.63975 55.0046 -5.2688 54.6336 -5.2688 54.176C-5.2688 53.7185 -5.63975 53.3475 -6.09734 53.3475C-6.55492 53.3475 -6.92587 53.7185 -6.92587 54.176Z" fill="white" fill-opacity="0.79"/>
<path d="M91.9212 58.3997C91.9212 58.8573 92.2922 59.2282 92.7498 59.2282C93.2074 59.2282 93.5783 58.8573 93.5783 58.3997C93.5783 57.9421 93.2074 57.5711 92.7498 57.5711C92.2922 57.5711 91.9212 57.9421 91.9212 58.3997Z" fill="white" fill-opacity="0.79"/>
<path d="M71.6535 87.929C71.6535 88.8079 70.941 89.5204 70.0622 89.5204C69.1833 89.5204 68.4708 88.8079 68.4708 87.929C68.4708 87.0502 69.1833 86.3377 70.0622 86.3377C70.941 86.3377 71.6535 87.0502 71.6535 87.929Z" fill="white" fill-opacity="0.79"/>
<path d="M344.206 116.184C344.206 117.063 343.493 117.775 342.614 117.775C341.735 117.775 341.023 117.063 341.023 116.184C341.023 115.305 341.735 114.592 342.614 114.592C343.493 114.592 344.206 115.305 344.206 116.184Z" fill="white" fill-opacity="0.79"/>
<path d="M-27.1609 127.848C-27.1609 128.727 -27.8734 129.439 -28.7523 129.439C-29.6312 129.439 -30.3436 128.727 -30.3436 127.848C-30.3436 126.969 -29.6312 126.257 -28.7523 126.257C-27.8734 126.257 -27.1609 126.969 -27.1609 127.848Z" fill="white" fill-opacity="0.79"/>
<path d="M97.5895 138.216C97.5895 139.095 96.8771 139.807 95.9982 139.807C95.1193 139.807 94.4069 139.095 94.4069 138.216C94.4069 137.337 95.1193 136.625 95.9982 136.625C96.8771 136.625 97.5895 137.337 97.5895 138.216Z" fill="white" fill-opacity="0.79"/>
<path d="M219.452 184.496C219.452 185.374 218.74 186.087 217.861 186.087C216.982 186.087 216.27 185.374 216.27 184.496C216.27 183.617 216.982 182.904 217.861 182.904C218.74 182.904 219.452 183.617 219.452 184.496Z" fill="white" fill-opacity="0.79"/>
<path d="M146.261 159.145C146.261 160.024 145.549 160.737 144.67 160.737C143.791 160.737 143.079 160.024 143.079 159.145C143.079 158.267 143.791 157.554 144.67 157.554C145.549 157.554 146.261 158.267 146.261 159.145Z" fill="white" fill-opacity="0.79"/>
<path d="M374.251 167.395C374.251 168.274 373.538 168.986 372.659 168.986C371.781 168.986 371.068 168.274 371.068 167.395C371.068 166.516 371.781 165.804 372.659 165.804C373.538 165.804 374.251 166.516 374.251 167.395Z" fill="white" fill-opacity="0.79"/>
<path d="M62.9241 169.541C62.9241 170.42 62.2116 171.132 61.3327 171.132C60.4538 171.132 59.7414 170.42 59.7414 169.541C59.7414 168.662 60.4538 167.95 61.3327 167.95C62.2116 167.95 62.9241 168.662 62.9241 169.541Z" fill="white" fill-opacity="0.79"/>
<path d="M-27.1609 193.886C-27.1609 194.765 -27.8734 195.477 -28.7523 195.477C-29.6312 195.477 -30.3436 194.765 -30.3436 193.886C-30.3436 193.007 -29.6312 192.294 -28.7523 192.294C-27.8734 192.294 -27.1609 193.007 -27.1609 193.886Z" fill="white" fill-opacity="0.79"/>
<path d="M213.251 143.098C213.251 143.556 212.88 143.927 212.422 143.927C211.965 143.927 211.594 143.556 211.594 143.098C211.594 142.641 211.965 142.27 212.422 142.27C212.88 142.27 213.251 142.641 213.251 143.098Z" fill="white" fill-opacity="0.79"/>
<path d="M284.009 109.804C284.009 110.261 283.638 110.632 283.181 110.632C282.723 110.632 282.352 110.261 282.352 109.804C282.352 109.346 282.723 108.975 283.181 108.975C283.638 108.975 284.009 109.346 284.009 109.804Z" fill="white" fill-opacity="0.79"/>
<path d="M141.702 124.102C141.702 124.559 141.331 124.93 140.873 124.93C140.416 124.93 140.045 124.559 140.045 124.102C140.045 123.644 140.416 123.273 140.873 123.273C141.331 123.273 141.702 123.644 141.702 124.102Z" fill="white" fill-opacity="0.79"/>
<path d="M173.779 137.866C173.779 138.323 173.408 138.694 172.951 138.694C172.493 138.694 172.122 138.323 172.122 137.866C172.122 137.408 172.493 137.037 172.951 137.037C173.408 137.037 173.779 137.408 173.779 137.866Z" fill="white" fill-opacity="0.79"/>
<path d="M228.607 113.815C228.607 114.273 228.236 114.644 227.779 114.644C227.321 114.644 226.95 114.273 226.95 113.815C226.95 113.357 227.321 112.986 227.779 112.986C228.236 112.986 228.607 113.357 228.607 113.815Z" fill="white" fill-opacity="0.79"/>
<path d="M239.323 162.473C239.323 162.931 238.952 163.301 238.494 163.301C238.037 163.301 237.666 162.931 237.666 162.473C237.666 162.015 238.037 161.644 238.494 161.644C238.952 161.644 239.323 162.015 239.323 162.473Z" fill="white" fill-opacity="0.79"/>
<path d="M95.2354 113.815C95.2354 114.273 94.8644 114.644 94.4069 114.644C93.9493 114.644 93.5783 114.273 93.5783 113.815C93.5783 113.357 93.9493 112.986 94.4069 112.986C94.8644 112.986 95.2354 113.357 95.2354 113.815Z" fill="white" fill-opacity="0.79"/>
<path d="M51.3779 137.037C51.3779 137.495 51.0069 137.865 50.5493 137.865C50.0917 137.865 49.7208 137.495 49.7208 137.037C49.7208 136.579 50.0917 136.208 50.5493 136.208C51.0069 136.208 51.3779 136.579 51.3779 137.037Z" fill="white" fill-opacity="0.79"/>
<path d="M106.827 156.726C106.827 157.183 106.456 157.554 105.999 157.554C105.541 157.554 105.17 157.183 105.17 156.726C105.17 156.268 105.541 155.897 105.999 155.897C106.456 155.897 106.827 156.268 106.827 156.726Z" fill="white" fill-opacity="0.79"/>
<path d="M25.801 113.815C25.801 114.273 25.43 114.644 24.9724 114.644C24.5148 114.644 24.1439 114.273 24.1439 113.815C24.1439 113.357 24.5148 112.986 24.9724 112.986C25.43 112.986 25.801 113.357 25.801 113.815Z" fill="white" fill-opacity="0.79"/>
<path d="M360.169 133.642C360.169 134.1 359.798 134.47 359.34 134.47C358.882 134.47 358.512 134.1 358.512 133.642C358.512 133.184 358.882 132.813 359.34 132.813C359.798 132.813 360.169 133.184 360.169 133.642Z" fill="white" fill-opacity="0.79"/>
<path d="M262.889 182.904C262.889 183.361 262.518 183.732 262.06 183.732C261.602 183.732 261.232 183.361 261.232 182.904C261.232 182.446 261.602 182.075 262.06 182.075C262.518 182.075 262.889 182.446 262.889 182.904Z" fill="white" fill-opacity="0.79"/>
<path d="M290.319 376.706C290.319 375.827 291.031 375.115 291.91 375.115C292.789 375.115 293.501 375.827 293.501 376.706C293.501 377.585 292.789 378.298 291.91 378.298C291.031 378.298 290.319 377.585 290.319 376.706Z" fill="white"/>
<path d="M9.03709 370.326C9.03709 369.447 9.74955 368.735 10.6284 368.735C11.5073 368.735 12.2198 369.447 12.2198 370.326C12.2198 371.205 11.5073 371.917 10.6284 371.917C9.74955 371.917 9.03709 371.205 9.03709 370.326Z" fill="white"/>
<path d="M380.404 358.662C380.404 357.783 381.116 357.071 381.995 357.071C382.874 357.071 383.586 357.783 383.586 358.662C383.586 359.541 382.874 360.253 381.995 360.253C381.116 360.253 380.404 359.541 380.404 358.662Z" fill="white"/>
<path d="M255.653 348.294C255.653 347.415 256.366 346.703 257.245 346.703C258.123 346.703 258.836 347.415 258.836 348.294C258.836 349.173 258.123 349.885 257.245 349.885C256.366 349.885 255.653 349.173 255.653 348.294Z" fill="white"/>
<path d="M163.47 312.542C163.47 311.663 164.183 310.95 165.061 310.95C165.94 310.95 166.653 311.663 166.653 312.542C166.653 313.421 165.94 314.133 165.061 314.133C164.183 314.133 163.47 313.421 163.47 312.542Z" fill="white"/>
<path d="M206.981 327.364C206.981 326.486 207.694 325.773 208.573 325.773C209.451 325.773 210.164 326.486 210.164 327.364C210.164 328.243 209.451 328.956 208.573 328.956C207.694 328.956 206.981 328.243 206.981 327.364Z" fill="white"/>
<path d="M-21.0081 319.115C-21.0081 318.236 -20.2956 317.524 -19.4167 317.524C-18.5379 317.524 -17.8254 318.236 -17.8254 319.115C-17.8254 319.994 -18.5379 320.706 -19.4167 320.706C-20.2956 320.706 -21.0081 319.994 -21.0081 319.115Z" fill="white"/>
<path d="M290.319 316.969C290.319 316.09 291.031 315.378 291.91 315.378C292.789 315.378 293.501 316.09 293.501 316.969C293.501 317.848 292.789 318.56 291.91 318.56C291.031 318.56 290.319 317.848 290.319 316.969Z" fill="white"/>
<path d="M380.404 292.624C380.404 291.745 381.116 291.033 381.995 291.033C382.874 291.033 383.586 291.745 383.586 292.624C383.586 293.503 382.874 294.216 381.995 294.216C381.116 294.216 380.404 293.503 380.404 292.624Z" fill="white"/>
<path d="M139.992 343.412C139.992 342.954 140.363 342.583 140.82 342.583C141.278 342.583 141.649 342.954 141.649 343.412C141.649 343.869 141.278 344.24 140.82 344.24C140.363 344.24 139.992 343.869 139.992 343.412Z" fill="white"/>
<path d="M69.2336 376.706C69.2336 376.249 69.6046 375.878 70.0622 375.878C70.5198 375.878 70.8907 376.249 70.8907 376.706C70.8907 377.164 70.5198 377.535 70.0622 377.535C69.6046 377.535 69.2336 377.164 69.2336 376.706Z" fill="white"/>
<path d="M211.541 362.408C211.541 361.95 211.912 361.58 212.369 361.58C212.827 361.58 213.198 361.95 213.198 362.408C213.198 362.866 212.827 363.237 212.369 363.237C211.912 363.237 211.541 362.866 211.541 362.408Z" fill="white"/>
<path d="M179.463 348.644C179.463 348.187 179.834 347.816 180.292 347.816C180.749 347.816 181.12 348.187 181.12 348.644C181.12 349.102 180.749 349.473 180.292 349.473C179.834 349.473 179.463 349.102 179.463 348.644Z" fill="white"/>
<path d="M124.636 372.695C124.636 372.237 125.007 371.866 125.464 371.866C125.922 371.866 126.293 372.237 126.293 372.695C126.293 373.153 125.922 373.523 125.464 373.523C125.007 373.523 124.636 373.153 124.636 372.695Z" fill="white"/>
<path d="M113.92 324.037C113.92 323.579 114.291 323.208 114.748 323.208C115.206 323.208 115.577 323.579 115.577 324.037C115.577 324.495 115.206 324.866 114.748 324.866C114.291 324.866 113.92 324.495 113.92 324.037Z" fill="white"/>
<path d="M258.007 372.695C258.007 372.237 258.378 371.866 258.836 371.866C259.293 371.866 259.664 372.237 259.664 372.695C259.664 373.153 259.293 373.523 258.836 373.523C258.378 373.523 258.007 373.153 258.007 372.695Z" fill="white"/>
<path d="M301.865 349.473C301.865 349.015 302.236 348.644 302.693 348.644C303.151 348.644 303.522 349.015 303.522 349.473C303.522 349.931 303.151 350.302 302.693 350.302C302.236 350.302 301.865 349.931 301.865 349.473Z" fill="white"/>
<path d="M246.416 329.784C246.416 329.327 246.787 328.956 247.244 328.956C247.702 328.956 248.073 329.327 248.073 329.784C248.073 330.242 247.702 330.613 247.244 330.613C246.787 330.613 246.416 330.242 246.416 329.784Z" fill="white"/>
<path d="M342.689 340.167C342.689 339.71 343.06 339.339 343.517 339.339C343.975 339.339 344.346 339.71 344.346 340.167C344.346 340.625 343.975 340.996 343.517 340.996C343.06 340.996 342.689 340.625 342.689 340.167Z" fill="white"/>
<path d="M-6.92587 352.868C-6.92587 352.41 -6.55492 352.039 -6.09734 352.039C-5.63975 352.039 -5.2688 352.41 -5.2688 352.868C-5.2688 353.326 -5.63975 353.696 -6.09734 353.696C-6.55492 353.696 -6.92587 353.326 -6.92587 352.868Z" fill="white"/>
<path d="M91.9212 348.644C91.9212 348.187 92.2922 347.816 92.7498 347.816C93.2074 347.816 93.5783 348.187 93.5783 348.644C93.5783 349.102 93.2074 349.473 92.7498 349.473C92.2922 349.473 91.9212 349.102 91.9212 348.644Z" fill="white"/>
<path d="M71.6535 319.115C71.6535 318.236 70.941 317.524 70.0622 317.524C69.1833 317.524 68.4708 318.236 68.4708 319.115C68.4708 319.994 69.1833 320.706 70.0622 320.706C70.941 320.706 71.6535 319.994 71.6535 319.115Z" fill="white"/>
<path d="M344.206 290.86C344.206 289.981 343.493 289.269 342.614 289.269C341.735 289.269 341.023 289.981 341.023 290.86C341.023 291.739 341.735 292.452 342.614 292.452C343.493 292.452 344.206 291.739 344.206 290.86Z" fill="white"/>
<path d="M-27.1609 279.196C-27.1609 278.317 -27.8734 277.605 -28.7523 277.605C-29.6312 277.605 -30.3436 278.317 -30.3436 279.196C-30.3436 280.075 -29.6312 280.787 -28.7523 280.787C-27.8734 280.787 -27.1609 280.075 -27.1609 279.196Z" fill="white"/>
<path d="M97.5895 268.828C97.5895 267.949 96.8771 267.237 95.9982 267.237C95.1193 267.237 94.4069 267.949 94.4069 268.828C94.4069 269.707 95.1193 270.419 95.9982 270.419C96.8771 270.419 97.5895 269.707 97.5895 268.828Z" fill="white"/>
<path d="M219.452 222.548C219.452 221.67 218.74 220.957 217.861 220.957C216.982 220.957 216.27 221.67 216.27 222.548C216.27 223.427 216.982 224.14 217.861 224.14C218.74 224.14 219.452 223.427 219.452 222.548Z" fill="white"/>
<path d="M146.261 247.899C146.261 247.02 145.549 246.307 144.67 246.307C143.791 246.307 143.079 247.02 143.079 247.899C143.079 248.777 143.791 249.49 144.67 249.49C145.549 249.49 146.261 248.777 146.261 247.899Z" fill="white"/>
<path d="M374.251 239.649C374.251 238.77 373.538 238.058 372.659 238.058C371.781 238.058 371.068 238.77 371.068 239.649C371.068 240.528 371.781 241.24 372.659 241.24C373.538 241.24 374.251 240.528 374.251 239.649Z" fill="white"/>
<path d="M62.9241 237.503C62.9241 236.624 62.2116 235.912 61.3327 235.912C60.4538 235.912 59.7414 236.624 59.7414 237.503C59.7414 238.382 60.4538 239.095 61.3327 239.095C62.2116 239.095 62.9241 238.382 62.9241 237.503Z" fill="white"/>
<path d="M-27.1609 213.158C-27.1609 212.279 -27.8734 211.567 -28.7523 211.567C-29.6312 211.567 -30.3436 212.279 -30.3436 213.158C-30.3436 214.037 -29.6312 214.75 -28.7523 214.75C-27.8734 214.75 -27.1609 214.037 -27.1609 213.158Z" fill="white"/>
<path d="M213.251 263.946C213.251 263.488 212.88 263.117 212.422 263.117C211.965 263.117 211.594 263.488 211.594 263.946C211.594 264.403 211.965 264.774 212.422 264.774C212.88 264.774 213.251 264.403 213.251 263.946Z" fill="white"/>
<path d="M284.009 297.24C284.009 296.783 283.638 296.412 283.181 296.412C282.723 296.412 282.352 296.783 282.352 297.24C282.352 297.698 282.723 298.069 283.181 298.069C283.638 298.069 284.009 297.698 284.009 297.24Z" fill="white"/>
<path d="M141.702 282.942C141.702 282.485 141.331 282.114 140.873 282.114C140.416 282.114 140.045 282.485 140.045 282.942C140.045 283.4 140.416 283.771 140.873 283.771C141.331 283.771 141.702 283.4 141.702 282.942Z" fill="white"/>
<path d="M173.779 269.178C173.779 268.721 173.408 268.35 172.951 268.35C172.493 268.35 172.122 268.721 172.122 269.178C172.122 269.636 172.493 270.007 172.951 270.007C173.408 270.007 173.779 269.636 173.779 269.178Z" fill="white"/>
<path d="M228.607 293.229C228.607 292.771 228.236 292.401 227.779 292.401C227.321 292.401 226.95 292.771 226.95 293.229C226.95 293.687 227.321 294.058 227.779 294.058C228.236 294.058 228.607 293.687 228.607 293.229Z" fill="white"/>
<path d="M239.323 244.571C239.323 244.114 238.952 243.743 238.494 243.743C238.037 243.743 237.666 244.114 237.666 244.571C237.666 245.029 238.037 245.4 238.494 245.4C238.952 245.4 239.323 245.029 239.323 244.571Z" fill="white"/>
<path d="M95.2354 293.229C95.2354 292.771 94.8644 292.401 94.4069 292.401C93.9493 292.401 93.5783 292.771 93.5783 293.229C93.5783 293.687 93.9493 294.058 94.4069 294.058C94.8644 294.058 95.2354 293.687 95.2354 293.229Z" fill="white"/>
<path d="M51.3779 270.007C51.3779 269.549 51.0069 269.179 50.5493 269.179C50.0917 269.179 49.7208 269.549 49.7208 270.007C49.7208 270.465 50.0917 270.836 50.5493 270.836C51.0069 270.836 51.3779 270.465 51.3779 270.007Z" fill="white"/>
<path d="M106.827 250.318C106.827 249.861 106.456 249.49 105.999 249.49C105.541 249.49 105.17 249.861 105.17 250.318C105.17 250.776 105.541 251.147 105.999 251.147C106.456 251.147 106.827 250.776 106.827 250.318Z" fill="white"/>
<path d="M25.801 293.229C25.801 292.771 25.43 292.401 24.9724 292.401C24.5148 292.401 24.1439 292.771 24.1439 293.229C24.1439 293.687 24.5148 294.058 24.9724 294.058C25.43 294.058 25.801 293.687 25.801 293.229Z" fill="white"/>
<path d="M360.169 273.402C360.169 272.944 359.798 272.574 359.34 272.574C358.882 272.574 358.512 272.944 358.512 273.402C358.512 273.86 358.882 274.231 359.34 274.231C359.798 274.231 360.169 273.86 360.169 273.402Z" fill="white"/>
<path d="M262.889 224.14C262.889 223.683 262.518 223.312 262.06 223.312C261.602 223.312 261.232 223.683 261.232 224.14C261.232 224.598 261.602 224.969 262.06 224.969C262.518 224.969 262.889 224.598 262.889 224.14Z" fill="white"/>
<path d="M136.81 9.44147C136.81 10.3203 136.098 11.0328 135.219 11.0328C134.34 11.0328 133.628 10.3203 133.628 9.44147C133.628 8.56259 134.34 7.85013 135.219 7.85013C136.098 7.85013 136.81 8.56259 136.81 9.44147Z" fill="white"/>
</g>
<defs>
<filter id="filter0_i_74_505" x="0.272705" y="406.957" width="430.457" height="108.759" filterUnits="userSpaceOnUse" color-interpolation-filters="sRGB">
<feFlood flood-opacity="0" result="BackgroundImageFix"/>
<feBlend mode="normal" in="SourceGraphic" in2="BackgroundImageFix" result="shape"/>
<feColorMatrix in="SourceAlpha" type="matrix" values="0 0 0 0 0 0 0 0 0 0 0 0 0 0 0 0 0 0 127 0" result="hardAlpha"/>
<feOffset dy="-12.4246"/>
<feComposite in2="hardAlpha" operator="arithmetic" k2="-1" k3="1"/>
<feColorMatrix type="matrix" values="0 0 0 0 0 0 0 0 0 0 0 0 0 0 0 0 0 0 0.25 0"/>
<feBlend mode="normal" in2="shape" result="effect1_innerShadow_74_505"/>
</filter>
<filter id="filter1_d_74_505" x="67.1368" y="378.297" width="294.035" height="104.376" filterUnits="userSpaceOnUse" color-interpolation-filters="sRGB">
<feFlood flood-opacity="0" result="BackgroundImageFix"/>
<feColorMatrix in="SourceAlpha" type="matrix" values="0 0 0 0 0 0 0 0 0 0 0 0 0 0 0 0 0 0 127 0" result="hardAlpha"/>
<feOffset dy="15.7378"/>
<feComposite in2="hardAlpha" operator="out"/>
<feColorMatrix type="matrix" values="0 0 0 0 0 0 0 0 0 0 0 0 0 0 0 0 0 0 0.25 0"/>
<feBlend mode="normal" in2="BackgroundImageFix" result="effect1_dropShadow_74_505"/>
<feBlend mode="normal" in="SourceGraphic" in2="effect1_dropShadow_74_505" result="shape"/>
</filter>
<linearGradient id="paint0_linear_74_505" x1="240.202" y1="-3.30089" x2="278.162" y2="486.817" gradientUnits="userSpaceOnUse">
<stop stop-color="#BF61A7"/>
<stop offset="1" stop-color="#592D4E"/>
</linearGradient>
<linearGradient id="paint1_linear_74_505" x1="214.829" y1="0" x2="214.829" y2="429.658" gradientUnits="userSpaceOnUse">
<stop stop-color="#F4A9E1"/>
<stop offset="0.447115" stop-color="#AA4391"/>
<stop offset="0.75" stop-color="#6D285C"/>
<stop offset="1" stop-color="#260C20"/>
</linearGradient>
</defs>
</svg>
