<svg width="473" height="551" viewBox="0 0 473 551" fill="none" xmlns="http://www.w3.org/2000/svg">
<rect x="326.233" y="484.242" width="80.1086" height="65.7733" fill="#5C3F35"/>
<rect x="65.6691" y="484.242" width="80.1086" height="65.7733" fill="#5C3F35"/>
<g filter="url(#filter0_i_74_505)">
<path d="M18.8396 425.005H454.34C454.34 425.005 472.339 453.029 472.103 472.044C471.877 490.217 454.34 516.849 454.34 516.849H18.8396C18.8396 516.849 0.32883 491.022 0.00442231 472.044C-0.333785 452.259 18.8396 425.005 18.8396 425.005Z" fill="#5C3F35"/>
</g>
<g filter="url(#filter1_d_74_505)">
<path d="M101.626 450.247C101.626 450.247 186.449 466.822 239.345 466.935C293.173 467.051 372.863 450.247 372.863 450.247C372.863 450.247 384.073 428.293 383.926 413.397C383.785 399.16 372.863 378.298 372.863 378.298H101.626C101.626 378.298 90.0968 398.53 89.8947 413.397C89.6841 428.896 101.626 450.247 101.626 450.247Z" fill="#5C3F35"/>
</g>
<mask id="mask0_74_505" style="mask-type:alpha" maskUnits="userSpaceOnUse" x="22" y="0" width="431" height="430">
<circle cx="237.584" cy="214.829" r="214.829" fill="url(#paint0_linear_74_505)"/>
</mask>
<g mask="url(#mask0_74_505)">
<circle cx="237.584" cy="214.829" r="214.829" fill="url(#paint1_linear_74_505)"/>
<path d="M108.57 73.556C74.2859 108.944 68.9556 146.556 77.4303 148.454C85.905 150.351 95.888 123.657 130.172 88.2697C164.456 52.882 214.644 49.991 216.563 37.2137C218.481 24.4363 142.854 38.1683 108.57 73.556Z" fill="#F1A5DE" fill-opacity="0.76"/>
</g>
<defs>
<filter id="filter0_i_74_505" x="0" y="425.005" width="472.105" height="91.8438" filterUnits="userSpaceOnUse" color-interpolation-filters="sRGB">
<feFlood flood-opacity="0" result="BackgroundImageFix"/>
<feBlend mode="normal" in="SourceGraphic" in2="BackgroundImageFix" result="shape"/>
<feColorMatrix in="SourceAlpha" type="matrix" values="0 0 0 0 0 0 0 0 0 0 0 0 0 0 0 0 0 0 127 0" result="hardAlpha"/>
<feOffset dy="-12.4246"/>
<feComposite in2="hardAlpha" operator="arithmetic" k2="-1" k3="1"/>
<feColorMatrix type="matrix" values="0 0 0 0 0 0 0 0 0 0 0 0 0 0 0 0 0 0 0.25 0"/>
<feBlend mode="normal" in2="shape" result="effect1_innerShadow_74_505"/>
</filter>
<filter id="filter1_d_74_505" x="89.892" y="378.298" width="294.035" height="104.376" filterUnits="userSpaceOnUse" color-interpolation-filters="sRGB">
<feFlood flood-opacity="0" result="BackgroundImageFix"/>
<feColorMatrix in="SourceAlpha" type="matrix" values="0 0 0 0 0 0 0 0 0 0 0 0 0 0 0 0 0 0 127 0" result="hardAlpha"/>
<feOffset dy="15.7378"/>
<feComposite in2="hardAlpha" operator="out"/>
<feColorMatrix type="matrix" values="0 0 0 0 0 0 0 0 0 0 0 0 0 0 0 0 0 0 0.25 0"/>
<feBlend mode="normal" in2="BackgroundImageFix" result="effect1_dropShadow_74_505"/>
<feBlend mode="normal" in="SourceGraphic" in2="effect1_dropShadow_74_505" result="shape"/>
</filter>
<linearGradient id="paint0_linear_74_505" x1="262.957" y1="-3.30089" x2="300.918" y2="486.817" gradientUnits="userSpaceOnUse">
<stop stop-color="#BF61A7"/>
<stop offset="1" stop-color="#592D4E"/>
</linearGradient>
<linearGradient id="paint1_linear_74_505" x1="237.584" y1="0" x2="237.584" y2="429.658" gradientUnits="userSpaceOnUse">
<stop stop-color="#F4A9E1"/>
<stop offset="0.447115" stop-color="#AA4391"/>
<stop offset="0.75" stop-color="#6D285C"/>
<stop offset="1" stop-color="#260C20"/>
</linearGradient>
</defs>
</svg>
