<svg width="1440" height="1468" viewBox="0 0 1440 1468" fill="none" xmlns="http://www.w3.org/2000/svg">
<g clip-path="url(#clip0_12_453)">
<rect width="1440" height="1468" fill="url(#paint0_linear_12_453)"/>
<g opacity="0.21">
<path d="M1259.55 -1559.57C1259.55 -1553.57 1254.68 -1548.71 1248.69 -1548.71C1242.69 -1548.71 1237.83 -1553.57 1237.83 -1559.57C1237.83 -1565.56 1242.69 -1570.43 1248.69 -1570.43C1254.68 -1570.43 1259.55 -1565.56 1259.55 -1559.57Z" fill="white"/>
<path d="M945.748 -1505.17C945.748 -1499.18 940.887 -1494.32 934.89 -1494.32C928.892 -1494.32 924.031 -1499.18 924.031 -1505.17C924.031 -1511.17 928.892 -1516.03 934.89 -1516.03C940.887 -1516.03 945.748 -1511.17 945.748 -1505.17Z" fill="white"/>
<path d="M-25.7856 -1570.43C-25.7856 -1564.43 -30.6472 -1559.57 -36.6443 -1559.57C-42.6414 -1559.57 -47.5029 -1564.43 -47.5029 -1570.43C-47.5029 -1576.42 -42.6414 -1581.29 -36.6443 -1581.29C-30.6472 -1581.29 -25.7856 -1576.42 -25.7856 -1570.43Z" fill="white"/>
<path d="M1893.56 -1526.89C1893.56 -1520.89 1888.7 -1516.03 1882.7 -1516.03C1876.71 -1516.03 1871.84 -1520.89 1871.84 -1526.89C1871.84 -1532.89 1876.71 -1537.75 1882.7 -1537.75C1888.7 -1537.75 1893.56 -1532.89 1893.56 -1526.89Z" fill="white"/>
<path d="M-640.488 -1447.3C-640.488 -1441.3 -645.35 -1436.44 -651.347 -1436.44C-657.344 -1436.44 -662.205 -1441.3 -662.205 -1447.3C-662.205 -1453.3 -657.344 -1458.16 -651.347 -1458.16C-645.35 -1458.16 -640.488 -1453.3 -640.488 -1447.3Z" fill="white"/>
<path d="M210.757 -1376.55C210.757 -1370.56 205.896 -1365.7 199.898 -1365.7C193.901 -1365.7 189.04 -1370.56 189.04 -1376.55C189.04 -1382.55 193.901 -1387.41 199.898 -1387.41C205.896 -1387.41 210.757 -1382.55 210.757 -1376.55Z" fill="white"/>
<path d="M1042.3 -1060.76C1042.3 -1054.76 1037.44 -1049.9 1031.44 -1049.9C1025.44 -1049.9 1020.58 -1054.76 1020.58 -1060.76C1020.58 -1066.76 1025.44 -1071.62 1031.44 -1071.62C1037.44 -1071.62 1042.3 -1066.76 1042.3 -1060.76Z" fill="white"/>
<path d="M542.874 -1233.74C542.874 -1227.74 538.012 -1222.88 532.015 -1222.88C526.018 -1222.88 521.156 -1227.74 521.156 -1233.74C521.156 -1239.74 526.018 -1244.6 532.015 -1244.6C538.012 -1244.6 542.874 -1239.74 542.874 -1233.74Z" fill="white"/>
<path d="M722.24 -1082.48C722.24 -1076.48 717.378 -1071.62 711.381 -1071.62C705.384 -1071.62 700.523 -1076.48 700.523 -1082.48C700.523 -1088.48 705.384 -1093.34 711.381 -1093.34C717.378 -1093.34 722.24 -1088.48 722.24 -1082.48Z" fill="white"/>
<path d="M2098.58 -1177.45C2098.58 -1171.45 2093.72 -1166.59 2087.72 -1166.59C2081.72 -1166.59 2076.86 -1171.45 2076.86 -1177.45C2076.86 -1183.45 2081.72 -1188.31 2087.72 -1188.31C2093.72 -1188.31 2098.58 -1183.45 2098.58 -1177.45Z" fill="white"/>
<path d="M-25.7856 -1162.81C-25.7856 -1156.81 -30.6472 -1151.95 -36.6443 -1151.95C-42.6414 -1151.95 -47.5029 -1156.81 -47.5029 -1162.81C-47.5029 -1168.8 -42.6414 -1173.66 -36.6443 -1173.66C-30.6472 -1173.66 -25.7856 -1168.8 -25.7856 -1162.81Z" fill="white"/>
<path d="M-640.488 -996.687C-640.488 -990.689 -645.35 -985.828 -651.347 -985.828C-657.344 -985.828 -662.205 -990.689 -662.205 -996.687C-662.205 -1002.68 -657.344 -1007.55 -651.347 -1007.55C-645.35 -1007.55 -640.488 -1002.68 -640.488 -996.687Z" fill="white"/>
<path d="M999.981 -1343.24C999.981 -1340.12 997.45 -1337.59 994.327 -1337.59C991.205 -1337.59 988.674 -1340.12 988.674 -1343.24C988.674 -1346.36 991.205 -1348.89 994.327 -1348.89C997.45 -1348.89 999.981 -1346.36 999.981 -1343.24Z" fill="white"/>
<path d="M1482.81 -1570.43C1482.81 -1567.3 1480.27 -1564.77 1477.15 -1564.77C1474.03 -1564.77 1471.5 -1567.3 1471.5 -1570.43C1471.5 -1573.55 1474.03 -1576.08 1477.15 -1576.08C1480.27 -1576.08 1482.81 -1573.55 1482.81 -1570.43Z" fill="white"/>
<path d="M511.761 -1472.86C511.761 -1469.74 509.23 -1467.21 506.107 -1467.21C502.985 -1467.21 500.454 -1469.74 500.454 -1472.86C500.454 -1475.98 502.985 -1478.52 506.107 -1478.52C509.23 -1478.52 511.761 -1475.98 511.761 -1472.86Z" fill="white"/>
<path d="M730.645 -1378.94C730.645 -1375.82 728.114 -1373.29 724.991 -1373.29C721.869 -1373.29 719.338 -1375.82 719.338 -1378.94C719.338 -1382.07 721.869 -1384.6 724.991 -1384.6C728.114 -1384.6 730.645 -1382.07 730.645 -1378.94Z" fill="white"/>
<path d="M1104.77 -1543.06C1104.77 -1539.93 1102.23 -1537.4 1099.11 -1537.4C1095.99 -1537.4 1093.46 -1539.93 1093.46 -1543.06C1093.46 -1546.18 1095.99 -1548.71 1099.11 -1548.71C1102.23 -1548.71 1104.77 -1546.18 1104.77 -1543.06Z" fill="white"/>
<path d="M1177.89 -1211.03C1177.89 -1207.91 1175.36 -1205.38 1172.23 -1205.38C1169.11 -1205.38 1166.58 -1207.91 1166.58 -1211.03C1166.58 -1214.16 1169.11 -1216.69 1172.23 -1216.69C1175.36 -1216.69 1177.89 -1214.16 1177.89 -1211.03Z" fill="white"/>
<path d="M194.693 -1543.06C194.693 -1539.93 192.162 -1537.4 189.04 -1537.4C185.917 -1537.4 183.386 -1539.93 183.386 -1543.06C183.386 -1546.18 185.917 -1548.71 189.04 -1548.71C192.162 -1548.71 194.693 -1546.18 194.693 -1543.06Z" fill="white"/>
<path d="M-104.572 -1384.6C-104.572 -1381.48 -107.103 -1378.95 -110.226 -1378.95C-113.348 -1378.95 -115.879 -1381.48 -115.879 -1384.6C-115.879 -1387.72 -113.348 -1390.25 -110.226 -1390.25C-107.103 -1390.25 -104.572 -1387.72 -104.572 -1384.6Z" fill="white"/>
<path d="M273.791 -1250.25C273.791 -1247.13 271.259 -1244.6 268.137 -1244.6C265.015 -1244.6 262.483 -1247.13 262.483 -1250.25C262.483 -1253.37 265.015 -1255.9 268.137 -1255.9C271.259 -1255.9 273.791 -1253.37 273.791 -1250.25Z" fill="white"/>
<path d="M-279.098 -1543.06C-279.098 -1539.93 -281.629 -1537.4 -284.752 -1537.4C-287.874 -1537.4 -290.405 -1539.93 -290.405 -1543.06C-290.405 -1546.18 -287.874 -1548.71 -284.752 -1548.71C-281.629 -1548.71 -279.098 -1546.18 -279.098 -1543.06Z" fill="white"/>
<path d="M2002.49 -1407.76C2002.49 -1404.64 1999.96 -1402.11 1996.83 -1402.11C1993.71 -1402.11 1991.18 -1404.64 1991.18 -1407.76C1991.18 -1410.89 1993.71 -1413.42 1996.83 -1413.42C1999.96 -1413.42 2002.49 -1410.89 2002.49 -1407.76Z" fill="white"/>
<path d="M1338.69 -1071.62C1338.69 -1068.5 1336.16 -1065.97 1333.04 -1065.97C1329.91 -1065.97 1327.38 -1068.5 1327.38 -1071.62C1327.38 -1074.75 1329.91 -1077.28 1333.04 -1077.28C1336.16 -1077.28 1338.69 -1074.75 1338.69 -1071.62Z" fill="white"/>
<path d="M1462.16 -928.78C1462.16 -922.783 1467.02 -917.922 1473.02 -917.922C1479.01 -917.922 1483.88 -922.783 1483.88 -928.78C1483.88 -934.777 1479.01 -939.639 1473.02 -939.639C1467.02 -939.639 1462.16 -934.777 1462.16 -928.78Z" fill="white" fill-opacity="0.79"/>
<path d="M-457.19 -885.245C-457.19 -879.248 -452.328 -874.386 -446.331 -874.386C-440.334 -874.386 -435.472 -879.248 -435.472 -885.245C-435.472 -891.242 -440.334 -896.104 -446.331 -896.104C-452.328 -896.104 -457.19 -891.242 -457.19 -885.245Z" fill="white" fill-opacity="0.79"/>
<path d="M2076.86 -805.653C2076.86 -799.656 2081.72 -794.795 2087.72 -794.795C2093.72 -794.795 2098.58 -799.656 2098.58 -805.653C2098.58 -811.65 2093.72 -816.512 2087.72 -816.512C2081.72 -816.512 2076.86 -811.65 2076.86 -805.653Z" fill="white" fill-opacity="0.79"/>
<path d="M1225.62 -734.907C1225.62 -728.91 1230.48 -724.049 1236.47 -724.049C1242.47 -724.049 1247.33 -728.91 1247.33 -734.907C1247.33 -740.904 1242.47 -745.766 1236.47 -745.766C1230.48 -745.766 1225.62 -740.904 1225.62 -734.907Z" fill="white" fill-opacity="0.79"/>
<path d="M596.596 -490.949C596.596 -484.952 601.458 -480.09 607.455 -480.09C613.452 -480.09 618.314 -484.952 618.314 -490.949C618.314 -496.946 613.452 -501.808 607.455 -501.808C601.458 -501.808 596.596 -496.946 596.596 -490.949Z" fill="white" fill-opacity="0.79"/>
<path d="M893.499 -592.093C893.499 -586.096 898.36 -581.234 904.357 -581.234C910.354 -581.234 915.216 -586.096 915.216 -592.093C915.216 -598.09 910.354 -602.951 904.357 -602.951C898.36 -602.951 893.499 -598.09 893.499 -592.093Z" fill="white" fill-opacity="0.79"/>
<path d="M-662.205 -535.802C-662.205 -529.805 -657.344 -524.943 -651.347 -524.943C-645.35 -524.943 -640.488 -529.805 -640.488 -535.802C-640.488 -541.799 -645.35 -546.66 -651.347 -546.66C-657.344 -546.66 -662.205 -541.799 -662.205 -535.802Z" fill="white" fill-opacity="0.79"/>
<path d="M1462.16 -521.159C1462.16 -515.162 1467.02 -510.301 1473.02 -510.301C1479.01 -510.301 1483.88 -515.162 1483.88 -521.159C1483.88 -527.156 1479.01 -532.018 1473.02 -532.018C1467.02 -532.018 1462.16 -527.156 1462.16 -521.159Z" fill="white" fill-opacity="0.79"/>
<path d="M2076.86 -355.04C2076.86 -349.043 2081.72 -344.181 2087.72 -344.181C2093.72 -344.181 2098.58 -349.043 2098.58 -355.04C2098.58 -361.037 2093.72 -365.899 2087.72 -365.899C2081.72 -365.899 2076.86 -361.037 2076.86 -355.04Z" fill="white" fill-opacity="0.79"/>
<path d="M436.391 -701.593C436.391 -698.47 438.923 -695.939 442.045 -695.939C445.167 -695.939 447.699 -698.47 447.699 -701.593C447.699 -704.715 445.167 -707.246 442.045 -707.246C438.923 -707.246 436.391 -704.715 436.391 -701.593Z" fill="white" fill-opacity="0.79"/>
<path d="M-46.4336 -928.78C-46.4336 -925.658 -43.9024 -923.127 -40.78 -923.127C-37.6577 -923.127 -35.1265 -925.658 -35.1265 -928.78C-35.1265 -931.903 -37.6577 -934.434 -40.78 -934.434C-43.9024 -934.434 -46.4336 -931.903 -46.4336 -928.78Z" fill="white" fill-opacity="0.79"/>
<path d="M924.611 -831.216C924.611 -828.093 927.143 -825.562 930.265 -825.562C933.387 -825.562 935.919 -828.093 935.919 -831.216C935.919 -834.338 933.387 -836.869 930.265 -836.869C927.143 -836.869 924.611 -834.338 924.611 -831.216Z" fill="white" fill-opacity="0.79"/>
<path d="M705.728 -737.298C705.728 -734.175 708.259 -731.644 711.381 -731.644C714.504 -731.644 717.035 -734.175 717.035 -737.298C717.035 -740.42 714.504 -742.951 711.381 -742.951C708.259 -742.951 705.728 -740.42 705.728 -737.298Z" fill="white" fill-opacity="0.79"/>
<path d="M331.607 -901.409C331.607 -898.287 334.138 -895.756 337.26 -895.756C340.383 -895.756 342.914 -898.287 342.914 -901.409C342.914 -904.532 340.383 -907.063 337.26 -907.063C334.138 -907.063 331.607 -904.532 331.607 -901.409Z" fill="white" fill-opacity="0.79"/>
<path d="M258.486 -569.388C258.486 -566.265 261.017 -563.734 264.139 -563.734C267.261 -563.734 269.793 -566.265 269.793 -569.388C269.793 -572.51 267.261 -575.041 264.139 -575.041C261.017 -575.041 258.486 -572.51 258.486 -569.388Z" fill="white" fill-opacity="0.79"/>
<path d="M1241.68 -901.409C1241.68 -898.287 1244.21 -895.756 1247.33 -895.756C1250.46 -895.756 1252.99 -898.287 1252.99 -901.409C1252.99 -904.532 1250.46 -907.063 1247.33 -907.063C1244.21 -907.063 1241.68 -904.532 1241.68 -901.409Z" fill="white" fill-opacity="0.79"/>
<path d="M1540.94 -742.952C1540.94 -739.83 1543.48 -737.299 1546.6 -737.299C1549.72 -737.299 1552.25 -739.83 1552.25 -742.952C1552.25 -746.075 1549.72 -748.606 1546.6 -748.606C1543.48 -748.606 1540.94 -746.075 1540.94 -742.952Z" fill="white" fill-opacity="0.79"/>
<path d="M1162.58 -608.604C1162.58 -605.482 1165.11 -602.951 1168.24 -602.951C1171.36 -602.951 1173.89 -605.482 1173.89 -608.604C1173.89 -611.727 1171.36 -614.258 1168.24 -614.258C1165.11 -614.258 1162.58 -611.727 1162.58 -608.604Z" fill="white" fill-opacity="0.79"/>
<path d="M1819.51 -679.455C1819.51 -676.332 1822.04 -673.801 1825.16 -673.801C1828.28 -673.801 1830.82 -676.332 1830.82 -679.455C1830.82 -682.577 1828.28 -685.108 1825.16 -685.108C1822.04 -685.108 1819.51 -682.577 1819.51 -679.455Z" fill="white" fill-opacity="0.79"/>
<path d="M-566.114 -766.118C-566.114 -762.996 -563.583 -760.465 -560.461 -760.465C-557.338 -760.465 -554.807 -762.996 -554.807 -766.118C-554.807 -769.241 -557.338 -771.772 -560.461 -771.772C-563.583 -771.772 -566.114 -769.241 -566.114 -766.118Z" fill="white" fill-opacity="0.79"/>
<path d="M108.377 -737.298C108.377 -734.175 110.908 -731.644 114.031 -731.644C117.153 -731.644 119.684 -734.175 119.684 -737.298C119.684 -740.42 117.153 -742.951 114.031 -742.951C110.908 -742.951 108.377 -740.42 108.377 -737.298Z" fill="white" fill-opacity="0.79"/>
<path d="M-29.9214 -535.802C-29.9214 -529.805 -34.783 -524.943 -40.78 -524.943C-46.7771 -524.943 -51.6387 -529.805 -51.6387 -535.802C-51.6387 -541.799 -46.7771 -546.66 -40.78 -546.66C-34.783 -546.66 -29.9214 -541.799 -29.9214 -535.802Z" fill="white" fill-opacity="0.79"/>
<path d="M1829.86 -343.003C1829.86 -337.006 1825 -332.144 1819 -332.144C1813 -332.144 1808.14 -337.006 1808.14 -343.003C1808.14 -349 1813 -353.862 1819 -353.862C1825 -353.862 1829.86 -349 1829.86 -343.003Z" fill="white" fill-opacity="0.79"/>
<path d="M-704.19 -263.411C-704.19 -257.414 -709.052 -252.552 -715.049 -252.552C-721.046 -252.552 -725.907 -257.414 -725.907 -263.411C-725.907 -269.408 -721.046 -274.27 -715.049 -274.27C-709.052 -274.27 -704.19 -269.408 -704.19 -263.411Z" fill="white" fill-opacity="0.79"/>
<path d="M147.055 -192.665C147.055 -186.668 142.194 -181.806 136.197 -181.806C130.199 -181.806 125.338 -186.668 125.338 -192.665C125.338 -198.662 130.199 -203.524 136.197 -203.524C142.194 -203.524 147.055 -198.662 147.055 -192.665Z" fill="white" fill-opacity="0.79"/>
<path d="M978.595 123.128C978.595 129.125 973.734 133.987 967.737 133.987C961.74 133.987 956.878 129.125 956.878 123.128C956.878 117.131 961.74 112.269 967.737 112.269C973.734 112.269 978.595 117.131 978.595 123.128Z" fill="white" fill-opacity="0.79"/>
<path d="M479.172 -49.8506C479.172 -43.8535 474.31 -38.9919 468.313 -38.9919C462.316 -38.9919 457.455 -43.8535 457.455 -49.8506C457.455 -55.8477 462.316 -60.7092 468.313 -60.7092C474.31 -60.7092 479.172 -55.8477 479.172 -49.8506Z" fill="white" fill-opacity="0.79"/>
<path d="M2034.88 6.44043C2034.88 12.4375 2030.01 17.2991 2024.02 17.2991C2018.02 17.2991 2013.16 12.4375 2013.16 6.44043C2013.16 0.443359 2018.02 -4.41821 2024.02 -4.41821C2030.01 -4.41821 2034.88 0.443359 2034.88 6.44043Z" fill="white" fill-opacity="0.79"/>
<path d="M-89.4875 21.083C-89.4875 27.0801 -94.3491 31.9417 -100.346 31.9417C-106.343 31.9417 -111.205 27.0801 -111.205 21.083C-111.205 15.0859 -106.343 10.2244 -100.346 10.2244C-94.3491 10.2244 -89.4875 15.0859 -89.4875 21.083Z" fill="white" fill-opacity="0.79"/>
<path d="M-704.19 187.202C-704.19 193.199 -709.052 198.061 -715.049 198.061C-721.046 198.061 -725.907 193.199 -725.907 187.202C-725.907 181.205 -721.046 176.344 -715.049 176.344C-709.052 176.344 -704.19 181.205 -704.19 187.202Z" fill="white" fill-opacity="0.79"/>
<path d="M936.279 -159.351C936.279 -156.228 933.748 -153.697 930.625 -153.697C927.503 -153.697 924.972 -156.228 924.972 -159.351C924.972 -162.473 927.503 -165.004 930.625 -165.004C933.748 -165.004 936.279 -162.473 936.279 -159.351Z" fill="white" fill-opacity="0.79"/>
<path d="M1419.1 -386.538C1419.1 -383.416 1416.57 -380.885 1413.45 -380.885C1410.33 -380.885 1407.8 -383.416 1407.8 -386.538C1407.8 -389.661 1410.33 -392.192 1413.45 -392.192C1416.57 -392.192 1419.1 -389.661 1419.1 -386.538Z" fill="white" fill-opacity="0.79"/>
<path d="M448.059 -288.974C448.059 -285.851 445.528 -283.32 442.406 -283.32C439.283 -283.32 436.752 -285.851 436.752 -288.974C436.752 -292.096 439.283 -294.627 442.406 -294.627C445.528 -294.627 448.059 -292.096 448.059 -288.974Z" fill="white" fill-opacity="0.79"/>
<path d="M666.943 -195.056C666.943 -191.933 664.412 -189.402 661.289 -189.402C658.167 -189.402 655.636 -191.933 655.636 -195.056C655.636 -198.178 658.167 -200.709 661.289 -200.709C664.412 -200.709 666.943 -198.178 666.943 -195.056Z" fill="white" fill-opacity="0.79"/>
<path d="M1041.06 -359.167C1041.06 -356.045 1038.53 -353.513 1035.41 -353.513C1032.29 -353.513 1029.76 -356.045 1029.76 -359.167C1029.76 -362.289 1032.29 -364.821 1035.41 -364.821C1038.53 -364.821 1041.06 -362.289 1041.06 -359.167Z" fill="white" fill-opacity="0.79"/>
<path d="M1114.19 -27.1455C1114.19 -24.0231 1111.65 -21.4919 1108.53 -21.4919C1105.41 -21.4919 1102.88 -24.0231 1102.88 -27.1455C1102.88 -30.2679 1105.41 -32.7991 1108.53 -32.7991C1111.65 -32.7991 1114.19 -30.2679 1114.19 -27.1455Z" fill="white" fill-opacity="0.79"/>
<path d="M130.991 -359.167C130.991 -356.045 128.46 -353.513 125.338 -353.513C122.216 -353.513 119.684 -356.045 119.684 -359.167C119.684 -362.289 122.216 -364.821 125.338 -364.821C128.46 -364.821 130.991 -362.289 130.991 -359.167Z" fill="white" fill-opacity="0.79"/>
<path d="M-168.274 -200.71C-168.274 -197.588 -170.805 -195.056 -173.927 -195.056C-177.05 -195.056 -179.581 -197.588 -179.581 -200.71C-179.581 -203.832 -177.05 -206.364 -173.927 -206.364C-170.805 -206.364 -168.274 -203.832 -168.274 -200.71Z" fill="white" fill-opacity="0.79"/>
<path d="M210.089 -66.3623C210.089 -63.2399 207.557 -60.7087 204.435 -60.7087C201.313 -60.7087 198.781 -63.2399 198.781 -66.3623C198.781 -69.4847 201.313 -72.0159 204.435 -72.0159C207.557 -72.0159 210.089 -69.4847 210.089 -66.3623Z" fill="white" fill-opacity="0.79"/>
<path d="M-342.8 -359.167C-342.8 -356.045 -345.331 -353.513 -348.454 -353.513C-351.576 -353.513 -354.107 -356.045 -354.107 -359.167C-354.107 -362.289 -351.576 -364.821 -348.454 -364.821C-345.331 -364.821 -342.8 -362.289 -342.8 -359.167Z" fill="white" fill-opacity="0.79"/>
<path d="M1938.78 -223.876C1938.78 -220.754 1936.25 -218.222 1933.13 -218.222C1930.01 -218.222 1927.48 -220.754 1927.48 -223.876C1927.48 -226.998 1930.01 -229.53 1933.13 -229.53C1936.25 -229.53 1938.78 -226.998 1938.78 -223.876Z" fill="white" fill-opacity="0.79"/>
<path d="M1274.99 112.265C1274.99 115.387 1272.46 117.918 1269.33 117.918C1266.21 117.918 1263.68 115.387 1263.68 112.265C1263.68 109.142 1266.21 106.611 1269.33 106.611C1272.46 106.611 1274.99 109.142 1274.99 112.265Z" fill="white" fill-opacity="0.79"/>
<path d="M1462.16 1434.69C1462.16 1428.7 1467.02 1423.83 1473.02 1423.83C1479.01 1423.83 1483.88 1428.7 1483.88 1434.69C1483.88 1440.69 1479.01 1445.55 1473.02 1445.55C1467.02 1445.55 1462.16 1440.69 1462.16 1434.69Z" fill="white"/>
<path d="M-457.19 1391.16C-457.19 1385.16 -452.328 1380.3 -446.331 1380.3C-440.334 1380.3 -435.472 1385.16 -435.472 1391.16C-435.472 1397.15 -440.334 1402.02 -446.331 1402.02C-452.328 1402.02 -457.19 1397.15 -457.19 1391.16Z" fill="white"/>
<path d="M2076.86 1311.57C2076.86 1305.57 2081.72 1300.71 2087.72 1300.71C2093.72 1300.71 2098.58 1305.57 2098.58 1311.57C2098.58 1317.56 2093.72 1322.42 2087.72 1322.42C2081.72 1322.42 2076.86 1317.56 2076.86 1311.57Z" fill="white"/>
<path d="M1225.62 1240.82C1225.62 1234.82 1230.48 1229.96 1236.47 1229.96C1242.47 1229.96 1247.33 1234.82 1247.33 1240.82C1247.33 1246.82 1242.47 1251.68 1236.47 1251.68C1230.48 1251.68 1225.62 1246.82 1225.62 1240.82Z" fill="white"/>
<path d="M596.596 996.862C596.596 990.865 601.458 986.003 607.455 986.003C613.452 986.003 618.314 990.865 618.314 996.862C618.314 1002.86 613.452 1007.72 607.455 1007.72C601.458 1007.72 596.596 1002.86 596.596 996.862Z" fill="white"/>
<path d="M893.499 1098.01C893.499 1092.01 898.36 1087.15 904.357 1087.15C910.354 1087.15 915.216 1092.01 915.216 1098.01C915.216 1104 910.354 1108.86 904.357 1108.86C898.36 1108.86 893.499 1104 893.499 1098.01Z" fill="white"/>
<path d="M-662.205 1041.71C-662.205 1035.72 -657.344 1030.86 -651.347 1030.86C-645.35 1030.86 -640.488 1035.72 -640.488 1041.71C-640.488 1047.71 -645.35 1052.57 -651.347 1052.57C-657.344 1052.57 -662.205 1047.71 -662.205 1041.71Z" fill="white"/>
<path d="M1462.16 1027.07C1462.16 1021.07 1467.02 1016.21 1473.02 1016.21C1479.01 1016.21 1483.88 1021.07 1483.88 1027.07C1483.88 1033.07 1479.01 1037.93 1473.02 1037.93C1467.02 1037.93 1462.16 1033.07 1462.16 1027.07Z" fill="white"/>
<path d="M2076.86 860.953C2076.86 854.956 2081.72 850.094 2087.72 850.094C2093.72 850.094 2098.58 854.956 2098.58 860.953C2098.58 866.95 2093.72 871.811 2087.72 871.811C2081.72 871.811 2076.86 866.95 2076.86 860.953Z" fill="white"/>
<path d="M436.391 1207.51C436.391 1204.38 438.923 1201.85 442.045 1201.85C445.167 1201.85 447.699 1204.38 447.699 1207.51C447.699 1210.63 445.167 1213.16 442.045 1213.16C438.923 1213.16 436.391 1210.63 436.391 1207.51Z" fill="white"/>
<path d="M-46.4336 1434.69C-46.4336 1431.57 -43.9024 1429.04 -40.78 1429.04C-37.6577 1429.04 -35.1265 1431.57 -35.1265 1434.69C-35.1265 1437.82 -37.6577 1440.35 -40.78 1440.35C-43.9024 1440.35 -46.4336 1437.82 -46.4336 1434.69Z" fill="white"/>
<path d="M924.611 1337.13C924.611 1334.01 927.143 1331.47 930.265 1331.47C933.387 1331.47 935.919 1334.01 935.919 1337.13C935.919 1340.25 933.387 1342.78 930.265 1342.78C927.143 1342.78 924.611 1340.25 924.611 1337.13Z" fill="white"/>
<path d="M705.728 1243.21C705.728 1240.09 708.259 1237.56 711.381 1237.56C714.504 1237.56 717.035 1240.09 717.035 1243.21C717.035 1246.33 714.504 1248.86 711.381 1248.86C708.259 1248.86 705.728 1246.33 705.728 1243.21Z" fill="white"/>
<path d="M331.607 1407.32C331.607 1404.2 334.138 1401.67 337.26 1401.67C340.383 1401.67 342.914 1404.2 342.914 1407.32C342.914 1410.44 340.383 1412.98 337.26 1412.98C334.138 1412.98 331.607 1410.44 331.607 1407.32Z" fill="white"/>
<path d="M258.486 1075.3C258.486 1072.18 261.017 1069.65 264.139 1069.65C267.262 1069.65 269.793 1072.18 269.793 1075.3C269.793 1078.42 267.262 1080.95 264.139 1080.95C261.017 1080.95 258.486 1078.42 258.486 1075.3Z" fill="white"/>
<path d="M1241.68 1407.32C1241.68 1404.2 1244.21 1401.67 1247.33 1401.67C1250.46 1401.67 1252.99 1404.2 1252.99 1407.32C1252.99 1410.44 1250.46 1412.98 1247.33 1412.98C1244.21 1412.98 1241.68 1410.44 1241.68 1407.32Z" fill="white"/>
<path d="M1540.94 1248.86C1540.94 1245.74 1543.48 1243.21 1546.6 1243.21C1549.72 1243.21 1552.25 1245.74 1552.25 1248.86C1552.25 1251.99 1549.72 1254.52 1546.6 1254.52C1543.48 1254.52 1540.94 1251.99 1540.94 1248.86Z" fill="white"/>
<path d="M1162.58 1114.52C1162.58 1111.39 1165.11 1108.86 1168.24 1108.86C1171.36 1108.86 1173.89 1111.39 1173.89 1114.52C1173.89 1117.64 1171.36 1120.17 1168.24 1120.17C1165.11 1120.17 1162.58 1117.64 1162.58 1114.52Z" fill="white"/>
<path d="M1819.51 1185.37C1819.51 1182.24 1822.04 1179.71 1825.16 1179.71C1828.28 1179.71 1830.82 1182.24 1830.82 1185.37C1830.82 1188.49 1828.28 1191.02 1825.16 1191.02C1822.04 1191.02 1819.51 1188.49 1819.51 1185.37Z" fill="white"/>
<path d="M-566.114 1272.03C-566.114 1268.91 -563.583 1266.38 -560.461 1266.38C-557.338 1266.38 -554.807 1268.91 -554.807 1272.03C-554.807 1275.15 -557.338 1277.68 -560.461 1277.68C-563.583 1277.68 -566.114 1275.15 -566.114 1272.03Z" fill="white"/>
<path d="M108.377 1243.21C108.377 1240.09 110.908 1237.56 114.031 1237.56C117.153 1237.56 119.684 1240.09 119.684 1243.21C119.684 1246.33 117.153 1248.86 114.031 1248.86C110.908 1248.86 108.377 1246.33 108.377 1243.21Z" fill="white"/>
<path d="M-29.9214 1041.71C-29.9214 1035.72 -34.783 1030.86 -40.78 1030.86C-46.7771 1030.86 -51.6387 1035.72 -51.6387 1041.71C-51.6387 1047.71 -46.7771 1052.57 -40.78 1052.57C-34.783 1052.57 -29.9214 1047.71 -29.9214 1041.71Z" fill="white"/>
<path d="M1829.86 848.916C1829.86 842.918 1825 838.057 1819 838.057C1813 838.057 1808.14 842.918 1808.14 848.916C1808.14 854.913 1813 859.774 1819 859.774C1825 859.774 1829.86 854.913 1829.86 848.916Z" fill="white"/>
<path d="M-704.19 769.324C-704.19 763.327 -709.052 758.465 -715.049 758.465C-721.046 758.465 -725.907 763.327 -725.907 769.324C-725.907 775.321 -721.046 780.182 -715.049 780.182C-709.052 780.182 -704.19 775.321 -704.19 769.324Z" fill="white"/>
<path d="M147.055 698.578C147.055 692.581 142.194 687.719 136.197 687.719C130.199 687.719 125.338 692.581 125.338 698.578C125.338 704.575 130.199 709.436 136.197 709.436C142.194 709.436 147.055 704.575 147.055 698.578Z" fill="white"/>
<path d="M978.595 382.785C978.595 376.788 973.734 371.926 967.737 371.926C961.74 371.926 956.878 376.788 956.878 382.785C956.878 388.782 961.74 393.643 967.737 393.643C973.734 393.643 978.595 388.782 978.595 382.785Z" fill="white"/>
<path d="M479.172 555.763C479.172 549.766 474.31 544.905 468.313 544.905C462.316 544.905 457.455 549.766 457.455 555.763C457.455 561.76 462.316 566.622 468.313 566.622C474.31 566.622 479.172 561.76 479.172 555.763Z" fill="white"/>
<path d="M2034.88 499.472C2034.88 493.475 2030.01 488.614 2024.02 488.614C2018.02 488.614 2013.16 493.475 2013.16 499.472C2013.16 505.469 2018.02 510.331 2024.02 510.331C2030.01 510.331 2034.88 505.469 2034.88 499.472Z" fill="white"/>
<path d="M-89.4875 484.83C-89.4875 478.833 -94.3491 473.971 -100.346 473.971C-106.343 473.971 -111.205 478.833 -111.205 484.83C-111.205 490.827 -106.343 495.688 -100.346 495.688C-94.3491 495.688 -89.4875 490.827 -89.4875 484.83Z" fill="white"/>
<path d="M-704.19 318.71C-704.19 312.713 -709.052 307.852 -715.049 307.852C-721.046 307.852 -725.907 312.713 -725.907 318.71C-725.907 324.708 -721.046 329.569 -715.049 329.569C-709.052 329.569 -704.19 324.708 -704.19 318.71Z" fill="white"/>
<path d="M936.279 665.263C936.279 662.141 933.748 659.61 930.625 659.61C927.503 659.61 924.972 662.141 924.972 665.263C924.972 668.385 927.503 670.917 930.625 670.917C933.748 670.917 936.279 668.385 936.279 665.263Z" fill="white"/>
<path d="M1419.1 892.451C1419.1 889.328 1416.57 886.797 1413.45 886.797C1410.33 886.797 1407.8 889.328 1407.8 892.451C1407.8 895.573 1410.33 898.104 1413.45 898.104C1416.57 898.104 1419.1 895.573 1419.1 892.451Z" fill="white"/>
<path d="M448.059 794.886C448.059 791.764 445.528 789.233 442.406 789.233C439.283 789.233 436.752 791.764 436.752 794.886C436.752 798.009 439.283 800.54 442.406 800.54C445.528 800.54 448.059 798.009 448.059 794.886Z" fill="white"/>
<path d="M666.943 700.968C666.943 697.846 664.412 695.315 661.289 695.315C658.167 695.315 655.636 697.846 655.636 700.968C655.636 704.091 658.167 706.622 661.289 706.622C664.412 706.622 666.943 704.091 666.943 700.968Z" fill="white"/>
<path d="M1041.06 865.08C1041.06 861.957 1038.53 859.426 1035.41 859.426C1032.29 859.426 1029.76 861.957 1029.76 865.08C1029.76 868.202 1032.29 870.733 1035.41 870.733C1038.53 870.733 1041.06 868.202 1041.06 865.08Z" fill="white"/>
<path d="M1114.19 533.058C1114.19 529.936 1111.65 527.405 1108.53 527.405C1105.41 527.405 1102.88 529.936 1102.88 533.058C1102.88 536.18 1105.41 538.712 1108.53 538.712C1111.65 538.712 1114.19 536.18 1114.19 533.058Z" fill="white"/>
<path d="M130.991 865.08C130.991 861.957 128.46 859.426 125.338 859.426C122.216 859.426 119.684 861.957 119.684 865.08C119.684 868.202 122.216 870.733 125.338 870.733C128.46 870.733 130.991 868.202 130.991 865.08Z" fill="white"/>
<path d="M-168.274 706.623C-168.274 703.5 -170.805 700.969 -173.927 700.969C-177.05 700.969 -179.581 703.5 -179.581 706.623C-179.581 709.745 -177.05 712.276 -173.927 712.276C-170.805 712.276 -168.274 709.745 -168.274 706.623Z" fill="white"/>
<path d="M210.089 572.275C210.089 569.153 207.557 566.621 204.435 566.621C201.313 566.621 198.781 569.153 198.781 572.275C198.781 575.397 201.313 577.928 204.435 577.928C207.557 577.928 210.089 575.397 210.089 572.275Z" fill="white"/>
<path d="M-342.8 865.08C-342.8 861.957 -345.331 859.426 -348.454 859.426C-351.576 859.426 -354.107 861.957 -354.107 865.08C-354.107 868.202 -351.576 870.733 -348.454 870.733C-345.331 870.733 -342.8 868.202 -342.8 865.08Z" fill="white"/>
<path d="M1938.78 729.789C1938.78 726.666 1936.25 724.135 1933.13 724.135C1930.01 724.135 1927.48 726.666 1927.48 729.789C1927.48 732.911 1930.01 735.442 1933.13 735.442C1936.25 735.442 1938.78 732.911 1938.78 729.789Z" fill="white"/>
<path d="M1274.99 393.648C1274.99 390.526 1272.46 387.994 1269.33 387.994C1266.21 387.994 1263.68 390.526 1263.68 393.648C1263.68 396.77 1266.21 399.302 1269.33 399.302C1272.46 399.302 1274.99 396.77 1274.99 393.648Z" fill="white"/>
<path d="M414.681 -1071.37C414.681 -1065.37 409.819 -1060.51 403.822 -1060.51C397.825 -1060.51 392.963 -1065.37 392.963 -1071.37C392.963 -1077.37 397.825 -1082.23 403.822 -1082.23C409.819 -1082.23 414.681 -1077.37 414.681 -1071.37Z" fill="white"/>
</g>
<rect x="840.479" y="1237.01" width="96.8052" height="62.3628" rx="16" fill="#300E3D"/>
<rect x="855.137" y="1210.14" width="69.2593" height="53.3613" rx="16" fill="#300E3D"/>
<rect x="878.09" y="1196.42" width="23.3525" height="53.3613" rx="1" fill="#300E3D"/>
<rect width="35.8501" height="10.3186" rx="1" transform="matrix(1 0 0 -1 871.35 1199.3)" fill="#300E3D"/>
<rect x="615.238" y="1247.71" width="80.1948" height="51.6623" rx="25.8311" fill="#300E3D"/>
<rect x="646.396" y="1214.08" width="19.3456" height="44.2053" rx="1" fill="#300E3D"/>
<rect width="29.6987" height="8.54808" rx="1" transform="matrix(1 0 0 -1 640.811 1216.47)" fill="#300E3D"/>
<path d="M968.023 1245.05C970.162 1238.45 976.308 1233.99 983.242 1233.99L1018.38 1233.99C1025.73 1233.99 1032.13 1238.99 1033.91 1246.11L1042.24 1279.5C1044.76 1289.59 1037.13 1299.37 1026.72 1299.37H972.411C961.545 1299.37 953.839 1288.77 957.192 1278.44L968.023 1245.05Z" fill="#300E3D"/>
<rect x="988.012" y="1216.15" width="23.3525" height="43.1326" rx="1" fill="#300E3D"/>
<rect width="35.8501" height="8.34065" rx="1" transform="matrix(1 0 0 -1 981.27 1218.48)" fill="#300E3D"/>
<path d="M1276.46 1223.72C1276.46 1218.2 1280.94 1213.72 1286.46 1213.72H1393.8C1399.32 1213.72 1403.8 1218.2 1403.8 1223.72V1273.5V1290.93H1378V1273.5H1301.01V1290.93H1276.46V1273.5V1223.72Z" fill="#300E3D"/>
<path d="M297.34 1223.72C297.34 1218.2 301.817 1213.72 307.34 1213.72H414.672C420.195 1213.72 424.672 1218.2 424.672 1223.72V1273.5V1290.93H398.873V1273.5H321.892V1290.93H297.34V1273.5V1223.72Z" fill="#300E3D"/>
<rect x="-103.266" y="1289.7" width="1543.27" height="145.177" fill="#300E3D"/>
<rect y="1395.38" width="1440" height="75.0554" fill="#545454"/>
<path d="M-28.7808 1363.09L2.53866 1374.28L-17.1478 1429.4C-17.1478 1429.4 -30.1984 1434.93 -37.4417 1431.6C-43.5949 1428.77 -48.4673 1418.21 -48.4673 1418.21L-28.7808 1363.09Z" fill="#060606"/>
<path d="M218.444 1363.09L187.124 1374.28L206.811 1429.4C206.811 1429.4 219.862 1434.93 227.105 1431.6C233.258 1428.77 238.13 1418.21 238.13 1418.21L218.444 1363.09Z" fill="#060606"/>
<g filter="url(#filter0_i_12_453)">
<path d="M282.746 1233.07C304.07 1316.97 282.746 1409.89 95.2884 1409.89C-92.1691 1409.89 -124.771 1323.59 -92.169 1233.07C-59.5671 1142.55 8.83559 1115.88 95.2884 1115.88C181.741 1115.88 261.422 1149.17 282.746 1233.07Z" fill="#2D2D2D"/>
</g>
<path d="M251.359 1193.67C251.359 1193.67 234.797 1226.61 190.372 1236.92C145.946 1247.24 116.577 1223.86 116.577 1223.86C116.577 1223.86 161.211 1230.47 188.671 1224.08C215.419 1217.86 251.359 1193.67 251.359 1193.67Z" fill="#060606"/>
<ellipse cx="93.0869" cy="1174.07" rx="176.943" ry="58.1893" fill="#2D2D2D"/>
<mask id="mask0_12_453" style="mask-type:alpha" maskUnits="userSpaceOnUse" x="-49" y="1126" width="284" height="68">
<ellipse cx="93.0867" cy="1160.2" rx="141.755" ry="33.6675" fill="#060606"/>
</mask>
<g mask="url(#mask0_12_453)">
<ellipse cx="93.0867" cy="1160.2" rx="141.755" ry="33.6675" fill="#060606"/>
<path d="M-56.626 1190.45C-56.626 1190.45 3.2964 1158.26 94.1697 1157.99C185.043 1157.72 243.231 1190.45 243.231 1190.45L241.193 1214.05H-56.6259L-56.626 1190.45Z" fill="#BF61A7"/>
</g>
<g filter="url(#filter1_i_12_453)">
<path d="M-24.4792 1013.21L-52.4022 1023.75L11.8301 1188.86C11.8301 1188.86 25.2386 1190.63 33.3045 1191.65C41.3703 1192.67 42.9921 1191.97 42.9921 1191.97L-24.4792 1013.21Z" fill="#5C3F35"/>
</g>
<path d="M984.75 1424.78H1012.38C1012.38 1424.78 1016.69 1427.26 1016.76 1429.88C1016.83 1432.59 1012.38 1435.27 1012.38 1435.27H984.75V1424.78Z" fill="#060606"/>
<path d="M576.681 1340.83L567.397 1324.35L576.681 1308.74L567.397 1283.82L994.054 1430.75L576.681 1436.94L567.397 1415.48L576.681 1400.31L567.398 1383.5L576.681 1367.63L567.398 1354.56L576.681 1340.83Z" fill="#6B6B6B"/>
<path d="M567.199 1383.41L968.688 1426.97C861.57 1423.8 683.228 1405.32 576.11 1402.15L567.199 1383.41Z" fill="#4C4C4C"/>
<path d="M567.199 1415.16L970.245 1430.16C863.127 1426.99 683.228 1437.07 576.11 1433.9L567.199 1415.16Z" fill="#4C4C4C"/>
<path d="M567.353 1354.57L963.731 1426.52L576.11 1369.39L567.353 1354.57Z" fill="#4C4C4C"/>
<path d="M568.022 1325.2L960.032 1427.03L576.11 1340.43L568.022 1325.2Z" fill="#4C4C4C"/>
<path d="M571.513 1295.17L960.032 1425.07L576.11 1309.2L571.513 1295.17Z" fill="#4C4C4C"/>
<rect x="508.796" y="1426.35" width="489.108" height="10.5938" fill="#2D2D2D"/>
<path d="M529.207 1259.01L998.166 1422.96L998.166 1436.53L525.706 1269.01L529.207 1259.01Z" fill="#2D2D2D"/>
<path d="M520.035 1250.56C520.035 1250.56 534.55 1259.45 544.667 1263.32C555.56 1267.49 573.643 1270.55 573.643 1270.55L567.398 1287.3C567.398 1287.3 551.541 1278.99 540.815 1275.03C530.519 1271.23 513.789 1267.32 513.789 1267.32C513.789 1267.32 512.258 1260.74 513.851 1257.07C515.246 1253.85 520.035 1250.56 520.035 1250.56Z" fill="#060606"/>
<path d="M508.992 1422.71C508.992 1422.71 525.696 1425.96 536.528 1426.05C548.19 1426.15 566.205 1422.71 566.205 1422.71V1440.59C566.205 1440.59 548.445 1438.34 537.011 1438.38C526.035 1438.41 508.992 1440.59 508.992 1440.59C508.992 1440.59 504.593 1435.37 504.674 1431.41C504.751 1427.62 508.992 1422.71 508.992 1422.71Z" fill="#060606"/>
<path d="M1091.63 1266.23L1477.18 1266.23L1509.78 1299.37H1060L1091.63 1266.23Z" fill="#4F362D"/>
<rect x="1070.35" y="1412.03" width="429.13" height="12.9424" fill="#4F362D"/>
<rect x="1070.35" y="1309.58" width="31.1663" height="108.917" fill="#4F362D"/>
<path d="M1144.25 1233.16C1144.25 1233.16 1144.72 1226.7 1161.41 1226.7C1178.09 1226.7 1179.69 1233.16 1179.69 1233.16V1386.95C1179.69 1386.95 1175.21 1400.49 1161.97 1400.49C1148.73 1400.49 1144.25 1386.95 1144.25 1386.95V1233.16Z" fill="#C7EAE8"/>
<ellipse cx="1162.04" cy="1260.23" rx="13.6218" ry="4.7535" fill="#80A749"/>
<path d="M1148.42 1260.08C1148.42 1260.08 1150.54 1264.73 1162.04 1264.73C1173.54 1264.73 1175.66 1260.08 1175.66 1260.08V1385.99C1175.66 1385.99 1168.18 1395.64 1162.04 1395.64C1155.9 1395.64 1148.42 1385.99 1148.42 1385.99V1260.08Z" fill="#A0DE49"/>
<path d="M1146.98 1228.44L1177.12 1228.05C1177.12 1228.05 1177.49 1238.85 1176.36 1240.38C1175.23 1241.9 1168.36 1244.22 1161.72 1244.02C1155.8 1243.84 1149.96 1241.36 1148.07 1240.2C1146.18 1239.05 1146.98 1228.44 1146.98 1228.44Z" fill="#AC7E7E"/>
<path d="M1146.75 1221.04H1177.15L1177.15 1233.83C1177.15 1233.83 1167.98 1236.15 1161.87 1236.14C1155.82 1236.13 1146.75 1233.18 1146.75 1233.18V1221.04Z" fill="#8B5454"/>
<ellipse cx="1161.95" cy="1220.69" rx="15.2021" ry="4.82204" fill="#C57878"/>
<path d="M1267.19 1233.16C1267.19 1233.16 1267.67 1226.7 1284.35 1226.7C1301.03 1226.7 1302.63 1233.16 1302.63 1233.16V1386.95C1302.63 1386.95 1298.15 1400.49 1284.91 1400.49C1271.68 1400.49 1267.19 1386.95 1267.19 1386.95V1233.16Z" fill="#C7EAE8"/>
<ellipse cx="1284.99" cy="1260.23" rx="13.6218" ry="4.7535" fill="#98317E"/>
<path d="M1271.36 1260.08C1271.36 1260.08 1273.48 1264.73 1284.99 1264.73C1296.49 1264.73 1298.61 1260.08 1298.61 1260.08V1385.99C1298.61 1385.99 1291.12 1395.64 1284.99 1395.64C1278.85 1395.64 1271.36 1385.99 1271.36 1385.99V1260.08Z" fill="#BF61A7"/>
<path d="M1269.93 1228.44L1300.06 1228.05C1300.06 1228.05 1300.43 1238.85 1299.3 1240.38C1298.17 1241.9 1291.3 1244.22 1284.67 1244.02C1278.75 1243.84 1272.91 1241.36 1271.01 1240.2C1269.12 1239.05 1269.93 1228.44 1269.93 1228.44Z" fill="#AC7E7E"/>
<path d="M1269.69 1221.04H1300.09L1300.09 1233.83C1300.09 1233.83 1290.92 1236.15 1284.81 1236.14C1278.76 1236.13 1269.69 1233.18 1269.69 1233.18V1221.04Z" fill="#8B5454"/>
<ellipse cx="1284.89" cy="1220.69" rx="15.2021" ry="4.82204" fill="#C57878"/>
<path d="M1386 1233.16C1386 1233.16 1386.48 1226.7 1403.16 1226.7C1419.84 1226.7 1421.44 1233.16 1421.44 1233.16V1386.95C1421.44 1386.95 1416.96 1400.49 1403.72 1400.49C1390.49 1400.49 1386 1386.95 1386 1386.95V1233.16Z" fill="#C7EAE8"/>
<ellipse cx="1403.79" cy="1260.23" rx="13.6218" ry="4.7535" fill="#2DA0AC"/>
<path d="M1390.17 1260.08C1390.17 1260.08 1392.29 1264.73 1403.79 1264.73C1415.3 1264.73 1417.42 1260.08 1417.42 1260.08V1385.99C1417.42 1385.99 1409.93 1395.64 1403.79 1395.64C1397.66 1395.64 1390.17 1385.99 1390.17 1385.99V1260.08Z" fill="#49CFDE"/>
<path d="M1388.73 1228.44L1418.87 1228.05C1418.87 1228.05 1419.24 1238.85 1418.11 1240.38C1416.98 1241.9 1410.11 1244.22 1403.48 1244.02C1397.56 1243.84 1391.72 1241.36 1389.82 1240.2C1387.93 1239.05 1388.73 1228.44 1388.73 1228.44Z" fill="#AC7E7E"/>
<path d="M1388.5 1221.04H1418.9L1418.9 1233.83C1418.9 1233.83 1409.73 1236.15 1403.62 1236.14C1397.57 1236.13 1388.5 1233.18 1388.5 1233.18V1221.04Z" fill="#8B5454"/>
<ellipse cx="1403.7" cy="1220.69" rx="15.2021" ry="4.82204" fill="#C57878"/>
<rect x="1065.18" y="1304.41" width="439.468" height="125.726" stroke="#5C3F35" stroke-width="10.3375"/>
<path d="M358.461 1405.03H540.72L384.281 1460.78H202.021L358.461 1405.03Z" fill="#EADFBC"/>
<line x1="357.154" y1="1418.3" x2="468.099" y2="1418.3" stroke="black" stroke-linecap="round"/>
<line x1="326.591" y1="1427.09" x2="437.536" y2="1427.09" stroke="black" stroke-linecap="round"/>
<line x1="296.954" y1="1435.95" x2="407.899" y2="1435.95" stroke="black" stroke-linecap="round"/>
<line x1="273.827" y1="1445.05" x2="384.772" y2="1445.05" stroke="black" stroke-linecap="round"/>
<line x1="288.766" y1="1440.91" x2="399.71" y2="1440.91" stroke="black" stroke-linecap="round"/>
<line x1="315.898" y1="1431.19" x2="426.843" y2="1431.19" stroke="black" stroke-linecap="round"/>
<line x1="341.456" y1="1422.55" x2="452.4" y2="1422.55" stroke="black" stroke-linecap="round"/>
</g>
<defs>
<filter id="filter0_i_12_453" x="-103.266" y="1115.88" width="392.706" height="294.013" filterUnits="userSpaceOnUse" color-interpolation-filters="sRGB">
<feFlood flood-opacity="0" result="BackgroundImageFix"/>
<feBlend mode="normal" in="SourceGraphic" in2="BackgroundImageFix" result="shape"/>
<feColorMatrix in="SourceAlpha" type="matrix" values="0 0 0 0 0 0 0 0 0 0 0 0 0 0 0 0 0 0 127 0" result="hardAlpha"/>
<feOffset dx="125.995" dy="3.45192"/>
<feComposite in2="hardAlpha" operator="arithmetic" k2="-1" k3="1"/>
<feColorMatrix type="matrix" values="0 0 0 0 0.0235294 0 0 0 0 0.0235294 0 0 0 0 0.0235294 0 0 0 1 0"/>
<feBlend mode="normal" in2="shape" result="effect1_innerShadow_12_453"/>
</filter>
<filter id="filter1_i_12_453" x="-52.4023" y="1013.21" width="95.3945" height="178.99" filterUnits="userSpaceOnUse" color-interpolation-filters="sRGB">
<feFlood flood-opacity="0" result="BackgroundImageFix"/>
<feBlend mode="normal" in="SourceGraphic" in2="BackgroundImageFix" result="shape"/>
<feColorMatrix in="SourceAlpha" type="matrix" values="0 0 0 0 0 0 0 0 0 0 0 0 0 0 0 0 0 0 127 0" result="hardAlpha"/>
<feOffset dx="8" dy="-22"/>
<feComposite in2="hardAlpha" operator="arithmetic" k2="-1" k3="1"/>
<feColorMatrix type="matrix" values="0 0 0 0 0 0 0 0 0 0 0 0 0 0 0 0 0 0 0.25 0"/>
<feBlend mode="normal" in2="shape" result="effect1_innerShadow_12_453"/>
</filter>
<linearGradient id="paint0_linear_12_453" x1="720" y1="0" x2="720" y2="2071" gradientUnits="userSpaceOnUse">
<stop stop-color="#3D164B"/>
<stop offset="1" stop-color="#58214A"/>
</linearGradient>
<clipPath id="clip0_12_453">
<rect width="1440" height="1468" fill="white"/>
</clipPath>
</defs>
</svg>
