<svg width="1440" height="1024" viewBox="0 0 1440 1024" fill="none" xmlns="http://www.w3.org/2000/svg">
<g clip-path="url(#clip0_96_122)">
<rect width="1440" height="1024" fill="url(#paint0_linear_96_122)"/>
<g opacity="0.21">
<path d="M482.949 -180.059C482.949 -178.005 481.283 -176.339 479.228 -176.339C477.173 -176.339 475.506 -178.005 475.506 -180.059C475.506 -182.114 477.173 -183.78 479.228 -183.78C481.283 -183.78 482.949 -182.114 482.949 -180.059Z" fill="white"/>
<path d="M375.405 -161.424C375.405 -159.37 373.739 -157.704 371.684 -157.704C369.629 -157.704 367.962 -159.37 367.962 -161.424C367.962 -163.479 369.629 -165.145 371.684 -165.145C373.739 -165.145 375.405 -163.479 375.405 -161.424Z" fill="white"/>
<path d="M42.4438 -183.78C42.4438 -181.725 40.7777 -180.06 38.7224 -180.06C36.6671 -180.06 35.0009 -181.725 35.0009 -183.78C35.0009 -185.834 36.6671 -187.5 38.7224 -187.5C40.7777 -187.5 42.4438 -185.834 42.4438 -183.78Z" fill="white"/>
<path d="M700.238 -168.865C700.238 -166.81 698.571 -165.144 696.516 -165.144C694.461 -165.144 692.795 -166.81 692.795 -168.865C692.795 -170.919 694.461 -172.585 696.516 -172.585C698.571 -172.585 700.238 -170.919 700.238 -168.865Z" fill="white"/>
<path d="M-168.225 -141.596C-168.225 -139.542 -169.892 -137.876 -171.947 -137.876C-174.002 -137.876 -175.668 -139.542 -175.668 -141.596C-175.668 -143.651 -174.002 -145.317 -171.947 -145.317C-169.892 -145.317 -168.225 -143.651 -168.225 -141.596Z" fill="white"/>
<path d="M123.511 -117.359C123.511 -115.304 121.845 -113.638 119.79 -113.638C117.734 -113.638 116.068 -115.304 116.068 -117.359C116.068 -119.413 117.734 -121.079 119.79 -121.079C121.845 -121.079 123.511 -119.413 123.511 -117.359Z" fill="white"/>
<path d="M408.494 -9.16731C408.494 -7.11271 406.828 -5.44712 404.773 -5.44712C402.718 -5.44712 401.051 -7.11271 401.051 -9.16731C401.051 -11.2219 402.718 -12.8875 404.773 -12.8875C406.828 -12.8875 408.494 -11.2219 408.494 -9.16731Z" fill="white"/>
<path d="M237.333 -68.4301C237.333 -66.3755 235.667 -64.7099 233.612 -64.7099C231.556 -64.7099 229.89 -66.3755 229.89 -68.4301C229.89 -70.4847 231.556 -72.1503 233.612 -72.1503C235.667 -72.1503 237.333 -70.4847 237.333 -68.4301Z" fill="white"/>
<path d="M298.805 -16.6077C298.805 -14.5531 297.139 -12.8875 295.084 -12.8875C293.028 -12.8875 291.362 -14.5531 291.362 -16.6077C291.362 -18.6623 293.028 -20.3279 295.084 -20.3279C297.139 -20.3279 298.805 -18.6623 298.805 -16.6077Z" fill="white"/>
<path d="M770.5 -49.1447C770.5 -47.0901 768.834 -45.4245 766.779 -45.4245C764.723 -45.4245 763.057 -47.0901 763.057 -49.1447C763.057 -51.1993 764.723 -52.8649 766.779 -52.8649C768.834 -52.8649 770.5 -51.1993 770.5 -49.1447Z" fill="white"/>
<path d="M42.4438 -44.1281C42.4438 -42.0735 40.7777 -40.4079 38.7224 -40.4079C36.6671 -40.4079 35.0009 -42.0735 35.0009 -44.1281C35.0009 -46.1827 36.6671 -47.8483 38.7224 -47.8483C40.7777 -47.8483 42.4438 -46.1827 42.4438 -44.1281Z" fill="white"/>
<path d="M-168.225 12.7846C-168.225 14.8392 -169.892 16.5048 -171.947 16.5048C-174.002 16.5048 -175.668 14.8392 -175.668 12.7846C-175.668 10.73 -174.002 9.06444 -171.947 9.06444C-169.892 9.06444 -168.225 10.73 -168.225 12.7846Z" fill="white"/>
<path d="M393.992 -105.945C393.992 -104.875 393.124 -104.008 392.054 -104.008C390.984 -104.008 390.117 -104.875 390.117 -105.945C390.117 -107.015 390.984 -107.882 392.054 -107.882C393.124 -107.882 393.992 -107.015 393.992 -105.945Z" fill="white"/>
<path d="M559.464 -183.78C559.464 -182.71 558.597 -181.843 557.527 -181.843C556.457 -181.843 555.589 -182.71 555.589 -183.78C555.589 -184.85 556.457 -185.717 557.527 -185.717C558.597 -185.717 559.464 -184.85 559.464 -183.78Z" fill="white"/>
<path d="M226.67 -150.354C226.67 -149.284 225.803 -148.417 224.733 -148.417C223.663 -148.417 222.795 -149.284 222.795 -150.354C222.795 -151.424 223.663 -152.291 224.733 -152.291C225.803 -152.291 226.67 -151.424 226.67 -150.354Z" fill="white"/>
<path d="M301.686 -118.178C301.686 -117.108 300.818 -116.241 299.748 -116.241C298.678 -116.241 297.81 -117.108 297.81 -118.178C297.81 -119.247 298.678 -120.115 299.748 -120.115C300.818 -120.115 301.686 -119.247 301.686 -118.178Z" fill="white"/>
<path d="M429.903 -174.402C429.903 -173.333 429.036 -172.466 427.966 -172.466C426.896 -172.466 426.028 -173.333 426.028 -174.402C426.028 -175.472 426.896 -176.339 427.966 -176.339C429.036 -176.339 429.903 -175.472 429.903 -174.402Z" fill="white"/>
<path d="M454.963 -60.6513C454.963 -59.5815 454.096 -58.7143 453.026 -58.7143C451.956 -58.7143 451.088 -59.5815 451.088 -60.6513C451.088 -61.721 451.956 -62.5882 453.026 -62.5882C454.096 -62.5882 454.963 -61.721 454.963 -60.6513Z" fill="white"/>
<path d="M118.006 -174.402C118.006 -173.333 117.138 -172.466 116.068 -172.466C114.998 -172.466 114.131 -173.333 114.131 -174.402C114.131 -175.472 114.998 -176.339 116.068 -176.339C117.138 -176.339 118.006 -175.472 118.006 -174.402Z" fill="white"/>
<path d="M15.4424 -120.115C15.4424 -119.045 14.5749 -118.178 13.5048 -118.178C12.4347 -118.178 11.5672 -119.045 11.5672 -120.115C11.5672 -121.185 12.4347 -122.052 13.5048 -122.052C14.5749 -122.052 15.4424 -121.185 15.4424 -120.115Z" fill="white"/>
<path d="M145.114 -74.087C145.114 -73.0173 144.246 -72.1501 143.176 -72.1501C142.106 -72.1501 141.239 -73.0173 141.239 -74.087C141.239 -75.1568 142.106 -76.0239 143.176 -76.0239C144.246 -76.0239 145.114 -75.1568 145.114 -74.087Z" fill="white"/>
<path d="M-44.3708 -174.402C-44.3708 -173.333 -45.2383 -172.466 -46.3084 -172.466C-47.3784 -172.466 -48.2459 -173.333 -48.2459 -174.402C-48.2459 -175.472 -47.3784 -176.339 -46.3084 -176.339C-45.2383 -176.339 -44.3708 -175.472 -44.3708 -174.402Z" fill="white"/>
<path d="M737.568 -128.051C737.568 -126.982 736.7 -126.115 735.63 -126.115C734.56 -126.115 733.693 -126.982 733.693 -128.051C733.693 -129.121 734.56 -129.988 735.63 -129.988C736.7 -129.988 737.568 -129.121 737.568 -128.051Z" fill="white"/>
<path d="M510.073 -12.8891C510.073 -11.8194 509.205 -10.9522 508.135 -10.9522C507.065 -10.9522 506.198 -11.8194 506.198 -12.8891C506.198 -13.9588 507.065 -14.826 508.135 -14.826C509.205 -14.826 510.073 -13.9588 510.073 -12.8891Z" fill="white"/>
<path d="M552.388 36.0494C552.388 38.104 554.054 39.7696 556.109 39.7696C558.165 39.7696 559.831 38.104 559.831 36.0494C559.831 33.9948 558.165 32.3293 556.109 32.3293C554.054 32.3293 552.388 33.9948 552.388 36.0494Z" fill="white" fill-opacity="0.79"/>
<path d="M-105.406 50.9647C-105.406 53.0193 -103.74 54.6849 -101.684 54.6849C-99.6291 54.6849 -97.963 53.0193 -97.963 50.9647C-97.963 48.9101 -99.6291 47.2445 -101.684 47.2445C-103.74 47.2445 -105.406 48.9101 -105.406 50.9647Z" fill="white" fill-opacity="0.79"/>
<path d="M763.057 78.233C763.057 80.2876 764.723 81.9532 766.779 81.9532C768.834 81.9532 770.5 80.2876 770.5 78.233C770.5 76.1784 768.834 74.5128 766.779 74.5128C764.723 74.5128 763.057 76.1784 763.057 78.233Z" fill="white" fill-opacity="0.79"/>
<path d="M471.321 102.471C471.321 104.525 472.987 106.191 475.042 106.191C477.097 106.191 478.764 104.525 478.764 102.471C478.764 100.416 477.097 98.7505 475.042 98.7505C472.987 98.7505 471.321 100.416 471.321 102.471Z" fill="white" fill-opacity="0.79"/>
<path d="M255.745 186.051C255.745 188.106 257.411 189.771 259.466 189.771C261.522 189.771 263.188 188.106 263.188 186.051C263.188 183.997 261.522 182.331 259.466 182.331C257.411 182.331 255.745 183.997 255.745 186.051Z" fill="white" fill-opacity="0.79"/>
<path d="M357.498 151.399C357.498 153.454 359.165 155.119 361.22 155.119C363.275 155.119 364.941 153.454 364.941 151.399C364.941 149.345 363.275 147.679 361.22 147.679C359.165 147.679 357.498 149.345 357.498 151.399Z" fill="white" fill-opacity="0.79"/>
<path d="M-175.668 170.685C-175.668 172.739 -174.002 174.405 -171.947 174.405C-169.892 174.405 -168.225 172.739 -168.225 170.685C-168.225 168.63 -169.892 166.964 -171.947 166.964C-174.002 166.964 -175.668 168.63 -175.668 170.685Z" fill="white" fill-opacity="0.79"/>
<path d="M552.388 175.701C552.388 177.756 554.054 179.421 556.109 179.421C558.165 179.421 559.831 177.756 559.831 175.701C559.831 173.647 558.165 171.981 556.109 171.981C554.054 171.981 552.388 173.647 552.388 175.701Z" fill="white" fill-opacity="0.79"/>
<path d="M763.057 232.614C763.057 234.669 764.723 236.334 766.779 236.334C768.834 236.334 770.5 234.669 770.5 232.614C770.5 230.559 768.834 228.894 766.779 228.894C764.723 228.894 763.057 230.559 763.057 232.614Z" fill="white" fill-opacity="0.79"/>
<path d="M200.84 113.884C200.84 114.954 201.707 115.821 202.778 115.821C203.848 115.821 204.715 114.954 204.715 113.884C204.715 112.815 203.848 111.947 202.778 111.947C201.707 111.947 200.84 112.815 200.84 113.884Z" fill="white" fill-opacity="0.79"/>
<path d="M35.3674 36.0494C35.3674 37.1192 36.2349 37.9864 37.305 37.9864C38.3751 37.9864 39.2426 37.1192 39.2426 36.0494C39.2426 34.9797 38.3751 34.1125 37.305 34.1125C36.2349 34.1125 35.3674 34.9797 35.3674 36.0494Z" fill="white" fill-opacity="0.79"/>
<path d="M368.161 69.4752C368.161 70.5449 369.029 71.4121 370.099 71.4121C371.169 71.4121 372.037 70.5449 372.037 69.4752C372.037 68.4055 371.169 67.5383 370.099 67.5383C369.029 67.5383 368.161 68.4055 368.161 69.4752Z" fill="white" fill-opacity="0.79"/>
<path d="M293.146 101.652C293.146 102.721 294.014 103.589 295.084 103.589C296.154 103.589 297.021 102.721 297.021 101.652C297.021 100.582 296.154 99.7148 295.084 99.7148C294.014 99.7148 293.146 100.582 293.146 101.652Z" fill="white" fill-opacity="0.79"/>
<path d="M164.928 45.4268C164.928 46.4966 165.796 47.3638 166.866 47.3638C167.936 47.3638 168.803 46.4966 168.803 45.4268C168.803 44.3571 167.936 43.4899 166.866 43.4899C165.796 43.4899 164.928 44.3571 164.928 45.4268Z" fill="white" fill-opacity="0.79"/>
<path d="M139.868 159.178C139.868 160.248 140.736 161.115 141.806 161.115C142.876 161.115 143.744 160.248 143.744 159.178C143.744 158.108 142.876 157.241 141.806 157.241C140.736 157.241 139.868 158.108 139.868 159.178Z" fill="white" fill-opacity="0.79"/>
<path d="M476.826 45.4268C476.826 46.4966 477.693 47.3638 478.764 47.3638C479.834 47.3638 480.701 46.4966 480.701 45.4268C480.701 44.3571 479.834 43.4899 478.764 43.4899C477.693 43.4899 476.826 44.3571 476.826 45.4268Z" fill="white" fill-opacity="0.79"/>
<path d="M579.389 99.7145C579.389 100.784 580.257 101.651 581.327 101.651C582.397 101.651 583.265 100.784 583.265 99.7145C583.265 98.6448 582.397 97.7776 581.327 97.7776C580.257 97.7776 579.389 98.6448 579.389 99.7145Z" fill="white" fill-opacity="0.79"/>
<path d="M449.718 145.742C449.718 146.812 450.585 147.679 451.656 147.679C452.726 147.679 453.593 146.812 453.593 145.742C453.593 144.673 452.726 143.805 451.656 143.805C450.585 143.805 449.718 144.673 449.718 145.742Z" fill="white" fill-opacity="0.79"/>
<path d="M674.858 121.469C674.858 122.539 675.726 123.406 676.796 123.406C677.866 123.406 678.733 122.539 678.733 121.469C678.733 120.399 677.866 119.532 676.796 119.532C675.726 119.532 674.858 120.399 674.858 121.469Z" fill="white" fill-opacity="0.79"/>
<path d="M-142.736 91.7778C-142.736 92.8475 -141.869 93.7147 -140.799 93.7147C-139.729 93.7147 -138.861 92.8475 -138.861 91.7778C-138.861 90.7081 -139.729 89.8409 -140.799 89.8409C-141.869 89.8409 -142.736 90.7081 -142.736 91.7778Z" fill="white" fill-opacity="0.79"/>
<path d="M88.4237 101.652C88.4237 102.721 89.2912 103.589 90.3613 103.589C91.4314 103.589 92.2989 102.721 92.2989 101.652C92.2989 100.582 91.4314 99.7148 90.3613 99.7148C89.2912 99.7148 88.4237 100.582 88.4237 101.652Z" fill="white" fill-opacity="0.79"/>
<path d="M41.0264 170.685C41.0264 172.739 39.3603 174.405 37.305 174.405C35.2497 174.405 33.5835 172.739 33.5835 170.685C33.5835 168.63 35.2497 166.964 37.305 166.964C39.3603 166.964 41.0264 168.63 41.0264 170.685Z" fill="white" fill-opacity="0.79"/>
<path d="M678.406 236.738C678.406 238.792 676.74 240.458 674.684 240.458C672.629 240.458 670.963 238.792 670.963 236.738C670.963 234.683 672.629 233.018 674.684 233.018C676.74 233.018 678.406 234.683 678.406 236.738Z" fill="white" fill-opacity="0.79"/>
<path d="M-190.057 264.006C-190.057 266.061 -191.723 267.726 -193.779 267.726C-195.834 267.726 -197.5 266.061 -197.5 264.006C-197.5 261.952 -195.834 260.286 -193.779 260.286C-191.723 260.286 -190.057 261.952 -190.057 264.006Z" fill="white" fill-opacity="0.79"/>
<path d="M101.679 288.244C101.679 290.299 100.013 291.964 97.9579 291.964C95.9026 291.964 94.2365 290.299 94.2365 288.244C94.2365 286.189 95.9026 284.524 97.9579 284.524C100.013 284.524 101.679 286.189 101.679 288.244Z" fill="white" fill-opacity="0.79"/>
<path d="M386.663 396.435C386.663 398.49 384.996 400.155 382.941 400.155C380.886 400.155 379.22 398.49 379.22 396.435C379.22 394.381 380.886 392.715 382.941 392.715C384.996 392.715 386.663 394.381 386.663 396.435Z" fill="white" fill-opacity="0.79"/>
<path d="M215.502 337.172C215.502 339.227 213.835 340.893 211.78 340.893C209.725 340.893 208.059 339.227 208.059 337.172C208.059 335.118 209.725 333.452 211.78 333.452C213.835 333.452 215.502 335.118 215.502 337.172Z" fill="white" fill-opacity="0.79"/>
<path d="M748.668 356.458C748.668 358.512 747.002 360.178 744.947 360.178C742.892 360.178 741.225 358.512 741.225 356.458C741.225 354.403 742.892 352.738 744.947 352.738C747.002 352.738 748.668 354.403 748.668 356.458Z" fill="white" fill-opacity="0.79"/>
<path d="M20.6121 361.474C20.6121 363.529 18.9459 365.195 16.8906 365.195C14.8353 365.195 13.1692 363.529 13.1692 361.474C13.1692 359.42 14.8353 357.754 16.8906 357.754C18.9459 357.754 20.6121 359.42 20.6121 361.474Z" fill="white" fill-opacity="0.79"/>
<path d="M-190.057 418.387C-190.057 420.442 -191.723 422.107 -193.779 422.107C-195.834 422.107 -197.5 420.442 -197.5 418.387C-197.5 416.332 -195.834 414.667 -193.779 414.667C-191.723 414.667 -190.057 416.332 -190.057 418.387Z" fill="white" fill-opacity="0.79"/>
<path d="M372.16 299.657C372.16 300.727 371.293 301.594 370.223 301.594C369.152 301.594 368.285 300.727 368.285 299.657C368.285 298.588 369.152 297.721 370.223 297.721C371.293 297.721 372.16 298.588 372.16 299.657Z" fill="white" fill-opacity="0.79"/>
<path d="M537.633 221.823C537.633 222.892 536.765 223.76 535.695 223.76C534.625 223.76 533.757 222.892 533.757 221.823C533.757 220.753 534.625 219.886 535.695 219.886C536.765 219.886 537.633 220.753 537.633 221.823Z" fill="white" fill-opacity="0.79"/>
<path d="M204.839 255.248C204.839 256.318 203.971 257.185 202.901 257.185C201.831 257.185 200.963 256.318 200.963 255.248C200.963 254.179 201.831 253.311 202.901 253.311C203.971 253.311 204.839 254.179 204.839 255.248Z" fill="white" fill-opacity="0.79"/>
<path d="M279.854 287.425C279.854 288.495 278.986 289.362 277.916 289.362C276.846 289.362 275.979 288.495 275.979 287.425C275.979 286.355 276.846 285.488 277.916 285.488C278.986 285.488 279.854 286.355 279.854 287.425Z" fill="white" fill-opacity="0.79"/>
<path d="M408.072 231.2C408.072 232.27 407.204 233.137 406.134 233.137C405.064 233.137 404.197 232.27 404.197 231.2C404.197 230.13 405.064 229.263 406.134 229.263C407.204 229.263 408.072 230.13 408.072 231.2Z" fill="white" fill-opacity="0.79"/>
<path d="M433.132 344.951C433.132 346.021 432.264 346.888 431.194 346.888C430.124 346.888 429.256 346.021 429.256 344.951C429.256 343.881 430.124 343.014 431.194 343.014C432.264 343.014 433.132 343.881 433.132 344.951Z" fill="white" fill-opacity="0.79"/>
<path d="M96.174 231.2C96.174 232.27 95.3066 233.137 94.2365 233.137C93.1664 233.137 92.2989 232.27 92.2989 231.2C92.2989 230.13 93.1664 229.263 94.2365 229.263C95.3066 229.263 96.174 230.13 96.174 231.2Z" fill="white" fill-opacity="0.79"/>
<path d="M-6.38939 285.488C-6.38939 286.557 -7.25687 287.425 -8.32697 287.425C-9.39706 287.425 -10.2645 286.557 -10.2645 285.488C-10.2645 284.418 -9.39706 283.551 -8.32697 283.551C-7.25687 283.551 -6.38939 284.418 -6.38939 285.488Z" fill="white" fill-opacity="0.79"/>
<path d="M123.282 331.515C123.282 332.585 122.415 333.452 121.344 333.452C120.274 333.452 119.407 332.585 119.407 331.515C119.407 330.446 120.274 329.579 121.344 329.579C122.415 329.579 123.282 330.446 123.282 331.515Z" fill="white" fill-opacity="0.79"/>
<path d="M-66.2025 231.2C-66.2025 232.27 -67.07 233.137 -68.1401 233.137C-69.2102 233.137 -70.0777 232.27 -70.0777 231.2C-70.0777 230.13 -69.2102 229.263 -68.1401 229.263C-67.07 229.263 -66.2025 230.13 -66.2025 231.2Z" fill="white" fill-opacity="0.79"/>
<path d="M715.736 277.551C715.736 278.621 714.869 279.488 713.799 279.488C712.729 279.488 711.861 278.621 711.861 277.551C711.861 276.481 712.729 275.614 713.799 275.614C714.869 275.614 715.736 276.481 715.736 277.551Z" fill="white" fill-opacity="0.79"/>
<path d="M488.241 392.713C488.241 393.783 487.374 394.65 486.304 394.65C485.233 394.65 484.366 393.783 484.366 392.713C484.366 391.644 485.233 390.776 486.304 390.776C487.374 390.776 488.241 391.644 488.241 392.713Z" fill="white" fill-opacity="0.79"/>
<path d="M552.388 845.78C552.388 843.725 554.054 842.06 556.109 842.06C558.165 842.06 559.831 843.725 559.831 845.78C559.831 847.834 558.165 849.5 556.109 849.5C554.054 849.5 552.388 847.834 552.388 845.78Z" fill="white"/>
<path d="M-105.406 830.865C-105.406 828.81 -103.74 827.144 -101.684 827.144C-99.6291 827.144 -97.963 828.81 -97.963 830.865C-97.963 832.919 -99.6291 834.585 -101.684 834.585C-103.74 834.585 -105.406 832.919 -105.406 830.865Z" fill="white"/>
<path d="M763.057 803.596C763.057 801.542 764.723 799.876 766.779 799.876C768.834 799.876 770.5 801.542 770.5 803.596C770.5 805.651 768.834 807.316 766.779 807.316C764.723 807.316 763.057 805.651 763.057 803.596Z" fill="white"/>
<path d="M471.321 779.358C471.321 777.304 472.987 775.638 475.042 775.638C477.097 775.638 478.764 777.304 478.764 779.358C478.764 781.413 477.097 783.079 475.042 783.079C472.987 783.079 471.321 781.413 471.321 779.358Z" fill="white"/>
<path d="M255.745 695.778C255.745 693.723 257.411 692.058 259.466 692.058C261.522 692.058 263.188 693.723 263.188 695.778C263.188 697.833 261.522 699.498 259.466 699.498C257.411 699.498 255.745 697.833 255.745 695.778Z" fill="white"/>
<path d="M357.498 730.43C357.498 728.375 359.165 726.71 361.22 726.71C363.275 726.71 364.941 728.375 364.941 730.43C364.941 732.485 363.275 734.15 361.22 734.15C359.165 734.15 357.498 732.485 357.498 730.43Z" fill="white"/>
<path d="M-175.668 711.145C-175.668 709.09 -174.002 707.424 -171.947 707.424C-169.892 707.424 -168.225 709.09 -168.225 711.145C-168.225 713.199 -169.892 714.865 -171.947 714.865C-174.002 714.865 -175.668 713.199 -175.668 711.145Z" fill="white"/>
<path d="M552.388 706.128C552.388 704.073 554.054 702.408 556.109 702.408C558.165 702.408 559.831 704.073 559.831 706.128C559.831 708.183 558.165 709.848 556.109 709.848C554.054 709.848 552.388 708.183 552.388 706.128Z" fill="white"/>
<path d="M763.057 649.215C763.057 647.161 764.723 645.495 766.779 645.495C768.834 645.495 770.5 647.161 770.5 649.215C770.5 651.27 768.834 652.935 766.779 652.935C764.723 652.935 763.057 651.27 763.057 649.215Z" fill="white"/>
<path d="M200.84 767.945C200.84 766.875 201.707 766.008 202.778 766.008C203.848 766.008 204.715 766.875 204.715 767.945C204.715 769.015 203.848 769.882 202.778 769.882C201.707 769.882 200.84 769.015 200.84 767.945Z" fill="white"/>
<path d="M35.3674 845.78C35.3674 844.71 36.2349 843.843 37.305 843.843C38.3751 843.843 39.2426 844.71 39.2426 845.78C39.2426 846.849 38.3751 847.717 37.305 847.717C36.2349 847.717 35.3674 846.849 35.3674 845.78Z" fill="white"/>
<path d="M368.161 812.354C368.161 811.284 369.029 810.417 370.099 810.417C371.169 810.417 372.037 811.284 372.037 812.354C372.037 813.424 371.169 814.291 370.099 814.291C369.029 814.291 368.161 813.424 368.161 812.354Z" fill="white"/>
<path d="M293.146 780.178C293.146 779.108 294.014 778.241 295.084 778.241C296.154 778.241 297.021 779.108 297.021 780.178C297.021 781.247 296.154 782.114 295.084 782.114C294.014 782.114 293.146 781.247 293.146 780.178Z" fill="white"/>
<path d="M164.928 836.402C164.928 835.333 165.796 834.465 166.866 834.465C167.936 834.465 168.804 835.333 168.804 836.402C168.804 837.472 167.936 838.339 166.866 838.339C165.796 838.339 164.928 837.472 164.928 836.402Z" fill="white"/>
<path d="M139.868 722.651C139.868 721.581 140.736 720.714 141.806 720.714C142.876 720.714 143.744 721.581 143.744 722.651C143.744 723.721 142.876 724.588 141.806 724.588C140.736 724.588 139.868 723.721 139.868 722.651Z" fill="white"/>
<path d="M476.826 836.402C476.826 835.333 477.693 834.465 478.764 834.465C479.834 834.465 480.701 835.333 480.701 836.402C480.701 837.472 479.834 838.339 478.764 838.339C477.693 838.339 476.826 837.472 476.826 836.402Z" fill="white"/>
<path d="M579.389 782.115C579.389 781.045 580.257 780.178 581.327 780.178C582.397 780.178 583.265 781.045 583.265 782.115C583.265 783.184 582.397 784.052 581.327 784.052C580.257 784.052 579.389 783.184 579.389 782.115Z" fill="white"/>
<path d="M449.718 736.087C449.718 735.017 450.585 734.15 451.656 734.15C452.726 734.15 453.593 735.017 453.593 736.087C453.593 737.157 452.726 738.024 451.656 738.024C450.585 738.024 449.718 737.157 449.718 736.087Z" fill="white"/>
<path d="M674.858 760.36C674.858 759.291 675.726 758.423 676.796 758.423C677.866 758.423 678.733 759.291 678.733 760.36C678.733 761.43 677.866 762.297 676.796 762.297C675.726 762.297 674.858 761.43 674.858 760.36Z" fill="white"/>
<path d="M-142.736 790.051C-142.736 788.982 -141.869 788.114 -140.799 788.114C-139.729 788.114 -138.861 788.982 -138.861 790.051C-138.861 791.121 -139.729 791.988 -140.799 791.988C-141.869 791.988 -142.736 791.121 -142.736 790.051Z" fill="white"/>
<path d="M88.4237 780.178C88.4237 779.108 89.2912 778.241 90.3613 778.241C91.4314 778.241 92.2989 779.108 92.2989 780.178C92.2989 781.247 91.4314 782.114 90.3613 782.114C89.2912 782.114 88.4237 781.247 88.4237 780.178Z" fill="white"/>
<path d="M41.0264 711.145C41.0264 709.09 39.3603 707.424 37.305 707.424C35.2497 707.424 33.5835 709.09 33.5835 711.145C33.5835 713.199 35.2497 714.865 37.305 714.865C39.3603 714.865 41.0264 713.199 41.0264 711.145Z" fill="white"/>
<path d="M678.406 645.091C678.406 643.037 676.74 641.371 674.684 641.371C672.629 641.371 670.963 643.037 670.963 645.091C670.963 647.146 672.629 648.812 674.684 648.812C676.74 648.812 678.406 647.146 678.406 645.091Z" fill="white"/>
<path d="M-190.057 617.823C-190.057 615.768 -191.723 614.103 -193.779 614.103C-195.834 614.103 -197.5 615.768 -197.5 617.823C-197.5 619.878 -195.834 621.543 -193.779 621.543C-191.723 621.543 -190.057 619.878 -190.057 617.823Z" fill="white"/>
<path d="M101.679 593.585C101.679 591.531 100.013 589.865 97.9579 589.865C95.9026 589.865 94.2365 591.531 94.2365 593.585C94.2365 595.64 95.9026 597.305 97.9579 597.305C100.013 597.305 101.679 595.64 101.679 593.585Z" fill="white"/>
<path d="M386.663 485.394C386.663 483.339 384.996 481.674 382.941 481.674C380.886 481.674 379.22 483.339 379.22 485.394C379.22 487.449 380.886 489.114 382.941 489.114C384.996 489.114 386.663 487.449 386.663 485.394Z" fill="white"/>
<path d="M215.502 544.657C215.502 542.602 213.835 540.937 211.78 540.937C209.725 540.937 208.059 542.602 208.059 544.657C208.059 546.711 209.725 548.377 211.78 548.377C213.835 548.377 215.502 546.711 215.502 544.657Z" fill="white"/>
<path d="M748.668 525.371C748.668 523.317 747.002 521.651 744.947 521.651C742.892 521.651 741.225 523.317 741.225 525.371C741.225 527.426 742.892 529.092 744.947 529.092C747.002 529.092 748.668 527.426 748.668 525.371Z" fill="white"/>
<path d="M20.6121 520.355C20.6121 518.3 18.9459 516.635 16.8906 516.635C14.8353 516.635 13.1692 518.3 13.1692 520.355C13.1692 522.409 14.8353 524.075 16.8906 524.075C18.9459 524.075 20.6121 522.409 20.6121 520.355Z" fill="white"/>
<path d="M-190.057 463.442C-190.057 461.387 -191.723 459.722 -193.779 459.722C-195.834 459.722 -197.5 461.387 -197.5 463.442C-197.5 465.497 -195.834 467.162 -193.779 467.162C-191.723 467.162 -190.057 465.497 -190.057 463.442Z" fill="white"/>
<path d="M372.16 582.172C372.16 581.102 371.293 580.235 370.223 580.235C369.152 580.235 368.285 581.102 368.285 582.172C368.285 583.241 369.152 584.109 370.223 584.109C371.293 584.109 372.16 583.241 372.16 582.172Z" fill="white"/>
<path d="M537.633 660.007C537.633 658.937 536.765 658.07 535.695 658.07C534.625 658.07 533.757 658.937 533.757 660.007C533.757 661.076 534.625 661.943 535.695 661.943C536.765 661.943 537.633 661.076 537.633 660.007Z" fill="white"/>
<path d="M204.839 626.581C204.839 625.511 203.971 624.644 202.901 624.644C201.831 624.644 200.963 625.511 200.963 626.581C200.963 627.651 201.831 628.518 202.901 628.518C203.971 628.518 204.839 627.651 204.839 626.581Z" fill="white"/>
<path d="M279.854 594.404C279.854 593.335 278.986 592.467 277.916 592.467C276.846 592.467 275.979 593.335 275.979 594.404C275.979 595.474 276.846 596.341 277.916 596.341C278.986 596.341 279.854 595.474 279.854 594.404Z" fill="white"/>
<path d="M408.072 650.629C408.072 649.559 407.204 648.692 406.134 648.692C405.064 648.692 404.197 649.559 404.197 650.629C404.197 651.699 405.064 652.566 406.134 652.566C407.204 652.566 408.072 651.699 408.072 650.629Z" fill="white"/>
<path d="M433.132 536.878C433.132 535.808 432.264 534.941 431.194 534.941C430.124 534.941 429.256 535.808 429.256 536.878C429.256 537.948 430.124 538.815 431.194 538.815C432.264 538.815 433.132 537.948 433.132 536.878Z" fill="white"/>
<path d="M96.174 650.629C96.174 649.559 95.3066 648.692 94.2365 648.692C93.1664 648.692 92.2989 649.559 92.2989 650.629C92.2989 651.699 93.1664 652.566 94.2365 652.566C95.3066 652.566 96.174 651.699 96.174 650.629Z" fill="white"/>
<path d="M-6.38939 596.342C-6.38939 595.272 -7.25687 594.405 -8.32697 594.405C-9.39706 594.405 -10.2645 595.272 -10.2645 596.342C-10.2645 597.411 -9.39706 598.278 -8.32697 598.278C-7.25687 598.278 -6.38939 597.411 -6.38939 596.342Z" fill="white"/>
<path d="M123.282 550.314C123.282 549.244 122.415 548.377 121.344 548.377C120.274 548.377 119.407 549.244 119.407 550.314C119.407 551.383 120.274 552.251 121.344 552.251C122.415 552.251 123.282 551.383 123.282 550.314Z" fill="white"/>
<path d="M-66.2025 650.629C-66.2025 649.559 -67.07 648.692 -68.1401 648.692C-69.2102 648.692 -70.0777 649.559 -70.0777 650.629C-70.0777 651.699 -69.2102 652.566 -68.1401 652.566C-67.07 652.566 -66.2025 651.699 -66.2025 650.629Z" fill="white"/>
<path d="M715.736 604.278C715.736 603.208 714.869 602.341 713.799 602.341C712.729 602.341 711.861 603.208 711.861 604.278C711.861 605.348 712.729 606.215 713.799 606.215C714.869 606.215 715.736 605.348 715.736 604.278Z" fill="white"/>
<path d="M488.241 489.116C488.241 488.046 487.374 487.179 486.304 487.179C485.233 487.179 484.366 488.046 484.366 489.116C484.366 490.186 485.233 491.053 486.304 491.053C487.374 491.053 488.241 490.186 488.241 489.116Z" fill="white"/>
<path d="M193.399 -12.8014C193.399 -10.7468 191.733 -9.08124 189.678 -9.08124C187.623 -9.08124 185.956 -10.7468 185.956 -12.8014C185.956 -14.856 187.623 -16.5216 189.678 -16.5216C191.733 -16.5216 193.399 -14.856 193.399 -12.8014Z" fill="white"/>
</g>
<g opacity="0.21">
<path d="M700.783 -248.173C702.53 -247.091 703.069 -244.798 701.987 -243.051C700.905 -241.304 698.612 -240.765 696.865 -241.847C695.118 -242.929 694.579 -245.222 695.661 -246.969C696.743 -248.716 699.036 -249.255 700.783 -248.173Z" fill="white"/>
<path d="M660.015 -146.951C661.762 -145.869 662.301 -143.576 661.219 -141.829C660.137 -140.082 657.844 -139.543 656.097 -140.625C654.35 -141.707 653.811 -144 654.893 -145.747C655.975 -147.494 658.268 -148.033 660.015 -146.951Z" fill="white"/>
<path d="M465.733 124.283C467.48 125.365 468.019 127.658 466.938 129.405C465.856 131.152 463.562 131.691 461.815 130.609C460.069 129.527 459.529 127.234 460.611 125.487C461.693 123.74 463.987 123.201 465.733 124.283Z" fill="white"/>
<path d="M824.684 -426.966C826.431 -425.884 826.97 -423.591 825.888 -421.844C824.806 -420.097 822.513 -419.558 820.766 -420.64C819.019 -421.722 818.48 -424.015 819.562 -425.762C820.644 -427.509 822.937 -428.048 824.684 -426.966Z" fill="white"/>
<path d="M390.702 325.558C392.449 326.64 392.988 328.933 391.906 330.68C390.824 332.427 388.531 332.966 386.784 331.884C385.037 330.802 384.498 328.509 385.58 326.762C386.662 325.015 388.955 324.476 390.702 325.558Z" fill="white"/>
<path d="M564.883 90.3548C566.63 91.4368 567.169 93.73 566.087 95.477C565.005 97.2239 562.712 97.763 560.965 96.6811C559.218 95.5991 558.679 93.3059 559.761 91.559C560.843 89.812 563.136 89.2729 564.883 90.3548Z" fill="white"/>
<path d="M806.891 -94.8994C808.638 -93.8175 809.177 -91.5242 808.095 -89.7773C807.013 -88.0304 804.72 -87.4913 802.973 -88.5732C801.226 -89.6551 800.687 -91.9484 801.769 -93.6953C802.85 -95.4422 805.144 -95.9813 806.891 -94.8994Z" fill="white"/>
<path d="M666.402 19.3749C668.148 20.4568 668.688 22.7501 667.606 24.497C666.524 26.2439 664.23 26.783 662.484 25.7011C660.737 24.6192 660.198 22.3259 661.279 20.579C662.361 18.8321 664.655 18.293 666.402 19.3749Z" fill="white"/>
<path d="M742.823 -5.58525C744.57 -4.50333 745.109 -2.21008 744.027 -0.463144C742.945 1.28379 740.652 1.82289 738.905 0.740959C737.158 -0.340968 736.619 -2.63421 737.701 -4.38115C738.783 -6.12808 741.076 -6.66718 742.823 -5.58525Z" fill="white"/>
<path d="M963.463 -423.644C965.21 -422.562 965.749 -420.269 964.667 -418.522C963.585 -416.775 961.292 -416.236 959.545 -417.318C957.798 -418.4 957.259 -420.693 958.341 -422.44C959.423 -424.187 961.716 -424.726 963.463 -423.644Z" fill="white"/>
<path d="M584.473 197.822C586.22 198.903 586.759 201.197 585.677 202.944C584.595 204.691 582.302 205.23 580.555 204.148C578.808 203.066 578.269 200.773 579.351 199.026C580.433 197.279 582.726 196.74 584.473 197.822Z" fill="white"/>
<path d="M521.965 406.853C523.712 407.935 524.251 410.228 523.169 411.975C522.087 413.722 519.794 414.261 518.047 413.179C516.3 412.097 515.761 409.804 516.843 408.057C517.925 406.31 520.218 405.771 521.965 406.853Z" fill="white"/>
<path d="M716.971 -133.535C717.88 -132.971 718.161 -131.777 717.598 -130.868C717.034 -129.958 715.841 -129.678 714.931 -130.241C714.021 -130.804 713.741 -131.998 714.304 -132.908C714.867 -133.817 716.061 -134.098 716.971 -133.535Z" fill="white"/>
<path d="M737.898 -315.168C738.807 -314.604 739.088 -313.41 738.525 -312.501C737.961 -311.591 736.767 -311.311 735.858 -311.874C734.948 -312.437 734.668 -313.631 735.231 -314.541C735.794 -315.45 736.988 -315.731 737.898 -315.168Z" fill="white"/>
<path d="M591.132 -14.7021C592.042 -14.1388 592.323 -12.9448 591.759 -12.0353C591.196 -11.1257 590.002 -10.845 589.092 -11.4083C588.183 -11.9716 587.902 -13.1656 588.466 -14.0752C589.029 -14.9847 590.223 -15.2654 591.132 -14.7021Z" fill="white"/>
<path d="M657.979 -61.5189C658.889 -60.9556 659.169 -59.7616 658.606 -58.8521C658.043 -57.9425 656.849 -57.6618 655.939 -58.2252C655.03 -58.7885 654.749 -59.9824 655.312 -60.892C655.876 -61.8015 657.07 -62.0822 657.979 -61.5189Z" fill="white"/>
<path d="M677.669 -200.107C678.578 -199.544 678.859 -198.35 678.296 -197.44C677.732 -196.531 676.538 -196.25 675.629 -196.813C674.719 -197.377 674.439 -198.571 675.002 -199.48C675.565 -200.39 676.759 -200.67 677.669 -200.107Z" fill="white"/>
<path d="M787.578 -161.507C788.488 -160.944 788.768 -159.75 788.205 -158.84C787.642 -157.931 786.448 -157.65 785.538 -158.214C784.628 -158.777 784.348 -159.971 784.911 -160.88C785.474 -161.79 786.668 -162.071 787.578 -161.507Z" fill="white"/>
<path d="M513.483 64.9956C514.393 65.559 514.673 66.7529 514.11 67.6625C513.547 68.572 512.353 68.8527 511.443 68.2894C510.534 67.7261 510.253 66.5321 510.816 65.6226C511.38 64.713 512.574 64.4323 513.483 64.9956Z" fill="white"/>
<path d="M505.651 180.758C506.561 181.322 506.841 182.516 506.278 183.425C505.715 184.335 504.521 184.615 503.611 184.052C502.702 183.489 502.421 182.295 502.984 181.385C503.548 180.476 504.742 180.195 505.651 180.758Z" fill="white"/>
<path d="M613.047 94.7795C613.956 95.3428 614.237 96.5368 613.673 97.4464C613.11 98.3559 611.916 98.6366 611.007 98.0733C610.097 97.51 609.816 96.316 610.38 95.4064C610.943 94.4969 612.137 94.2162 613.047 94.7795Z" fill="white"/>
<path d="M428.007 203.01C428.916 203.574 429.197 204.768 428.634 205.677C428.07 206.587 426.876 206.867 425.967 206.304C425.057 205.741 424.776 204.547 425.34 203.637C425.903 202.728 427.097 202.447 428.007 203.01Z" fill="white"/>
<path d="M879.036 -437.204C879.946 -436.641 880.227 -435.447 879.663 -434.537C879.1 -433.628 877.906 -433.347 876.996 -433.91C876.087 -434.474 875.806 -435.668 876.37 -436.577C876.933 -437.487 878.127 -437.767 879.036 -437.204Z" fill="white"/>
<path d="M857.198 -183.198C858.108 -182.634 858.388 -181.44 857.825 -180.531C857.262 -179.621 856.068 -179.341 855.158 -179.904C854.249 -180.467 853.968 -181.661 854.531 -182.571C855.095 -183.48 856.289 -183.761 857.198 -183.198Z" fill="white"/>
<path d="M921.083 -193.394C922.83 -192.312 925.124 -192.851 926.205 -194.598C927.287 -196.345 926.748 -198.638 925.001 -199.72C923.254 -200.802 920.961 -200.263 919.879 -198.516C918.797 -196.769 919.336 -194.476 921.083 -193.394Z" fill="white" fill-opacity="0.79"/>
<path d="M587.496 373.563C589.243 374.645 591.537 374.106 592.618 372.359C593.7 370.612 593.161 368.319 591.414 367.237C589.667 366.155 587.374 366.694 586.292 368.441C585.21 370.188 585.749 372.482 587.496 373.563Z" fill="white" fill-opacity="0.79"/>
<path d="M1067.85 -350.242C1069.6 -349.16 1071.89 -349.699 1072.97 -351.446C1074.05 -353.193 1073.51 -355.487 1071.77 -356.569C1070.02 -357.65 1067.73 -357.111 1066.64 -355.364C1065.56 -353.617 1066.1 -351.324 1067.85 -350.242Z" fill="white" fill-opacity="0.79"/>
<path d="M934.884 -89.5127C936.631 -88.4308 938.924 -88.9698 940.006 -90.7168C941.088 -92.4637 940.549 -94.757 938.802 -95.8389C937.055 -96.9208 934.762 -96.3817 933.68 -94.6348C932.598 -92.8879 933.137 -90.5946 934.884 -89.5127Z" fill="white" fill-opacity="0.79"/>
<path d="M892.467 137.732C894.214 138.814 896.507 138.275 897.589 136.528C898.671 134.781 898.132 132.488 896.385 131.406C894.638 130.324 892.345 130.863 891.263 132.61C890.181 134.357 890.72 136.65 892.467 137.732Z" fill="white" fill-opacity="0.79"/>
<path d="M916.568 32.9975C918.315 34.0794 920.608 33.5403 921.69 31.7934C922.772 30.0465 922.233 27.7532 920.486 26.6713C918.739 25.5894 916.446 26.1285 915.364 27.8754C914.282 29.6223 914.821 31.9156 916.568 32.9975Z" fill="white" fill-opacity="0.79"/>
<path d="M652.302 496.327C654.049 497.409 656.342 496.87 657.424 495.123C658.506 493.376 657.967 491.083 656.22 490.001C654.473 488.919 652.18 489.458 651.098 491.205C650.016 492.952 650.555 495.245 652.302 496.327Z" fill="white" fill-opacity="0.79"/>
<path d="M1039.82 -119.855C1041.57 -118.773 1043.86 -119.312 1044.94 -121.059C1046.03 -122.806 1045.49 -125.099 1043.74 -126.181C1041.99 -127.263 1039.7 -126.724 1038.62 -124.977C1037.54 -123.23 1038.08 -120.937 1039.82 -119.855Z" fill="white" fill-opacity="0.79"/>
<path d="M1199.11 -268.947C1200.86 -267.865 1203.15 -268.405 1204.23 -270.151C1205.32 -271.898 1204.78 -274.192 1203.03 -275.274C1201.28 -276.356 1198.99 -275.816 1197.91 -274.07C1196.83 -272.323 1197.36 -270.029 1199.11 -268.947Z" fill="white" fill-opacity="0.79"/>
<path d="M802.205 146.397C803.114 146.961 804.308 146.68 804.871 145.77C805.435 144.861 805.154 143.667 804.245 143.104C803.335 142.54 802.141 142.821 801.578 143.73C801.014 144.64 801.295 145.834 802.205 146.397Z" fill="white" fill-opacity="0.79"/>
<path d="M648.919 246.057C649.829 246.62 651.023 246.339 651.586 245.43C652.149 244.52 651.868 243.326 650.959 242.763C650.049 242.2 648.855 242.48 648.292 243.39C647.729 244.299 648.009 245.493 648.919 246.057Z" fill="white" fill-opacity="0.79"/>
<path d="M852.525 -19.2057C853.435 -18.6424 854.629 -18.9231 855.192 -19.8326C855.755 -20.7422 855.475 -21.9361 854.565 -22.4994C853.656 -23.0627 852.462 -22.7821 851.898 -21.8725C851.335 -20.963 851.616 -19.769 852.525 -19.2057Z" fill="white" fill-opacity="0.79"/>
<path d="M840.395 61.4985C841.304 62.0618 842.498 61.7811 843.061 60.8716C843.625 59.9621 843.344 58.7681 842.435 58.2048C841.525 57.6415 840.331 57.9221 839.768 58.8317C839.204 59.7412 839.485 60.9352 840.395 61.4985Z" fill="white" fill-opacity="0.79"/>
<path d="M725.094 140.872C726.004 141.435 727.198 141.155 727.761 140.245C728.324 139.336 728.044 138.142 727.134 137.578C726.225 137.015 725.031 137.296 724.467 138.205C723.904 139.115 724.185 140.309 725.094 140.872Z" fill="white" fill-opacity="0.79"/>
<path d="M808.62 222.072C809.529 222.635 810.723 222.355 811.287 221.445C811.85 220.536 811.569 219.342 810.66 218.778C809.75 218.215 808.556 218.496 807.993 219.405C807.43 220.315 807.71 221.509 808.62 222.072Z" fill="white" fill-opacity="0.79"/>
<path d="M889.28 -124.231C890.19 -123.667 891.383 -123.948 891.947 -124.857C892.51 -125.767 892.229 -126.961 891.32 -127.524C890.41 -128.088 889.216 -127.807 888.653 -126.897C888.09 -125.988 888.37 -124.794 889.28 -124.231Z" fill="white" fill-opacity="0.79"/>
<path d="M989.429 -182.819C990.338 -182.256 991.532 -182.536 992.095 -183.446C992.659 -184.355 992.378 -185.549 991.468 -186.113C990.559 -186.676 989.365 -186.395 988.802 -185.486C988.238 -184.576 988.519 -183.382 989.429 -182.819Z" fill="white" fill-opacity="0.79"/>
<path d="M960.304 -48.3649C961.213 -47.8016 962.407 -48.0823 962.97 -48.9918C963.534 -49.9014 963.253 -51.0954 962.344 -51.6587C961.434 -52.222 960.24 -51.9413 959.677 -51.0317C959.113 -50.1222 959.394 -48.9282 960.304 -48.3649Z" fill="white" fill-opacity="0.79"/>
<path d="M1058.18 -252.509C1059.09 -251.945 1060.28 -252.226 1060.85 -253.136C1061.41 -254.045 1061.13 -255.239 1060.22 -255.802C1059.31 -256.366 1058.12 -256.085 1057.55 -255.176C1056.99 -254.266 1057.27 -253.072 1058.18 -252.509Z" fill="white" fill-opacity="0.79"/>
<path d="M602.547 426.785C603.456 427.348 604.65 427.067 605.214 426.158C605.777 425.248 605.496 424.054 604.587 423.491C603.677 422.928 602.483 423.208 601.92 424.118C601.357 425.027 601.637 426.221 602.547 426.785Z" fill="white" fill-opacity="0.79"/>
<path d="M732.627 235.506C733.536 236.069 734.73 235.788 735.294 234.879C735.857 233.969 735.576 232.775 734.667 232.212C733.757 231.649 732.563 231.929 732 232.839C731.437 233.749 731.717 234.942 732.627 235.506Z" fill="white" fill-opacity="0.79"/>
<path d="M766.372 312.144C768.119 313.226 768.658 315.519 767.576 317.266C766.494 319.013 764.201 319.552 762.454 318.47C760.707 317.388 760.168 315.095 761.25 313.348C762.332 311.601 764.625 311.062 766.372 312.144Z" fill="white" fill-opacity="0.79"/>
<path d="M1158.06 -194.825C1159.8 -193.743 1160.34 -191.45 1159.26 -189.703C1158.18 -187.956 1155.89 -187.417 1154.14 -188.499C1152.39 -189.581 1151.85 -191.874 1152.93 -193.621C1154.02 -195.368 1156.31 -195.907 1158.06 -194.825Z" fill="white" fill-opacity="0.79"/>
<path d="M724.074 557.699C725.821 558.781 726.36 561.074 725.279 562.821C724.197 564.568 721.903 565.107 720.156 564.025C718.41 562.943 717.87 560.65 718.952 558.903C720.034 557.156 722.328 556.617 724.074 557.699Z" fill="white" fill-opacity="0.79"/>
<path d="M898.255 322.496C900.002 323.578 900.541 325.871 899.46 327.618C898.378 329.365 896.084 329.904 894.337 328.822C892.59 327.74 892.051 325.447 893.133 323.7C894.215 321.953 896.509 321.414 898.255 322.496Z" fill="white" fill-opacity="0.79"/>
<path d="M1140.26 137.242C1142.01 138.324 1142.55 140.617 1141.47 142.364C1140.39 144.111 1138.09 144.65 1136.35 143.568C1134.6 142.486 1134.06 140.193 1135.14 138.446C1136.22 136.699 1138.52 136.16 1140.26 137.242Z" fill="white" fill-opacity="0.79"/>
<path d="M999.774 251.516C1001.52 252.598 1002.06 254.891 1000.98 256.638C999.896 258.385 997.603 258.924 995.856 257.842C994.109 256.76 993.57 254.467 994.652 252.72C995.734 250.973 998.027 250.434 999.774 251.516Z" fill="white" fill-opacity="0.79"/>
<path d="M1296.84 -191.503C1298.58 -190.421 1299.12 -188.128 1298.04 -186.381C1296.96 -184.634 1294.66 -184.095 1292.92 -185.177C1291.17 -186.259 1290.63 -188.552 1291.71 -190.299C1292.8 -192.046 1295.09 -192.585 1296.84 -191.503Z" fill="white" fill-opacity="0.79"/>
<path d="M917.845 429.963C919.592 431.045 920.131 433.338 919.049 435.085C917.968 436.832 915.674 437.371 913.927 436.289C912.18 435.207 911.641 432.914 912.723 431.167C913.805 429.42 916.098 428.881 917.845 429.963Z" fill="white" fill-opacity="0.79"/>
<path d="M855.337 638.994C857.084 640.076 857.623 642.369 856.542 644.116C855.46 645.863 853.166 646.402 851.419 645.32C849.672 644.238 849.133 641.945 850.215 640.198C851.297 638.451 853.59 637.912 855.337 638.994Z" fill="white" fill-opacity="0.79"/>
<path d="M1050.34 98.6064C1051.25 99.1698 1051.53 100.364 1050.97 101.273C1050.41 102.183 1049.21 102.464 1048.3 101.9C1047.39 101.337 1047.11 100.143 1047.68 99.2334C1048.24 98.3238 1049.43 98.0431 1050.34 98.6064Z" fill="white" fill-opacity="0.79"/>
<path d="M1071.27 -83.0266C1072.18 -82.4633 1072.46 -81.2693 1071.9 -80.3598C1071.33 -79.4502 1070.14 -79.1695 1069.23 -79.7328C1068.32 -80.2961 1068.04 -81.4901 1068.6 -82.3997C1069.17 -83.3092 1070.36 -83.5899 1071.27 -83.0266Z" fill="white" fill-opacity="0.79"/>
<path d="M924.505 217.439C925.414 218.002 925.695 219.196 925.132 220.106C924.568 221.015 923.375 221.296 922.465 220.733C921.555 220.169 921.275 218.975 921.838 218.066C922.401 217.156 923.595 216.876 924.505 217.439Z" fill="white" fill-opacity="0.79"/>
<path d="M991.352 170.622C992.261 171.185 992.542 172.379 991.979 173.289C991.415 174.199 990.221 174.479 989.312 173.916C988.402 173.353 988.122 172.159 988.685 171.249C989.248 170.34 990.442 170.059 991.352 170.622Z" fill="white" fill-opacity="0.79"/>
<path d="M1011.04 32.034C1011.95 32.5973 1012.23 33.7913 1011.67 34.7008C1011.11 35.6104 1009.91 35.891 1009 35.3277C1008.09 34.7644 1007.81 33.5704 1008.37 32.6609C1008.94 31.7514 1010.13 31.4707 1011.04 32.034Z" fill="white" fill-opacity="0.79"/>
<path d="M1120.95 70.6338C1121.86 71.1971 1122.14 72.391 1121.58 73.3006C1121.01 74.2101 1119.82 74.4908 1118.91 73.9275C1118 73.3642 1117.72 72.1702 1118.28 71.2607C1118.85 70.3511 1120.04 70.0705 1120.95 70.6338Z" fill="white" fill-opacity="0.79"/>
<path d="M846.856 297.137C847.765 297.7 848.046 298.894 847.483 299.804C846.919 300.713 845.725 300.994 844.816 300.43C843.906 299.867 843.625 298.673 844.189 297.764C844.752 296.854 845.946 296.573 846.856 297.137Z" fill="white" fill-opacity="0.79"/>
<path d="M839.024 412.899C839.933 413.463 840.214 414.657 839.651 415.566C839.087 416.476 837.893 416.756 836.984 416.193C836.074 415.63 835.793 414.436 836.357 413.526C836.92 412.617 838.114 412.336 839.024 412.899Z" fill="white" fill-opacity="0.79"/>
<path d="M946.419 326.921C947.329 327.484 947.609 328.678 947.046 329.587C946.483 330.497 945.289 330.778 944.379 330.214C943.47 329.651 943.189 328.457 943.752 327.548C944.316 326.638 945.51 326.357 946.419 326.921Z" fill="white" fill-opacity="0.79"/>
<path d="M761.379 435.151C762.289 435.715 762.569 436.909 762.006 437.818C761.443 438.728 760.249 439.009 759.339 438.445C758.43 437.882 758.149 436.688 758.712 435.778C759.276 434.869 760.47 434.588 761.379 435.151Z" fill="white" fill-opacity="0.79"/>
<path d="M1212.41 -205.063C1213.32 -204.5 1213.6 -203.306 1213.04 -202.396C1212.47 -201.487 1211.28 -201.206 1210.37 -201.769C1209.46 -202.333 1209.18 -203.527 1209.74 -204.436C1210.31 -205.346 1211.5 -205.626 1212.41 -205.063Z" fill="white" fill-opacity="0.79"/>
<path d="M1190.57 48.9434C1191.48 49.5067 1191.76 50.7007 1191.2 51.6102C1190.63 52.5197 1189.44 52.8004 1188.53 52.2371C1187.62 51.6738 1187.34 50.4798 1187.9 49.5703C1188.47 48.6607 1189.66 48.3801 1190.57 48.9434Z" fill="white" fill-opacity="0.79"/>
<path d="M1609.56 232.999C1607.81 231.917 1607.27 229.624 1608.36 227.877C1609.44 226.13 1611.73 225.591 1613.48 226.673C1615.22 227.755 1615.76 230.048 1614.68 231.795C1613.6 233.542 1611.31 234.081 1609.56 232.999Z" fill="white"/>
<path d="M1250.61 784.248C1248.86 783.166 1248.32 780.873 1249.4 779.126C1250.49 777.379 1252.78 776.84 1254.53 777.922C1256.27 779.004 1256.81 781.297 1255.73 783.044C1254.65 784.791 1252.36 785.33 1250.61 784.248Z" fill="white"/>
<path d="M1684.59 31.7242C1682.84 30.6423 1682.3 28.349 1683.39 26.6021C1684.47 24.8552 1686.76 24.3161 1688.51 25.398C1690.26 26.4799 1690.79 28.7732 1689.71 30.5201C1688.63 32.267 1686.34 32.8061 1684.59 31.7242Z" fill="white"/>
<path d="M1510.41 266.927C1508.66 265.845 1508.12 263.552 1509.21 261.805C1510.29 260.058 1512.58 259.519 1514.33 260.601C1516.07 261.683 1516.61 263.976 1515.53 265.723C1514.45 267.47 1512.16 268.009 1510.41 266.927Z" fill="white"/>
<path d="M1325.86 406.147C1324.12 405.065 1323.58 402.772 1324.66 401.025C1325.74 399.278 1328.04 398.739 1329.78 399.821C1331.53 400.903 1332.07 403.196 1330.99 404.943C1329.9 406.69 1327.61 407.229 1325.86 406.147Z" fill="white"/>
<path d="M1408.89 337.907C1407.14 336.825 1406.61 334.532 1407.69 332.785C1408.77 331.038 1411.06 330.499 1412.81 331.581C1414.56 332.663 1415.1 334.956 1414.01 336.703C1412.93 338.45 1410.64 338.989 1408.89 337.907Z" fill="white"/>
<path d="M1111.83 780.926C1110.08 779.844 1109.54 777.551 1110.63 775.804C1111.71 774.057 1114 773.518 1115.75 774.6C1117.49 775.682 1118.03 777.975 1116.95 779.722C1115.87 781.469 1113.58 782.008 1111.83 780.926Z" fill="white"/>
<path d="M1490.82 159.461C1489.07 158.379 1488.53 156.085 1489.62 154.338C1490.7 152.592 1492.99 152.052 1494.74 153.134C1496.48 154.216 1497.02 156.51 1495.94 158.256C1494.86 160.003 1492.57 160.542 1490.82 159.461Z" fill="white"/>
<path d="M1553.33 -49.5707C1551.58 -50.6526 1551.04 -52.9459 1552.12 -54.6928C1553.21 -56.4398 1555.5 -56.9789 1557.25 -55.8969C1558.99 -54.815 1559.53 -52.5218 1558.45 -50.7748C1557.37 -49.0279 1555.07 -48.4888 1553.33 -49.5707Z" fill="white"/>
<path d="M1358.32 490.817C1357.41 490.253 1357.13 489.059 1357.7 488.15C1358.26 487.24 1359.45 486.96 1360.36 487.523C1361.27 488.086 1361.55 489.28 1360.99 490.19C1360.43 491.099 1359.23 491.38 1358.32 490.817Z" fill="white"/>
<path d="M1337.4 672.45C1336.49 671.886 1336.2 670.692 1336.77 669.783C1337.33 668.873 1338.53 668.593 1339.43 669.156C1340.34 669.719 1340.63 670.913 1340.06 671.823C1339.5 672.732 1338.3 673.013 1337.4 672.45Z" fill="white"/>
<path d="M1484.16 371.984C1483.25 371.421 1482.97 370.227 1483.53 369.317C1484.1 368.408 1485.29 368.127 1486.2 368.691C1487.11 369.254 1487.39 370.448 1486.83 371.357C1486.26 372.267 1485.07 372.548 1484.16 371.984Z" fill="white"/>
<path d="M1417.31 418.801C1416.4 418.238 1416.12 417.044 1416.69 416.134C1417.25 415.225 1418.44 414.944 1419.35 415.507C1420.26 416.071 1420.54 417.265 1419.98 418.174C1419.42 419.084 1418.22 419.364 1417.31 418.801Z" fill="white"/>
<path d="M1397.62 557.389C1396.71 556.826 1396.43 555.632 1397 554.722C1397.56 553.813 1398.75 553.532 1399.66 554.095C1400.57 554.659 1400.85 555.853 1400.29 556.762C1399.73 557.672 1398.53 557.953 1397.62 557.389Z" fill="white"/>
<path d="M1287.71 518.789C1286.81 518.226 1286.52 517.032 1287.09 516.123C1287.65 515.213 1288.85 514.932 1289.75 515.496C1290.66 516.059 1290.95 517.253 1290.38 518.163C1289.82 519.072 1288.62 519.353 1287.71 518.789Z" fill="white"/>
<path d="M1561.81 292.287C1560.9 291.723 1560.62 290.529 1561.18 289.62C1561.75 288.71 1562.94 288.429 1563.85 288.993C1564.76 289.556 1565.04 290.75 1564.48 291.66C1563.91 292.569 1562.72 292.85 1561.81 292.287Z" fill="white"/>
<path d="M1569.64 176.524C1568.73 175.961 1568.45 174.767 1569.01 173.857C1569.58 172.947 1570.77 172.667 1571.68 173.23C1572.59 173.793 1572.87 174.987 1572.31 175.897C1571.75 176.806 1570.55 177.087 1569.64 176.524Z" fill="white"/>
<path d="M1462.25 262.503C1461.34 261.939 1461.06 260.745 1461.62 259.836C1462.18 258.926 1463.38 258.646 1464.29 259.209C1465.2 259.772 1465.48 260.966 1464.91 261.876C1464.35 262.785 1463.16 263.066 1462.25 262.503Z" fill="white"/>
<path d="M1601.4 83.9229C1600.49 83.3596 1600.21 82.1657 1600.77 81.2561C1601.34 80.3466 1602.53 80.0659 1603.44 80.6292C1604.35 81.1925 1604.63 82.3865 1604.07 83.296C1603.5 84.2056 1602.31 84.4863 1601.4 83.9229Z" fill="white"/>
<path d="M1196.26 794.486C1195.35 793.923 1195.07 792.729 1195.63 791.819C1196.19 790.91 1197.39 790.629 1198.3 791.192C1199.21 791.756 1199.49 792.95 1198.92 793.859C1198.36 794.769 1197.17 795.049 1196.26 794.486Z" fill="white"/>
<path d="M1309.55 592.808C1308.64 592.245 1308.36 591.051 1308.92 590.142C1309.48 589.232 1310.68 588.951 1311.59 589.515C1312.5 590.078 1312.78 591.272 1312.21 592.181C1311.65 593.091 1310.46 593.372 1309.55 592.808Z" fill="white"/>
<path d="M1225.9 596.743C1224.15 595.661 1221.86 596.2 1220.78 597.947C1219.7 599.694 1220.24 601.987 1221.98 603.069C1223.73 604.151 1226.02 603.612 1227.1 601.865C1228.19 600.118 1227.65 597.825 1225.9 596.743Z" fill="white"/>
<path d="M1505.26 20.2084C1503.51 19.1265 1501.22 19.6656 1500.14 21.4125C1499.06 23.1594 1499.6 25.4527 1501.34 26.5346C1503.09 27.6165 1505.38 27.0774 1506.46 25.3305C1507.55 23.5836 1507.01 21.2903 1505.26 20.2084Z" fill="white"/>
<path d="M1024.91 744.014C1023.16 742.932 1020.87 743.471 1019.79 745.218C1018.7 746.965 1019.24 749.259 1020.99 750.34C1022.74 751.422 1025.03 750.883 1026.11 749.136C1027.19 747.389 1026.66 745.096 1024.91 744.014Z" fill="white"/>
<path d="M1157.87 483.285C1156.13 482.203 1153.83 482.742 1152.75 484.489C1151.67 486.236 1152.21 488.529 1153.96 489.611C1155.7 490.693 1158 490.154 1159.08 488.407C1160.16 486.66 1159.62 484.367 1157.87 483.285Z" fill="white"/>
<path d="M1215.9 184.086C1214.15 183.004 1211.86 183.543 1210.78 185.29C1209.7 187.037 1210.24 189.33 1211.98 190.412C1213.73 191.494 1216.02 190.955 1217.1 189.208C1218.19 187.461 1217.65 185.168 1215.9 184.086Z" fill="white"/>
<path d="M1176.19 360.774C1174.44 359.692 1172.15 360.232 1171.07 361.979C1169.98 363.725 1170.52 366.019 1172.27 367.101C1174.02 368.183 1176.31 367.643 1177.39 365.897C1178.47 364.15 1177.94 361.856 1176.19 360.774Z" fill="white"/>
<path d="M1440.45 -102.555C1438.71 -103.637 1436.41 -103.098 1435.33 -101.351C1434.25 -99.6042 1434.79 -97.311 1436.54 -96.229C1438.28 -95.1471 1440.58 -95.6862 1441.66 -97.4331C1442.74 -99.1801 1442.2 -101.473 1440.45 -102.555Z" fill="white"/>
<path d="M1052.93 513.627C1051.19 512.545 1048.89 513.084 1047.81 514.831C1046.73 516.578 1047.27 518.871 1049.02 519.953C1050.76 521.035 1053.06 520.496 1054.14 518.749C1055.22 517.002 1054.68 514.709 1052.93 513.627Z" fill="white"/>
<path d="M893.646 662.719C891.899 661.637 889.605 662.177 888.523 663.923C887.442 665.67 887.981 667.964 889.728 669.046C891.475 670.127 893.768 669.588 894.85 667.841C895.932 666.095 895.393 663.801 893.646 662.719Z" fill="white"/>
<path d="M1290.55 247.375C1289.64 246.811 1288.45 247.092 1287.89 248.002C1287.32 248.911 1287.6 250.105 1288.51 250.668C1289.42 251.232 1290.62 250.951 1291.18 250.041C1291.74 249.132 1291.46 247.938 1290.55 247.375Z" fill="white"/>
<path d="M1443.84 147.715C1442.93 147.152 1441.73 147.433 1441.17 148.342C1440.61 149.252 1440.89 150.446 1441.8 151.009C1442.71 151.572 1443.9 151.292 1444.46 150.382C1445.03 149.472 1444.75 148.278 1443.84 147.715Z" fill="white"/>
<path d="M1240.23 412.978C1239.32 412.414 1238.13 412.695 1237.56 413.605C1237 414.514 1237.28 415.708 1238.19 416.271C1239.1 416.835 1240.3 416.554 1240.86 415.644C1241.42 414.735 1241.14 413.541 1240.23 412.978Z" fill="white"/>
<path d="M1252.36 332.273C1251.45 331.71 1250.26 331.991 1249.7 332.9C1249.13 333.81 1249.41 335.004 1250.32 335.567C1251.23 336.13 1252.43 335.85 1252.99 334.94C1253.55 334.031 1253.27 332.837 1252.36 332.273Z" fill="white"/>
<path d="M1367.66 252.9C1366.75 252.336 1365.56 252.617 1365 253.527C1364.43 254.436 1364.71 255.63 1365.62 256.193C1366.53 256.757 1367.73 256.476 1368.29 255.567C1368.85 254.657 1368.57 253.463 1367.66 252.9Z" fill="white"/>
<path d="M1284.14 171.7C1283.23 171.137 1282.03 171.417 1281.47 172.327C1280.91 173.236 1281.19 174.43 1282.1 174.994C1283.01 175.557 1284.2 175.276 1284.76 174.367C1285.33 173.457 1285.05 172.263 1284.14 171.7Z" fill="white"/>
<path d="M1203.48 518.002C1202.57 517.439 1201.37 517.72 1200.81 518.629C1200.25 519.539 1200.53 520.733 1201.44 521.296C1202.35 521.86 1203.54 521.579 1204.1 520.669C1204.67 519.76 1204.39 518.566 1203.48 518.002Z" fill="white"/>
<path d="M1103.33 576.591C1102.42 576.028 1101.22 576.308 1100.66 577.218C1100.1 578.127 1100.38 579.321 1101.29 579.885C1102.2 580.448 1103.39 580.167 1103.96 579.258C1104.52 578.348 1104.24 577.154 1103.33 576.591Z" fill="white"/>
<path d="M1132.45 442.137C1131.54 441.574 1130.35 441.854 1129.79 442.764C1129.22 443.673 1129.5 444.867 1130.41 445.431C1131.32 445.994 1132.52 445.713 1133.08 444.804C1133.64 443.894 1133.36 442.7 1132.45 442.137Z" fill="white"/>
<path d="M1118 656.017C1117.09 655.454 1115.9 655.735 1115.33 656.644C1114.77 657.554 1115.05 658.748 1115.96 659.311C1116.87 659.874 1118.06 659.594 1118.63 658.684C1119.19 657.775 1118.91 656.581 1118 656.017Z" fill="white"/>
<path d="M1490.21 -33.0128C1489.3 -33.5761 1488.11 -33.2954 1487.54 -32.3859C1486.98 -31.4763 1487.26 -30.2824 1488.17 -29.7191C1489.08 -29.1557 1490.27 -29.4364 1490.84 -30.346C1491.4 -31.2555 1491.12 -32.4495 1490.21 -33.0128Z" fill="white"/>
<path d="M1272.54 99.7076C1271.63 99.1443 1270.43 99.425 1269.87 100.335C1269.31 101.244 1269.59 102.438 1270.5 103.001C1271.41 103.565 1272.6 103.284 1273.16 102.374C1273.73 101.465 1273.45 100.271 1272.54 99.7076Z" fill="white"/>
<path d="M690.573 86.0106C692.32 87.0925 692.859 89.3858 691.777 91.1327C690.695 92.8796 688.402 93.4187 686.655 92.3368C684.908 91.2549 684.369 88.9616 685.451 87.2147C686.533 85.4678 688.826 84.9287 690.573 86.0106Z" fill="white"/>
</g>
<path d="M572.944 433.557C626.319 433.557 670.731 464.44 680.117 505.22C708.475 519.763 727.88 549.291 727.88 583.351C727.88 602.555 721.709 620.318 711.244 634.768H269.871C269.458 632.07 269.244 629.324 269.244 626.54C269.244 588.678 308.532 557.984 356.995 557.984C365.037 557.984 372.827 558.83 380.226 560.413C378.487 555.03 377.562 549.394 377.562 543.589C377.562 505.727 416.849 475.033 465.312 475.033C470.185 475.033 474.966 475.344 479.622 475.94C498.719 450.537 533.368 433.557 572.944 433.557Z" fill="#64284A" fill-opacity="0.69"/>
<ellipse cx="789.5" cy="766" rx="94" ry="94.5" fill="#B77691"/>
<path d="M-37.4888 773.369L102.889 656.31L240.242 749.42L436.723 574.5L542.5 724V998.884L-48.5 1001.5L-37.4888 773.369Z" fill="#461A40"/>
<path d="M1182.5 800.262L978.083 684.877L776.194 800.262L608.031 625.5L517.5 743.386V1049.5H1457.69L1487.5 916.395L1348.02 707.293L1182.5 800.262Z" fill="#461A40"/>
<path d="M-6.5 780.033L65.1539 892.009L188.584 803.3L325.007 892.009L441.942 717.5L544.5 780.033V1086.5H-6.5V780.033Z" fill="#511F4A"/>
<path d="M1088.89 823.062L973.285 893.306L862.874 804.732L740.84 893.306L673.025 804.732L544.5 781.5V1087.5H1456.5L1289.47 781.5L1178.06 893.306L1088.89 823.062Z" fill="#511F4A"/>
<path d="M530.267 235.964C561.895 235.964 587.535 260.028 587.535 289.713C587.535 294.826 586.774 299.773 585.353 304.459H329.213C329.177 303.734 329.158 303.004 329.158 302.271C329.158 278.155 348.708 258.605 372.823 258.605C388.076 258.606 401.499 266.428 409.308 278.277C417.667 274.617 427.608 272.494 438.274 272.494C451.821 272.494 464.198 275.919 473.65 281.569C477.832 255.749 501.587 235.964 530.267 235.964Z" fill="#64284A" fill-opacity="0.58"/>
<path d="M143.677 415.266C175.305 415.266 200.946 439.33 200.946 469.015C200.946 474.128 200.185 479.075 198.764 483.761H-57.377C-57.4127 483.036 -57.4316 482.306 -57.4316 481.572C-57.4313 457.457 -37.882 437.907 -13.7666 437.907C1.48603 437.907 14.9102 445.729 22.7188 457.579C31.0781 453.918 41.0193 451.796 51.6855 451.796C65.2322 451.796 77.6078 455.221 87.0605 460.871C91.2423 435.051 114.998 415.266 143.677 415.266Z" fill="#64284A" fill-opacity="0.68"/>
<path d="M391.015 69.7012C415.179 69.7014 435.684 83.6705 442.938 103.049C452.134 98.3556 463.039 95.6367 474.732 95.6367C507.571 95.637 534.191 117.068 534.191 143.504C534.191 144.722 534.134 145.93 534.022 147.126H346.659C340.132 139.087 336.283 129.205 336.283 118.521C336.283 91.5583 360.787 69.7012 391.015 69.7012Z" fill="#4F1E4A"/>
<path d="M91.8584 155.407C71.0096 155.407 53.1663 167.162 45.8164 183.817C41.5866 181.964 36.89 180.933 31.9453 180.933C14.5821 180.933 0.289468 193.658 -1.53516 210.003H197.641C193.093 202.155 176.98 196.354 157.8 196.354C151.967 196.354 146.417 196.891 141.391 197.858C139.74 174.161 118.194 155.407 91.8584 155.407Z" fill="#4F1E4A"/>
<path d="M847.188 326.604C815.56 326.604 789.919 350.669 789.919 380.354C789.919 385.467 790.68 390.414 792.102 395.1H1048.24C1048.28 394.375 1048.3 393.645 1048.3 392.911C1048.3 368.796 1028.75 349.246 1004.63 349.246C989.378 349.246 975.955 357.068 968.146 368.918C959.787 365.257 949.846 363.135 939.18 363.135C925.633 363.135 913.258 366.561 903.805 372.211C899.624 346.39 875.868 326.605 847.188 326.604Z" fill="#64284A" fill-opacity="0.58"/>
<path d="M1233.78 505.906C1202.15 505.907 1176.51 529.971 1176.51 559.655C1176.51 564.769 1177.27 569.716 1178.69 574.401H1434.83C1434.87 573.676 1434.89 572.947 1434.89 572.213C1434.89 548.097 1415.34 528.548 1391.22 528.548C1375.97 528.548 1362.54 536.37 1354.74 548.22C1346.38 544.559 1336.44 542.437 1325.77 542.437C1312.22 542.437 1299.85 545.863 1290.39 551.513C1286.21 525.692 1262.46 505.906 1233.78 505.906Z" fill="#64284A" fill-opacity="0.68"/>
<path d="M986.438 160.342C962.274 160.342 941.768 174.311 934.514 193.689C925.318 188.996 914.414 186.277 902.721 186.277C869.882 186.277 843.261 207.708 843.261 234.145C843.261 235.363 843.318 236.571 843.429 237.767H1030.79C1037.32 229.728 1041.17 219.846 1041.17 209.161C1041.17 182.199 1016.67 160.342 986.438 160.342Z" fill="#4F1E4A"/>
<path d="M1231.15 85.3037C1255.31 85.3038 1275.82 99.2733 1283.07 118.652C1292.27 113.959 1303.17 111.239 1314.87 111.239C1347.7 111.239 1374.33 132.67 1374.33 159.106C1374.33 160.325 1374.27 161.533 1374.16 162.729H1186.79C1180.26 154.69 1176.42 144.807 1176.42 134.123C1176.42 107.161 1200.92 85.3037 1231.15 85.3037Z" fill="#4F1E4A"/>
<path d="M1285.6 246.048C1306.44 246.048 1324.29 257.803 1331.64 274.458C1335.87 272.604 1340.56 271.573 1345.51 271.573C1362.87 271.573 1377.17 284.298 1378.99 300.644H1179.81C1184.36 292.796 1200.48 286.994 1219.66 286.994C1225.49 286.994 1231.04 287.532 1236.06 288.499C1237.71 264.802 1259.26 246.048 1285.6 246.048Z" fill="#4F1E4A"/>
<g filter="url(#filter0_i_96_122)">
<rect x="1320.53" y="264.358" width="176.55" height="717.857" fill="#513760"/>
</g>
<path d="M1306.62 264.358L1452.5 264.358V281.385L1320.43 281.385L1306.62 264.358Z" fill="#8E739E"/>
<path d="M1401.01 133.273H1439.11V170.567H1401.01V133.273Z" fill="#8E739E"/>
<path d="M1306.62 255.557H1452.5V264.358L1306.62 264.358V255.557Z" fill="#8E739E"/>
<path d="M1414.82 160.687C1466.9 160.687 1509.12 202.906 1509.12 254.986C1509.12 255.176 1509.12 255.367 1509.12 255.557H1320.53C1320.53 255.367 1320.53 255.176 1320.53 254.986C1320.53 202.906 1362.74 160.687 1414.82 160.687Z" fill="#513760"/>
<rect x="1329.58" y="381.837" width="38.1553" height="8.68186" fill="#2A1B32"/>
<path d="M1337.73 355.923V381.837H1358.99V355.923L1348.36 335.172L1337.73 355.923Z" fill="black" stroke="#2A1B32" stroke-width="7"/>
<rect x="1329.58" y="545.774" width="38.1553" height="8.68186" fill="#2A1B32"/>
<path d="M1337.73 519.86V545.774H1358.99V519.86L1348.36 499.109L1337.73 519.86Z" fill="black" stroke="#2A1B32" stroke-width="7"/>
<rect x="1329.58" y="709.711" width="38.1553" height="8.68186" fill="#2A1B32"/>
<path d="M1337.73 683.797V709.711H1358.99V683.797L1348.36 663.046L1337.73 683.797Z" fill="black" stroke="#2A1B32" stroke-width="7"/>
<path d="M1334.1 854.167C1334.1 854.167 1338.16 827.407 1348.65 827.407C1359.15 827.407 1363.21 854.167 1363.21 854.167V945.954H1334.1V854.167Z" fill="black"/>
<path d="M1377.16 281.294H1439.65V982.107H1377.16V281.294Z" fill="#513760"/>
<path d="M-85.0395 1080.5C-85.0395 1080.5 -341.355 904.5 741.5 904.5C1824.36 904.5 1568.04 1080.5 1568.04 1080.5H-85.0395Z" fill="#3B6766"/>
<path d="M60.2464 952.956L122.681 949.306C122.681 949.306 153.947 955.997 152.453 966.079C151.113 975.129 143.176 978.685 134.763 982.281C124.419 986.704 106.612 988.401 106.612 988.401L63.6531 987.042L51.9668 969.067L60.2464 952.956Z" fill="#2C5D5C"/>
<g filter="url(#filter1_i_96_122)">
<path d="M58.2744 799.462H91.9169L88.6461 879.486L91.9169 958.563H58.2744L62.947 854.39L58.2744 799.462Z" fill="#5C3F35"/>
</g>
<path d="M84.9703 940.34L106.756 956.51L112.944 962.768L80.7031 956.51L84.9703 940.34Z" fill="#5C3F35"/>
<path d="M72.6807 939.702L83.4062 965.345L83.0214 974.193L65.5727 946.39L72.6807 939.702Z" fill="#5C3F35"/>
<path d="M59.8545 945.107L47.5912 959.842L45.5555 966.634L60.7264 957.565L59.8545 945.107Z" fill="#452F28"/>
<path d="M135.72 800.676C153.295 814.295 164.465 833.171 150.846 850.746C137.227 868.32 111.94 871.526 94.3653 857.907C76.7908 844.288 73.5844 819.001 87.2034 801.427C100.822 783.852 118.146 787.057 135.72 800.676Z" fill="#2C5D5C"/>
<path d="M27.6739 752.598C47.8566 743.271 69.7564 742.049 79.0836 762.231C88.4108 782.414 79.6106 806.337 59.4279 815.664C39.2451 824.991 15.3226 816.191 5.9954 796.008C-3.3318 775.826 7.49113 761.925 27.6739 752.598Z" fill="#2C5D5C"/>
<path d="M59.5254 804.451C79.7082 795.124 101.608 793.902 110.935 814.085C120.262 834.268 111.462 858.19 91.2794 867.517C71.0967 876.845 47.1742 868.044 37.847 847.862C28.5198 827.679 39.3427 813.778 59.5254 804.451Z" fill="#2C5D5C"/>
<path d="M136.073 826.879C136.073 849.137 127.97 869.551 105.666 869.551C83.3634 869.551 65.2832 851.507 65.2832 829.25C65.2832 806.992 83.3634 788.949 105.666 788.949C127.97 788.949 136.073 804.622 136.073 826.879Z" fill="#3B6766"/>
<path d="M97.5248 771.509C97.5248 793.767 89.4217 814.181 67.1186 814.181C44.8156 814.181 26.7354 796.137 26.7354 773.88C26.7354 751.622 44.8156 733.579 67.1186 733.579C89.4217 733.579 97.5248 749.252 97.5248 771.509Z" fill="#2C5D5C"/>
<path d="M68.7885 812.532C68.7885 834.596 60.6854 854.833 38.3823 854.833C16.0792 854.833 -2.00098 836.946 -2.00098 814.882C-2.00098 792.818 16.0792 774.932 38.3823 774.932C60.6854 774.932 68.7885 790.468 68.7885 812.532Z" fill="#2C5D5C"/>
<path d="M99.9737 764.872C120.156 755.545 142.056 754.323 151.383 774.506C160.711 794.688 151.91 818.611 131.728 827.938C111.545 837.265 87.6224 828.465 78.2952 808.282C68.968 788.1 79.7909 774.199 99.9737 764.872Z" fill="#2C5D5C"/>
<path d="M135.373 786.929C135.373 809.186 127.269 829.6 104.966 829.6C82.6632 829.6 64.583 811.557 64.583 789.299C64.583 767.042 82.6632 748.999 104.966 748.999C127.269 748.999 135.373 764.671 135.373 786.929Z" fill="#2C5D5C"/>
<path d="M144.047 779.851C157.142 797.819 162.625 819.057 144.656 832.152C126.688 845.247 101.506 841.297 88.4111 823.329C75.3159 805.36 79.2663 780.179 97.2345 767.083C115.203 753.988 130.952 761.883 144.047 779.851Z" fill="#3B6766"/>
<path d="M95.5287 791.005C113.103 804.624 124.274 823.5 110.655 841.075C97.0357 858.649 71.7483 861.855 54.1739 848.236C36.5994 834.617 33.393 809.33 47.012 791.756C60.6311 774.181 77.9542 777.386 95.5287 791.005Z" fill="#2C5D5C"/>
<path d="M63.0645 764.05C83.2472 754.723 105.147 753.501 114.474 773.684C123.801 793.867 115.001 817.789 94.8185 827.116C74.6358 836.444 50.7132 827.644 41.386 807.461C32.0588 787.278 42.8818 773.377 63.0645 764.05Z" fill="#2C5D5C"/>
<path d="M103.598 773.212C116.693 791.181 122.175 812.418 104.207 825.513C86.239 838.609 61.0571 834.658 47.9619 816.69C34.8667 798.722 38.8171 773.54 56.7853 760.445C74.7534 747.35 90.5026 755.244 103.598 773.212Z" fill="#3B6766"/>
<path d="M59.6413 783.668C71.0825 793.523 76.3044 808.681 61.7946 825.528C47.2848 842.374 26.2473 848.043 14.8061 838.189C3.36481 828.334 5.85235 806.689 20.3621 789.842C34.8719 772.996 48.2 773.814 59.6413 783.668Z" fill="#2C5D5C"/>
<path d="M72.8336 778.204C84.2749 788.059 89.4967 803.217 74.987 820.064C60.4772 836.91 39.4397 842.579 27.9984 832.725C16.5572 822.87 19.0447 801.225 33.5545 784.378C48.0643 767.532 61.3924 768.35 72.8336 778.204Z" fill="#2C5D5C"/>
<path d="M65.9266 773.997C75.6025 787.274 66.8491 805.357 53.5726 815.033C40.2962 824.709 21.6897 821.79 12.0138 808.513C2.33797 795.237 5.25683 776.63 18.5333 766.955C31.8097 757.279 56.2508 760.721 65.9266 773.997Z" fill="#3B6766"/>
<path d="M71.6828 842.699C65.6225 860.623 46.98 870.512 30.0437 864.785C13.1075 859.059 8.27891 851.871 14.3393 833.947C20.3997 816.023 35.0541 794.15 51.9904 799.876C68.9266 805.603 77.7432 824.775 71.6828 842.699Z" fill="#3B6766"/>
<path d="M88.4131 872.91L106.995 869.482L114.368 868.357L88.4131 882.867V872.91Z" fill="#5C3F35"/>
<path d="M347.156 939.506C335.406 939.506 325.628 944.978 323.544 952.208C321.912 952.055 320.21 951.973 318.461 951.973C309.07 951.973 301.053 954.302 297.887 957.582L370.873 957.582C371.074 956.77 371.181 955.938 371.181 955.089C371.181 946.483 360.424 939.506 347.156 939.506Z" fill="#2C5D5C"/>
<path d="M564.842 945.673C576.592 945.673 586.371 951.145 588.455 958.375C590.087 958.222 591.789 958.139 593.538 958.139C602.928 958.139 610.945 960.469 614.112 963.749L541.125 963.749C540.924 962.937 540.818 962.105 540.818 961.256C540.818 952.65 551.574 945.673 564.842 945.673Z" fill="#2C5D5C"/>
<path d="M759.694 916.549C775.23 916.549 788.045 924.103 789.889 933.856C795.274 935.125 799.49 937.091 801.742 939.44L729.66 939.44C729.405 938.412 729.271 937.358 729.271 936.283C729.271 925.384 742.892 916.549 759.694 916.549Z" fill="#2C5D5C"/>
<path d="M729.649 916.549C714.769 916.549 702.386 923.479 699.747 932.635C697.681 932.441 695.526 932.336 693.311 932.336C681.418 932.336 671.265 935.286 667.255 939.44L759.684 939.44C759.939 938.412 760.073 937.358 760.073 936.283C760.073 925.384 746.452 916.549 729.649 916.549Z" fill="#2C5D5C"/>
<path d="M1027.64 952.184C1039 952.184 1048.91 955.587 1054.13 960.628C1063.09 962.091 1069.36 965.109 1069.76 968.63L997.219 968.63C997.387 959.531 1010.94 952.184 1027.64 952.184Z" fill="#2C5D5C"/>
<path d="M1003.42 945.673C992.761 945.673 983.385 949.229 977.951 954.61C963.446 955.002 951.987 959.786 951.986 965.633C951.986 966.648 952.332 967.631 952.979 968.564L1033.45 968.564C1033.71 967.536 1033.84 966.482 1033.84 965.407C1033.84 954.508 1020.22 945.673 1003.42 945.673Z" fill="#2C5D5C"/>
<path d="M1334.25 931.5L1363.5 935.998C1363.5 935.998 1326.08 959.394 1327.5 988.35C1328.83 1015.53 1363.5 1031.5 1363.5 1031.5H1314.7C1314.7 1031.5 1287.92 1022.31 1285.59 988.35C1283.1 952.05 1334.25 931.5 1334.25 931.5Z" fill="#5C3F35"/>
</g>
<defs>
<filter id="filter0_i_96_122" x="1320.53" y="264.358" width="176.551" height="717.857" filterUnits="userSpaceOnUse" color-interpolation-filters="sRGB">
<feFlood flood-opacity="0" result="BackgroundImageFix"/>
<feBlend mode="normal" in="SourceGraphic" in2="BackgroundImageFix" result="shape"/>
<feColorMatrix in="SourceAlpha" type="matrix" values="0 0 0 0 0 0 0 0 0 0 0 0 0 0 0 0 0 0 127 0" result="hardAlpha"/>
<feOffset dx="160"/>
<feComposite in2="hardAlpha" operator="arithmetic" k2="-1" k3="1"/>
<feColorMatrix type="matrix" values="0 0 0 0 0 0 0 0 0 0 0 0 0 0 0 0 0 0 0.25 0"/>
<feBlend mode="normal" in2="shape" result="effect1_innerShadow_96_122"/>
</filter>
<filter id="filter1_i_96_122" x="58.2744" y="799.462" width="33.6426" height="159.101" filterUnits="userSpaceOnUse" color-interpolation-filters="sRGB">
<feFlood flood-opacity="0" result="BackgroundImageFix"/>
<feBlend mode="normal" in="SourceGraphic" in2="BackgroundImageFix" result="shape"/>
<feColorMatrix in="SourceAlpha" type="matrix" values="0 0 0 0 0 0 0 0 0 0 0 0 0 0 0 0 0 0 127 0" result="hardAlpha"/>
<feOffset dx="9.5" dy="2"/>
<feComposite in2="hardAlpha" operator="arithmetic" k2="-1" k3="1"/>
<feColorMatrix type="matrix" values="0 0 0 0 0 0 0 0 0 0 0 0 0 0 0 0 0 0 0.25 0"/>
<feBlend mode="normal" in2="shape" result="effect1_innerShadow_96_122"/>
</filter>
<linearGradient id="paint0_linear_96_122" x1="720" y1="1.3365e-06" x2="751.954" y2="1453.07" gradientUnits="userSpaceOnUse">
<stop stop-color="#3D164B"/>
<stop offset="1" stop-color="#773049"/>
</linearGradient>
<clipPath id="clip0_96_122">
<rect width="1440" height="1024" fill="white"/>
</clipPath>
</defs>
</svg>
