<svg width="1440" height="2866" viewBox="0 0 1440 2866" fill="none" xmlns="http://www.w3.org/2000/svg">
<g clip-path="url(#clip0_1_258)">
<rect width="1440" height="2866" fill="url(#paint0_linear_1_258)"/>
<g opacity="0.21">
<path d="M1259.89 -649.998C1259.89 -644.001 1255.03 -639.139 1249.03 -639.139C1243.04 -639.139 1238.17 -644.001 1238.17 -649.998C1238.17 -655.995 1243.04 -660.857 1249.03 -660.857C1255.03 -660.857 1259.89 -655.995 1259.89 -649.998Z" fill="white"/>
<path d="M946.093 -595.605C946.093 -589.608 941.231 -584.747 935.234 -584.747C929.237 -584.747 924.376 -589.608 924.376 -595.605C924.376 -601.602 929.237 -606.464 935.234 -606.464C941.231 -606.464 946.093 -601.602 946.093 -595.605Z" fill="white"/>
<path d="M-25.4409 -660.857C-25.4409 -654.86 -30.3025 -649.999 -36.2996 -649.999C-42.2966 -649.999 -47.1582 -654.86 -47.1582 -660.857C-47.1582 -666.854 -42.2966 -671.716 -36.2996 -671.716C-30.3025 -671.716 -25.4409 -666.854 -25.4409 -660.857Z" fill="white"/>
<path d="M1893.91 -617.322C1893.91 -611.325 1889.05 -606.464 1883.05 -606.464C1877.05 -606.464 1872.19 -611.325 1872.19 -617.322C1872.19 -623.319 1877.05 -628.181 1883.05 -628.181C1889.05 -628.181 1893.91 -623.319 1893.91 -617.322Z" fill="white"/>
<path d="M-640.143 -537.73C-640.143 -531.733 -645.005 -526.872 -651.002 -526.872C-656.999 -526.872 -661.861 -531.733 -661.861 -537.73C-661.861 -543.727 -656.999 -548.589 -651.002 -548.589C-645.005 -548.589 -640.143 -543.727 -640.143 -537.73Z" fill="white"/>
<path d="M211.102 -466.984C211.102 -460.987 206.24 -456.126 200.243 -456.126C194.246 -456.126 189.385 -460.987 189.385 -466.984C189.385 -472.981 194.246 -477.843 200.243 -477.843C206.24 -477.843 211.102 -472.981 211.102 -466.984Z" fill="white"/>
<path d="M1042.64 -151.191C1042.64 -145.194 1037.78 -140.333 1031.78 -140.333C1025.79 -140.333 1020.92 -145.194 1020.92 -151.191C1020.92 -157.188 1025.79 -162.05 1031.78 -162.05C1037.78 -162.05 1042.64 -157.188 1042.64 -151.191Z" fill="white"/>
<path d="M543.218 -324.17C543.218 -318.173 538.357 -313.311 532.36 -313.311C526.363 -313.311 521.501 -318.173 521.501 -324.17C521.501 -330.167 526.363 -335.028 532.36 -335.028C538.357 -335.028 543.218 -330.167 543.218 -324.17Z" fill="white"/>
<path d="M722.585 -172.909C722.585 -166.911 717.723 -162.05 711.726 -162.05C705.729 -162.05 700.867 -166.911 700.867 -172.909C700.867 -178.906 705.729 -183.767 711.726 -183.767C717.723 -183.767 722.585 -178.906 722.585 -172.909Z" fill="white"/>
<path d="M2098.92 -267.879C2098.92 -261.882 2094.06 -257.02 2088.06 -257.02C2082.07 -257.02 2077.21 -261.882 2077.21 -267.879C2077.21 -273.876 2082.07 -278.737 2088.06 -278.737C2094.06 -278.737 2098.92 -273.876 2098.92 -267.879Z" fill="white"/>
<path d="M-25.4409 -253.236C-25.4409 -247.239 -30.3025 -242.378 -36.2996 -242.378C-42.2966 -242.378 -47.1582 -247.239 -47.1582 -253.236C-47.1582 -259.233 -42.2966 -264.095 -36.2996 -264.095C-30.3025 -264.095 -25.4409 -259.233 -25.4409 -253.236Z" fill="white"/>
<path d="M-640.143 -87.1171C-640.143 -81.12 -645.005 -76.2584 -651.002 -76.2584C-656.999 -76.2584 -661.861 -81.12 -661.861 -87.1171C-661.861 -93.1141 -656.999 -97.9757 -651.002 -97.9757C-645.005 -97.9757 -640.143 -93.1141 -640.143 -87.1171Z" fill="white"/>
<path d="M1000.33 -433.67C1000.33 -430.547 997.794 -428.016 994.672 -428.016C991.55 -428.016 989.018 -430.547 989.018 -433.67C989.018 -436.792 991.55 -439.323 994.672 -439.323C997.794 -439.323 1000.33 -436.792 1000.33 -433.67Z" fill="white"/>
<path d="M1483.15 -660.857C1483.15 -657.735 1480.62 -655.204 1477.5 -655.204C1474.38 -655.204 1471.84 -657.735 1471.84 -660.857C1471.84 -663.98 1474.38 -666.511 1477.5 -666.511C1480.62 -666.511 1483.15 -663.98 1483.15 -660.857Z" fill="white"/>
<path d="M512.106 -563.293C512.106 -560.17 509.574 -557.639 506.452 -557.639C503.33 -557.639 500.798 -560.17 500.798 -563.293C500.798 -566.415 503.33 -568.946 506.452 -568.946C509.574 -568.946 512.106 -566.415 512.106 -563.293Z" fill="white"/>
<path d="M730.989 -469.375C730.989 -466.253 728.458 -463.721 725.336 -463.721C722.213 -463.721 719.682 -466.253 719.682 -469.375C719.682 -472.497 722.213 -475.028 725.336 -475.028C728.458 -475.028 730.989 -472.497 730.989 -469.375Z" fill="white"/>
<path d="M1105.11 -633.486C1105.11 -630.364 1102.58 -627.833 1099.46 -627.833C1096.33 -627.833 1093.8 -630.364 1093.8 -633.486C1093.8 -636.609 1096.33 -639.14 1099.46 -639.14C1102.58 -639.14 1105.11 -636.609 1105.11 -633.486Z" fill="white"/>
<path d="M1178.23 -301.465C1178.23 -298.342 1175.7 -295.811 1172.58 -295.811C1169.46 -295.811 1166.92 -298.342 1166.92 -301.465C1166.92 -304.587 1169.46 -307.118 1172.58 -307.118C1175.7 -307.118 1178.23 -304.587 1178.23 -301.465Z" fill="white"/>
<path d="M195.038 -633.486C195.038 -630.364 192.507 -627.833 189.385 -627.833C186.262 -627.833 183.731 -630.364 183.731 -633.486C183.731 -636.609 186.262 -639.14 189.385 -639.14C192.507 -639.14 195.038 -636.609 195.038 -633.486Z" fill="white"/>
<path d="M-104.227 -475.029C-104.227 -471.907 -106.758 -469.376 -109.881 -469.376C-113.003 -469.376 -115.534 -471.907 -115.534 -475.029C-115.534 -478.152 -113.003 -480.683 -109.881 -480.683C-106.758 -480.683 -104.227 -478.152 -104.227 -475.029Z" fill="white"/>
<path d="M274.135 -340.682C274.135 -337.559 271.604 -335.028 268.482 -335.028C265.359 -335.028 262.828 -337.559 262.828 -340.682C262.828 -343.804 265.359 -346.335 268.482 -346.335C271.604 -346.335 274.135 -343.804 274.135 -340.682Z" fill="white"/>
<path d="M-278.753 -633.486C-278.753 -630.364 -281.285 -627.833 -284.407 -627.833C-287.529 -627.833 -290.061 -630.364 -290.061 -633.486C-290.061 -636.609 -287.529 -639.14 -284.407 -639.14C-281.285 -639.14 -278.753 -636.609 -278.753 -633.486Z" fill="white"/>
<path d="M2002.83 -498.195C2002.83 -495.073 2000.3 -492.542 1997.18 -492.542C1994.06 -492.542 1991.52 -495.073 1991.52 -498.195C1991.52 -501.318 1994.06 -503.849 1997.18 -503.849C2000.3 -503.849 2002.83 -501.318 2002.83 -498.195Z" fill="white"/>
<path d="M1339.03 -162.055C1339.03 -158.932 1336.5 -156.401 1333.38 -156.401C1330.26 -156.401 1327.73 -158.932 1327.73 -162.055C1327.73 -165.177 1330.26 -167.708 1333.38 -167.708C1336.5 -167.708 1339.03 -165.177 1339.03 -162.055Z" fill="white"/>
<path d="M1462.5 -19.2108C1462.5 -13.2137 1467.36 -8.35217 1473.36 -8.35217C1479.36 -8.35217 1484.22 -13.2137 1484.22 -19.2108C1484.22 -25.2079 1479.36 -30.0695 1473.36 -30.0695C1467.36 -30.0695 1462.5 -25.2079 1462.5 -19.2108Z" fill="white" fill-opacity="0.79"/>
<path d="M-456.845 24.3243C-456.845 30.3214 -451.983 35.183 -445.986 35.183C-439.989 35.183 -435.128 30.3214 -435.128 24.3243C-435.128 18.3273 -439.989 13.4657 -445.986 13.4657C-451.983 13.4657 -456.845 18.3273 -456.845 24.3243Z" fill="white" fill-opacity="0.79"/>
<path d="M2077.21 103.916C2077.21 109.913 2082.07 114.775 2088.06 114.775C2094.06 114.775 2098.92 109.913 2098.92 103.916C2098.92 97.9191 2094.06 93.0575 2088.06 93.0575C2082.07 93.0575 2077.21 97.9191 2077.21 103.916Z" fill="white" fill-opacity="0.79"/>
<path d="M1225.96 174.662C1225.96 180.659 1230.82 185.521 1236.82 185.521C1242.82 185.521 1247.68 180.659 1247.68 174.662C1247.68 168.665 1242.82 163.804 1236.82 163.804C1230.82 163.804 1225.96 168.665 1225.96 174.662Z" fill="white" fill-opacity="0.79"/>
<path d="M596.941 418.62C596.941 424.617 601.803 429.479 607.8 429.479C613.797 429.479 618.658 424.617 618.658 418.62C618.658 412.623 613.797 407.762 607.8 407.762C601.803 407.762 596.941 412.623 596.941 418.62Z" fill="white" fill-opacity="0.79"/>
<path d="M893.843 317.477C893.843 323.474 898.705 328.335 904.702 328.335C910.699 328.335 915.561 323.474 915.561 317.477C915.561 311.48 910.699 306.618 904.702 306.618C898.705 306.618 893.843 311.48 893.843 317.477Z" fill="white" fill-opacity="0.79"/>
<path d="M-661.861 373.768C-661.861 379.765 -656.999 384.626 -651.002 384.626C-645.005 384.626 -640.143 379.765 -640.143 373.768C-640.143 367.771 -645.005 362.909 -651.002 362.909C-656.999 362.909 -661.861 367.771 -661.861 373.768Z" fill="white" fill-opacity="0.79"/>
<path d="M1462.5 388.41C1462.5 394.407 1467.36 399.269 1473.36 399.269C1479.36 399.269 1484.22 394.407 1484.22 388.41C1484.22 382.413 1479.36 377.552 1473.36 377.552C1467.36 377.552 1462.5 382.413 1462.5 388.41Z" fill="white" fill-opacity="0.79"/>
<path d="M2077.21 554.529C2077.21 560.526 2082.07 565.388 2088.06 565.388C2094.06 565.388 2098.92 560.526 2098.92 554.529C2098.92 548.532 2094.06 543.671 2088.06 543.671C2082.07 543.671 2077.21 548.532 2077.21 554.529Z" fill="white" fill-opacity="0.79"/>
<path d="M436.736 207.977C436.736 211.099 439.267 213.63 442.39 213.63C445.512 213.63 448.043 211.099 448.043 207.977C448.043 204.854 445.512 202.323 442.39 202.323C439.267 202.323 436.736 204.854 436.736 207.977Z" fill="white" fill-opacity="0.79"/>
<path d="M-46.0889 -19.2108C-46.0889 -16.0884 -43.5577 -13.5573 -40.4353 -13.5573C-37.3129 -13.5573 -34.7817 -16.0884 -34.7817 -19.2108C-34.7817 -22.3332 -37.3129 -24.8644 -40.4353 -24.8644C-43.5577 -24.8644 -46.0889 -22.3332 -46.0889 -19.2108Z" fill="white" fill-opacity="0.79"/>
<path d="M924.956 78.3536C924.956 81.476 927.487 84.0072 930.61 84.0072C933.732 84.0072 936.263 81.476 936.263 78.3536C936.263 75.2313 933.732 72.7001 930.61 72.7001C927.487 72.7001 924.956 75.2313 924.956 78.3536Z" fill="white" fill-opacity="0.79"/>
<path d="M706.072 172.272C706.072 175.394 708.604 177.925 711.726 177.925C714.848 177.925 717.38 175.394 717.38 172.272C717.38 169.149 714.848 166.618 711.726 166.618C708.604 166.618 706.072 169.149 706.072 172.272Z" fill="white" fill-opacity="0.79"/>
<path d="M331.951 8.16028C331.951 11.2827 334.482 13.8138 337.605 13.8138C340.727 13.8138 343.258 11.2827 343.258 8.16028C343.258 5.0379 340.727 2.50671 337.605 2.50671C334.482 2.50671 331.951 5.0379 331.951 8.16028Z" fill="white" fill-opacity="0.79"/>
<path d="M258.83 340.182C258.83 343.304 261.361 345.835 264.484 345.835C267.606 345.835 270.137 343.304 270.137 340.182C270.137 337.059 267.606 334.528 264.484 334.528C261.361 334.528 258.83 337.059 258.83 340.182Z" fill="white" fill-opacity="0.79"/>
<path d="M1242.02 8.16028C1242.02 11.2827 1244.55 13.8138 1247.68 13.8138C1250.8 13.8138 1253.33 11.2827 1253.33 8.16028C1253.33 5.0379 1250.8 2.50671 1247.68 2.50671C1244.55 2.50671 1242.02 5.0379 1242.02 8.16028Z" fill="white" fill-opacity="0.79"/>
<path d="M1541.29 166.617C1541.29 169.74 1543.82 172.271 1546.94 172.271C1550.06 172.271 1552.6 169.74 1552.6 166.617C1552.6 163.495 1550.06 160.964 1546.94 160.964C1543.82 160.964 1541.29 163.495 1541.29 166.617Z" fill="white" fill-opacity="0.79"/>
<path d="M1162.93 300.965C1162.93 304.087 1165.46 306.619 1168.58 306.619C1171.7 306.619 1174.23 304.087 1174.23 300.965C1174.23 297.843 1171.7 295.311 1168.58 295.311C1165.46 295.311 1162.93 297.843 1162.93 300.965Z" fill="white" fill-opacity="0.79"/>
<path d="M1819.85 230.115C1819.85 233.237 1822.38 235.768 1825.51 235.768C1828.63 235.768 1831.16 233.237 1831.16 230.115C1831.16 226.992 1828.63 224.461 1825.51 224.461C1822.38 224.461 1819.85 226.992 1819.85 230.115Z" fill="white" fill-opacity="0.79"/>
<path d="M-565.77 143.451C-565.77 146.574 -563.238 149.105 -560.116 149.105C-556.994 149.105 -554.462 146.574 -554.462 143.451C-554.462 140.329 -556.994 137.798 -560.116 137.798C-563.238 137.798 -565.77 140.329 -565.77 143.451Z" fill="white" fill-opacity="0.79"/>
<path d="M108.722 172.272C108.722 175.394 111.253 177.925 114.375 177.925C117.498 177.925 120.029 175.394 120.029 172.272C120.029 169.149 117.498 166.618 114.375 166.618C111.253 166.618 108.722 169.149 108.722 172.272Z" fill="white" fill-opacity="0.79"/>
<path d="M-29.5767 373.768C-29.5767 379.765 -34.4382 384.626 -40.4353 384.626C-46.4324 384.626 -51.2939 379.765 -51.2939 373.768C-51.2939 367.771 -46.4324 362.909 -40.4353 362.909C-34.4382 362.909 -29.5767 367.771 -29.5767 373.768Z" fill="white" fill-opacity="0.79"/>
<path d="M1830.21 566.567C1830.21 572.564 1825.34 577.425 1819.35 577.425C1813.35 577.425 1808.49 572.564 1808.49 566.567C1808.49 560.569 1813.35 555.708 1819.35 555.708C1825.34 555.708 1830.21 560.569 1830.21 566.567Z" fill="white" fill-opacity="0.79"/>
<path d="M-703.845 646.158C-703.845 652.155 -708.707 657.017 -714.704 657.017C-720.701 657.017 -725.562 652.155 -725.562 646.158C-725.562 640.161 -720.701 635.3 -714.704 635.3C-708.707 635.3 -703.845 640.161 -703.845 646.158Z" fill="white" fill-opacity="0.79"/>
<path d="M147.4 716.904C147.4 722.901 142.538 727.763 136.541 727.763C130.544 727.763 125.683 722.901 125.683 716.904C125.683 710.907 130.544 706.046 136.541 706.046C142.538 706.046 147.4 710.907 147.4 716.904Z" fill="white" fill-opacity="0.79"/>
<path d="M978.94 1032.7C978.94 1038.69 974.078 1043.56 968.081 1043.56C962.084 1043.56 957.223 1038.69 957.223 1032.7C957.223 1026.7 962.084 1021.84 968.081 1021.84C974.078 1021.84 978.94 1026.7 978.94 1032.7Z" fill="white" fill-opacity="0.79"/>
<path d="M479.517 859.719C479.517 865.716 474.655 870.578 468.658 870.578C462.661 870.578 457.799 865.716 457.799 859.719C457.799 853.722 462.661 848.86 468.658 848.86C474.655 848.86 479.517 853.722 479.517 859.719Z" fill="white" fill-opacity="0.79"/>
<path d="M2035.22 916.01C2035.22 922.007 2030.36 926.869 2024.36 926.869C2018.36 926.869 2013.5 922.007 2013.5 916.01C2013.5 910.013 2018.36 905.151 2024.36 905.151C2030.36 905.151 2035.22 910.013 2035.22 916.01Z" fill="white" fill-opacity="0.79"/>
<path d="M-89.1428 930.652C-89.1428 936.65 -94.0044 941.511 -100.001 941.511C-105.999 941.511 -110.86 936.65 -110.86 930.652C-110.86 924.655 -105.999 919.794 -100.001 919.794C-94.0044 919.794 -89.1428 924.655 -89.1428 930.652Z" fill="white" fill-opacity="0.79"/>
<path d="M-703.845 1096.77C-703.845 1102.77 -708.707 1107.63 -714.704 1107.63C-720.701 1107.63 -725.562 1102.77 -725.562 1096.77C-725.562 1090.77 -720.701 1085.91 -714.704 1085.91C-708.707 1085.91 -703.845 1090.77 -703.845 1096.77Z" fill="white" fill-opacity="0.79"/>
<path d="M936.624 750.219C936.624 753.341 934.093 755.872 930.97 755.872C927.848 755.872 925.317 753.341 925.317 750.219C925.317 747.096 927.848 744.565 930.97 744.565C934.093 744.565 936.624 747.096 936.624 750.219Z" fill="white" fill-opacity="0.79"/>
<path d="M1419.45 523.031C1419.45 526.154 1416.92 528.685 1413.8 528.685C1410.67 528.685 1408.14 526.154 1408.14 523.031C1408.14 519.909 1410.67 517.378 1413.8 517.378C1416.92 517.378 1419.45 519.909 1419.45 523.031Z" fill="white" fill-opacity="0.79"/>
<path d="M448.404 620.596C448.404 623.718 445.873 626.249 442.75 626.249C439.628 626.249 437.097 623.718 437.097 620.596C437.097 617.473 439.628 614.942 442.75 614.942C445.873 614.942 448.404 617.473 448.404 620.596Z" fill="white" fill-opacity="0.79"/>
<path d="M667.288 714.514C667.288 717.636 664.756 720.167 661.634 720.167C658.512 720.167 655.98 717.636 655.98 714.514C655.98 711.391 658.512 708.86 661.634 708.86C664.756 708.86 667.288 711.391 667.288 714.514Z" fill="white" fill-opacity="0.79"/>
<path d="M1041.41 550.402C1041.41 553.525 1038.88 556.056 1035.76 556.056C1032.63 556.056 1030.1 553.525 1030.1 550.402C1030.1 547.28 1032.63 544.749 1035.76 544.749C1038.88 544.749 1041.41 547.28 1041.41 550.402Z" fill="white" fill-opacity="0.79"/>
<path d="M1114.53 882.424C1114.53 885.546 1112 888.078 1108.88 888.078C1105.75 888.078 1103.22 885.546 1103.22 882.424C1103.22 879.302 1105.75 876.77 1108.88 876.77C1112 876.77 1114.53 879.302 1114.53 882.424Z" fill="white" fill-opacity="0.79"/>
<path d="M131.336 550.402C131.336 553.525 128.805 556.056 125.683 556.056C122.56 556.056 120.029 553.525 120.029 550.402C120.029 547.28 122.56 544.749 125.683 544.749C128.805 544.749 131.336 547.28 131.336 550.402Z" fill="white" fill-opacity="0.79"/>
<path d="M-167.929 708.859C-167.929 711.982 -170.46 714.513 -173.583 714.513C-176.705 714.513 -179.236 711.982 -179.236 708.859C-179.236 705.737 -176.705 703.206 -173.583 703.206C-170.46 703.206 -167.929 705.737 -167.929 708.859Z" fill="white" fill-opacity="0.79"/>
<path d="M210.433 843.207C210.433 846.33 207.902 848.861 204.78 848.861C201.657 848.861 199.126 846.33 199.126 843.207C199.126 840.085 201.657 837.554 204.78 837.554C207.902 837.554 210.433 840.085 210.433 843.207Z" fill="white" fill-opacity="0.79"/>
<path d="M-342.455 550.402C-342.455 553.525 -344.987 556.056 -348.109 556.056C-351.231 556.056 -353.762 553.525 -353.762 550.402C-353.762 547.28 -351.231 544.749 -348.109 544.749C-344.987 544.749 -342.455 547.28 -342.455 550.402Z" fill="white" fill-opacity="0.79"/>
<path d="M1939.13 685.693C1939.13 688.816 1936.6 691.347 1933.48 691.347C1930.35 691.347 1927.82 688.816 1927.82 685.693C1927.82 682.571 1930.35 680.04 1933.48 680.04C1936.6 680.04 1939.13 682.571 1939.13 685.693Z" fill="white" fill-opacity="0.79"/>
<path d="M1275.33 1021.83C1275.33 1024.96 1272.8 1027.49 1269.68 1027.49C1266.56 1027.49 1264.02 1024.96 1264.02 1021.83C1264.02 1018.71 1266.56 1016.18 1269.68 1016.18C1272.8 1016.18 1275.33 1018.71 1275.33 1021.83Z" fill="white" fill-opacity="0.79"/>
<path d="M1462.5 2344.26C1462.5 2338.27 1467.36 2333.4 1473.36 2333.4C1479.36 2333.4 1484.22 2338.27 1484.22 2344.26C1484.22 2350.26 1479.36 2355.12 1473.36 2355.12C1467.36 2355.12 1462.5 2350.26 1462.5 2344.26Z" fill="white"/>
<path d="M-456.845 2300.73C-456.845 2294.73 -451.983 2289.87 -445.986 2289.87C-439.989 2289.87 -435.128 2294.73 -435.128 2300.73C-435.128 2306.72 -439.989 2311.59 -445.986 2311.59C-451.983 2311.59 -456.845 2306.72 -456.845 2300.73Z" fill="white"/>
<path d="M2077.21 2221.14C2077.21 2215.14 2082.07 2210.28 2088.06 2210.28C2094.06 2210.28 2098.92 2215.14 2098.92 2221.14C2098.92 2227.13 2094.06 2231.99 2088.06 2231.99C2082.07 2231.99 2077.21 2227.13 2077.21 2221.14Z" fill="white"/>
<path d="M1225.96 2150.39C1225.96 2144.39 1230.82 2139.53 1236.82 2139.53C1242.82 2139.53 1247.68 2144.39 1247.68 2150.39C1247.68 2156.39 1242.82 2161.25 1236.82 2161.25C1230.82 2161.25 1225.96 2156.39 1225.96 2150.39Z" fill="white"/>
<path d="M596.941 1906.43C596.941 1900.43 601.803 1895.57 607.8 1895.57C613.797 1895.57 618.658 1900.43 618.658 1906.43C618.658 1912.43 613.797 1917.29 607.8 1917.29C601.803 1917.29 596.941 1912.43 596.941 1906.43Z" fill="white"/>
<path d="M893.843 2007.57C893.843 2001.58 898.705 1996.72 904.702 1996.72C910.699 1996.72 915.561 2001.58 915.561 2007.57C915.561 2013.57 910.699 2018.43 904.702 2018.43C898.705 2018.43 893.843 2013.57 893.843 2007.57Z" fill="white"/>
<path d="M-661.861 1951.28C-661.861 1945.29 -656.999 1940.43 -651.002 1940.43C-645.005 1940.43 -640.143 1945.29 -640.143 1951.28C-640.143 1957.28 -645.005 1962.14 -651.002 1962.14C-656.999 1962.14 -661.861 1957.28 -661.861 1951.28Z" fill="white"/>
<path d="M1462.5 1936.64C1462.5 1930.64 1467.36 1925.78 1473.36 1925.78C1479.36 1925.78 1484.22 1930.64 1484.22 1936.64C1484.22 1942.64 1479.36 1947.5 1473.36 1947.5C1467.36 1947.5 1462.5 1942.64 1462.5 1936.64Z" fill="white"/>
<path d="M2077.21 1770.52C2077.21 1764.53 2082.07 1759.66 2088.06 1759.66C2094.06 1759.66 2098.92 1764.53 2098.92 1770.52C2098.92 1776.52 2094.06 1781.38 2088.06 1781.38C2082.07 1781.38 2077.21 1776.52 2077.21 1770.52Z" fill="white"/>
<path d="M436.736 2117.07C436.736 2113.95 439.267 2111.42 442.39 2111.42C445.512 2111.42 448.043 2113.95 448.043 2117.07C448.043 2120.2 445.512 2122.73 442.39 2122.73C439.267 2122.73 436.736 2120.2 436.736 2117.07Z" fill="white"/>
<path d="M-46.0889 2344.26C-46.0889 2341.14 -43.5577 2338.61 -40.4353 2338.61C-37.3129 2338.61 -34.7817 2341.14 -34.7817 2344.26C-34.7817 2347.38 -37.3129 2349.92 -40.4353 2349.92C-43.5577 2349.92 -46.0889 2347.38 -46.0889 2344.26Z" fill="white"/>
<path d="M924.956 2246.7C924.956 2243.58 927.487 2241.04 930.61 2241.04C933.732 2241.04 936.263 2243.58 936.263 2246.7C936.263 2249.82 933.732 2252.35 930.61 2252.35C927.487 2252.35 924.956 2249.82 924.956 2246.7Z" fill="white"/>
<path d="M706.072 2152.78C706.072 2149.66 708.604 2147.13 711.726 2147.13C714.848 2147.13 717.38 2149.66 717.38 2152.78C717.38 2155.9 714.848 2158.43 711.726 2158.43C708.604 2158.43 706.072 2155.9 706.072 2152.78Z" fill="white"/>
<path d="M331.951 2316.89C331.951 2313.77 334.483 2311.24 337.605 2311.24C340.727 2311.24 343.259 2313.77 343.259 2316.89C343.259 2320.01 340.727 2322.54 337.605 2322.54C334.483 2322.54 331.951 2320.01 331.951 2316.89Z" fill="white"/>
<path d="M258.83 1984.87C258.83 1981.75 261.362 1979.22 264.484 1979.22C267.606 1979.22 270.137 1981.75 270.137 1984.87C270.137 1987.99 267.606 1990.52 264.484 1990.52C261.362 1990.52 258.83 1987.99 258.83 1984.87Z" fill="white"/>
<path d="M1242.02 2316.89C1242.02 2313.77 1244.55 2311.24 1247.68 2311.24C1250.8 2311.24 1253.33 2313.77 1253.33 2316.89C1253.33 2320.01 1250.8 2322.54 1247.68 2322.54C1244.55 2322.54 1242.02 2320.01 1242.02 2316.89Z" fill="white"/>
<path d="M1541.29 2158.43C1541.29 2155.31 1543.82 2152.78 1546.94 2152.78C1550.06 2152.78 1552.6 2155.31 1552.6 2158.43C1552.6 2161.56 1550.06 2164.09 1546.94 2164.09C1543.82 2164.09 1541.29 2161.56 1541.29 2158.43Z" fill="white"/>
<path d="M1162.93 2024.09C1162.93 2020.96 1165.46 2018.43 1168.58 2018.43C1171.7 2018.43 1174.23 2020.96 1174.23 2024.09C1174.23 2027.21 1171.7 2029.74 1168.58 2029.74C1165.46 2029.74 1162.93 2027.21 1162.93 2024.09Z" fill="white"/>
<path d="M1819.85 2094.94C1819.85 2091.81 1822.38 2089.28 1825.51 2089.28C1828.63 2089.28 1831.16 2091.81 1831.16 2094.94C1831.16 2098.06 1828.63 2100.59 1825.51 2100.59C1822.38 2100.59 1819.85 2098.06 1819.85 2094.94Z" fill="white"/>
<path d="M-565.77 2181.6C-565.77 2178.48 -563.238 2175.95 -560.116 2175.95C-556.994 2175.95 -554.462 2178.48 -554.462 2181.6C-554.462 2184.72 -556.994 2187.25 -560.116 2187.25C-563.238 2187.25 -565.77 2184.72 -565.77 2181.6Z" fill="white"/>
<path d="M108.722 2152.78C108.722 2149.66 111.253 2147.13 114.375 2147.13C117.498 2147.13 120.029 2149.66 120.029 2152.78C120.029 2155.9 117.498 2158.43 114.375 2158.43C111.253 2158.43 108.722 2155.9 108.722 2152.78Z" fill="white"/>
<path d="M-29.5767 1951.28C-29.5767 1945.29 -34.4382 1940.43 -40.4353 1940.43C-46.4324 1940.43 -51.2939 1945.29 -51.2939 1951.28C-51.2939 1957.28 -46.4324 1962.14 -40.4353 1962.14C-34.4382 1962.14 -29.5767 1957.28 -29.5767 1951.28Z" fill="white"/>
<path d="M1830.21 1758.48C1830.21 1752.49 1825.34 1747.63 1819.35 1747.63C1813.35 1747.63 1808.49 1752.49 1808.49 1758.48C1808.49 1764.48 1813.35 1769.34 1819.35 1769.34C1825.34 1769.34 1830.21 1764.48 1830.21 1758.48Z" fill="white"/>
<path d="M-703.845 1678.89C-703.845 1672.9 -708.707 1668.03 -714.704 1668.03C-720.701 1668.03 -725.562 1672.9 -725.562 1678.89C-725.562 1684.89 -720.701 1689.75 -714.704 1689.75C-708.707 1689.75 -703.845 1684.89 -703.845 1678.89Z" fill="white"/>
<path d="M147.4 1608.15C147.4 1602.15 142.538 1597.29 136.541 1597.29C130.544 1597.29 125.683 1602.15 125.683 1608.15C125.683 1614.14 130.544 1619.01 136.541 1619.01C142.538 1619.01 147.4 1614.14 147.4 1608.15Z" fill="white"/>
<path d="M978.94 1292.35C978.94 1286.36 974.078 1281.5 968.081 1281.5C962.084 1281.5 957.223 1286.36 957.223 1292.35C957.223 1298.35 962.084 1303.21 968.081 1303.21C974.078 1303.21 978.94 1298.35 978.94 1292.35Z" fill="white"/>
<path d="M479.517 1465.33C479.517 1459.34 474.655 1454.47 468.658 1454.47C462.661 1454.47 457.799 1459.34 457.799 1465.33C457.799 1471.33 462.661 1476.19 468.658 1476.19C474.655 1476.19 479.517 1471.33 479.517 1465.33Z" fill="white"/>
<path d="M2035.22 1409.04C2035.22 1403.04 2030.36 1398.18 2024.36 1398.18C2018.36 1398.18 2013.5 1403.04 2013.5 1409.04C2013.5 1415.04 2018.36 1419.9 2024.36 1419.9C2030.36 1419.9 2035.22 1415.04 2035.22 1409.04Z" fill="white"/>
<path d="M-89.1428 1394.4C-89.1428 1388.4 -94.0044 1383.54 -100.001 1383.54C-105.999 1383.54 -110.86 1388.4 -110.86 1394.4C-110.86 1400.4 -105.999 1405.26 -100.001 1405.26C-94.0044 1405.26 -89.1428 1400.4 -89.1428 1394.4Z" fill="white"/>
<path d="M-703.845 1228.28C-703.845 1222.28 -708.707 1217.42 -714.704 1217.42C-720.701 1217.42 -725.562 1222.28 -725.562 1228.28C-725.562 1234.28 -720.701 1239.14 -714.704 1239.14C-708.707 1239.14 -703.845 1234.28 -703.845 1228.28Z" fill="white"/>
<path d="M936.624 1574.83C936.624 1571.71 934.093 1569.18 930.97 1569.18C927.848 1569.18 925.317 1571.71 925.317 1574.83C925.317 1577.95 927.848 1580.49 930.97 1580.49C934.093 1580.49 936.624 1577.95 936.624 1574.83Z" fill="white"/>
<path d="M1419.45 1802.02C1419.45 1798.9 1416.92 1796.37 1413.8 1796.37C1410.67 1796.37 1408.14 1798.9 1408.14 1802.02C1408.14 1805.14 1410.67 1807.67 1413.8 1807.67C1416.92 1807.67 1419.45 1805.14 1419.45 1802.02Z" fill="white"/>
<path d="M448.404 1704.46C448.404 1701.33 445.873 1698.8 442.75 1698.8C439.628 1698.8 437.097 1701.33 437.097 1704.46C437.097 1707.58 439.628 1710.11 442.75 1710.11C445.873 1710.11 448.404 1707.58 448.404 1704.46Z" fill="white"/>
<path d="M667.288 1610.54C667.288 1607.42 664.756 1604.88 661.634 1604.88C658.512 1604.88 655.98 1607.42 655.98 1610.54C655.98 1613.66 658.512 1616.19 661.634 1616.19C664.756 1616.19 667.288 1613.66 667.288 1610.54Z" fill="white"/>
<path d="M1041.41 1774.65C1041.41 1771.53 1038.88 1769 1035.76 1769C1032.63 1769 1030.1 1771.53 1030.1 1774.65C1030.1 1777.77 1032.63 1780.3 1035.76 1780.3C1038.88 1780.3 1041.41 1777.77 1041.41 1774.65Z" fill="white"/>
<path d="M1114.53 1442.63C1114.53 1439.51 1112 1436.97 1108.88 1436.97C1105.75 1436.97 1103.22 1439.51 1103.22 1442.63C1103.22 1445.75 1105.75 1448.28 1108.88 1448.28C1112 1448.28 1114.53 1445.75 1114.53 1442.63Z" fill="white"/>
<path d="M131.336 1774.65C131.336 1771.53 128.805 1769 125.683 1769C122.56 1769 120.029 1771.53 120.029 1774.65C120.029 1777.77 122.56 1780.3 125.683 1780.3C128.805 1780.3 131.336 1777.77 131.336 1774.65Z" fill="white"/>
<path d="M-167.929 1616.19C-167.929 1613.07 -170.46 1610.54 -173.583 1610.54C-176.705 1610.54 -179.236 1613.07 -179.236 1616.19C-179.236 1619.31 -176.705 1621.85 -173.583 1621.85C-170.46 1621.85 -167.929 1619.31 -167.929 1616.19Z" fill="white"/>
<path d="M210.433 1481.84C210.433 1478.72 207.902 1476.19 204.78 1476.19C201.657 1476.19 199.126 1478.72 199.126 1481.84C199.126 1484.97 201.657 1487.5 204.78 1487.5C207.902 1487.5 210.433 1484.97 210.433 1481.84Z" fill="white"/>
<path d="M-342.455 1774.65C-342.455 1771.53 -344.987 1769 -348.109 1769C-351.231 1769 -353.762 1771.53 -353.762 1774.65C-353.762 1777.77 -351.231 1780.3 -348.109 1780.3C-344.987 1780.3 -342.455 1777.77 -342.455 1774.65Z" fill="white"/>
<path d="M1939.13 1639.36C1939.13 1636.24 1936.6 1633.7 1933.48 1633.7C1930.35 1633.7 1927.82 1636.24 1927.82 1639.36C1927.82 1642.48 1930.35 1645.01 1933.48 1645.01C1936.6 1645.01 1939.13 1642.48 1939.13 1639.36Z" fill="white"/>
<path d="M1275.33 1303.22C1275.33 1300.09 1272.8 1297.56 1269.68 1297.56C1266.56 1297.56 1264.02 1300.09 1264.02 1303.22C1264.02 1306.34 1266.56 1308.87 1269.68 1308.87C1272.8 1308.87 1275.33 1306.34 1275.33 1303.22Z" fill="white"/>
<path d="M415.025 -161.799C415.025 -155.802 410.164 -150.94 404.167 -150.94C398.17 -150.94 393.308 -155.802 393.308 -161.799C393.308 -167.796 398.17 -172.657 404.167 -172.657C410.164 -172.657 415.025 -167.796 415.025 -161.799Z" fill="white"/>
</g>
<path d="M1523.76 1139.38C1679.54 1139.38 1809.16 1229.52 1836.55 1348.54C1919.31 1390.98 1975.94 1477.16 1975.94 1576.56C1975.94 1632.61 1957.94 1684.45 1927.4 1726.62H639.232C638.027 1718.75 637.406 1710.73 637.406 1702.61C637.406 1592.11 752.068 1502.53 893.509 1502.53C916.978 1502.53 939.71 1504.99 961.303 1509.61C956.229 1493.9 953.533 1477.45 953.533 1460.51C953.533 1350.01 1068.19 1260.43 1209.64 1260.43C1223.86 1260.43 1237.81 1261.34 1251.4 1263.08C1307.13 1188.94 1408.26 1139.38 1523.76 1139.38Z" fill="#64284A" fill-opacity="0.69"/>
<circle cx="18.1459" cy="1929.15" r="275.146" fill="#B77691"/>
<path d="M-8.5 2060.5L342.087 1718.76L685.121 1990.58L1175.83 1479.93L1440 1824.39V2718.86L-36 2726.5L-8.5 2060.5Z" fill="#461A40"/>
<path d="M0 2150.51L187.262 2477.33L509.839 2218.42L866.372 2477.33L1171.97 1968L1440 2150.51V3044.98H0V2150.51Z" fill="#511F4A"/>
<path d="M1399.2 562.704C1491.51 562.704 1566.34 632.937 1566.34 719.573C1566.34 734.496 1564.12 748.933 1559.98 762.608H812.423C812.319 760.492 812.265 758.363 812.265 756.222C812.265 685.84 869.322 628.784 939.704 628.784C984.219 628.784 1023.4 651.608 1046.19 686.193C1070.59 675.512 1099.6 669.319 1130.72 669.319C1170.26 669.319 1206.38 679.313 1233.97 695.803C1246.17 620.447 1315.5 562.705 1399.2 562.704Z" fill="#64284A" fill-opacity="0.58"/>
<path d="M270.938 1086C363.247 1086 438.079 1156.23 438.079 1242.87C438.079 1257.79 435.858 1272.23 431.71 1285.9H-315.842C-315.946 1283.79 -316 1281.66 -316 1279.52C-316 1209.14 -258.944 1152.08 -188.562 1152.08C-144.046 1152.08 -104.862 1174.9 -82.0723 1209.49C-57.6774 1198.81 -28.6686 1192.61 2.45703 1192.61C41.9937 1192.61 78.1137 1202.61 105.702 1219.1C117.907 1143.74 187.238 1086 270.938 1086Z" fill="#64284A" fill-opacity="0.68"/>
<path d="M992.794 77.4647C1063.32 77.4649 1123.16 118.232 1144.34 174.787C1171.17 161.09 1203 153.158 1237.13 153.158C1332.97 153.158 1410.66 215.703 1410.66 292.857C1410.66 296.414 1410.49 299.94 1410.17 303.43H863.341C844.292 279.969 833.06 251.128 833.06 219.945C833.06 141.255 904.576 77.4647 992.794 77.4647Z" fill="#4F1E4A"/>
<g filter="url(#filter0_i_1_258)">
<rect x="1149.98" y="949.243" width="488.053" height="1984.43" fill="#513760"/>
</g>
<path d="M1111.54 949.243H1448.73V996.311H1149.71L1111.54 949.243Z" fill="#8E739E"/>
<path d="M1387.33 586.874H1492.67V689.969H1387.33V586.874Z" fill="#8E739E"/>
<path d="M1111.54 924.913H1448.73V949.243H1111.54V924.913Z" fill="#8E739E"/>
<path d="M1410.66 662.656C1554.63 662.656 1671.34 779.365 1671.34 923.333C1671.34 923.86 1671.33 924.387 1671.33 924.913H1149.99C1149.99 924.387 1149.98 923.86 1149.98 923.333C1149.98 779.365 1266.69 662.656 1410.66 662.656Z" fill="#513760"/>
<rect x="1175" y="1274" width="105.476" height="24" fill="#2A1B32"/>
<path d="M1197.54 1202.36V1274H1256.32V1202.36L1226.93 1145L1197.54 1202.36Z" fill="black" stroke="#2A1B32" stroke-width="7"/>
<rect x="1175" y="1727.19" width="105.476" height="24" fill="#2A1B32"/>
<path d="M1197.54 1655.55V1727.19H1256.32V1655.55L1226.93 1598.19L1197.54 1655.55Z" fill="black" stroke="#2A1B32" stroke-width="7"/>
<rect x="1175" y="2180.37" width="105.476" height="24" fill="#2A1B32"/>
<path d="M1197.54 2108.73V2180.37H1256.32V2108.73L1226.93 2051.37L1197.54 2108.73Z" fill="black" stroke="#2A1B32" stroke-width="7"/>
<path d="M1187.5 2579.7C1187.5 2579.7 1198.73 2505.73 1227.74 2505.73C1256.75 2505.73 1267.98 2579.7 1267.98 2579.7V2833.44H1187.5V2579.7Z" fill="black"/>
<path d="M119.703 327.6C58.8537 327.6 6.77023 361.905 -14.6802 410.514C-27.0232 405.106 -40.7262 402.096 -55.1548 402.096C-105.83 402.096 -147.547 439.234 -152.872 486.939H428.429C415.157 464.035 368.129 447.103 312.151 447.103C295.127 447.103 278.93 448.669 264.259 451.492C259.442 382.331 196.563 327.6 119.703 327.6Z" fill="#4F1E4A"/>
<path d="M-338.261 3174.78C-338.261 3174.78 -675.33 2659.4 748.684 2659.4C2172.7 2659.4 1835.63 3174.78 1835.63 3174.78H-338.261Z" fill="#3B6766"/>
<path d="M-5.31157 2771.46L176.905 2760.8C176.905 2760.8 268.154 2780.33 263.795 2809.75C259.883 2836.17 236.718 2846.55 212.167 2857.04C181.976 2869.95 130.008 2874.9 130.008 2874.9L4.63068 2870.94L-29.4758 2818.48L-5.31157 2771.46Z" fill="#2C5D5C"/>
<g filter="url(#filter1_i_1_258)">
<path d="M-11.0657 2323.48H87.1205L77.5746 2557.03L87.1205 2787.82H-11.0657L2.57129 2483.79L-11.0657 2323.48Z" fill="#5C3F35"/>
</g>
<path d="M66.8455 2734.64L130.428 2781.83L148.487 2800.09L54.3917 2781.83L66.8455 2734.64Z" fill="#5C3F35"/>
<path d="M30.9788 2732.77L62.2813 2807.61L61.1584 2833.44L10.234 2752.29L30.9788 2732.77Z" fill="#5C3F35"/>
<path d="M-6.45728 2748.55L-42.2478 2791.55L-48.1891 2811.37L-3.91251 2784.91L-6.45728 2748.55Z" fill="#342F91"/>
<path d="M214.958 2327.02C266.249 2366.77 298.851 2421.86 259.103 2473.15C219.356 2524.44 145.555 2533.8 94.2634 2494.05C42.9722 2454.31 33.6141 2380.51 73.3615 2329.21C113.109 2277.92 163.667 2287.28 214.958 2327.02Z" fill="#2C5D5C"/>
<path d="M-100.379 2186.71C-41.475 2159.49 22.4397 2155.92 49.6613 2214.82C76.8828 2273.73 51.1995 2343.55 -7.70413 2370.77C-66.6077 2397.99 -136.426 2372.31 -163.647 2313.4C-190.869 2254.5 -159.282 2213.93 -100.379 2186.71Z" fill="#2C5D5C"/>
<path d="M-7.41582 2338.04C51.4878 2310.82 115.403 2307.26 142.624 2366.16C169.846 2425.06 144.162 2494.88 85.2586 2522.1C26.355 2549.32 -43.4632 2523.64 -70.6847 2464.74C-97.9063 2405.83 -66.3194 2365.26 -7.41582 2338.04Z" fill="#2C5D5C"/>
<path d="M215.989 2403.5C215.989 2468.46 192.34 2528.04 127.248 2528.04C62.1567 2528.04 9.3894 2475.38 9.3894 2410.42C9.3894 2345.46 62.1567 2292.8 127.248 2292.8C192.34 2292.8 215.989 2338.54 215.989 2403.5Z" fill="#3B6766"/>
<path d="M103.484 2241.9C103.484 2306.86 79.8353 2366.44 14.7435 2366.44C-50.3483 2366.44 -103.116 2313.78 -103.116 2248.82C-103.116 2183.86 -50.3483 2131.2 14.7435 2131.2C79.8353 2131.2 103.484 2176.94 103.484 2241.9Z" fill="#2C5D5C"/>
<path d="M19.6171 2361.63C19.6171 2426.02 -4.03206 2485.08 -69.1238 2485.08C-134.216 2485.08 -186.983 2432.88 -186.983 2368.48C-186.983 2304.09 -134.216 2251.89 -69.1238 2251.89C-4.03206 2251.89 19.6171 2297.23 19.6171 2361.63Z" fill="#2C5D5C"/>
<path d="M110.631 2222.53C169.535 2195.31 233.45 2191.74 260.671 2250.65C287.893 2309.55 262.209 2379.37 203.306 2406.59C144.402 2433.81 74.5838 2408.13 47.3623 2349.22C20.1407 2290.32 51.7276 2249.75 110.631 2222.53Z" fill="#2C5D5C"/>
<path d="M213.945 2286.9C213.945 2351.86 190.295 2411.44 125.204 2411.44C60.1118 2411.44 7.34448 2358.78 7.34448 2293.82C7.34448 2228.86 60.1118 2176.2 125.204 2176.2C190.295 2176.2 213.945 2221.94 213.945 2286.9Z" fill="#2C5D5C"/>
<path d="M239.257 2266.25C277.476 2318.69 293.476 2380.67 241.036 2418.89C188.595 2457.11 115.102 2445.58 76.8832 2393.14C38.6647 2340.7 50.1938 2267.2 102.634 2228.98C155.075 2190.77 201.039 2213.81 239.257 2266.25Z" fill="#3B6766"/>
<path d="M97.6588 2298.8C148.95 2338.55 181.552 2393.64 141.804 2444.93C102.057 2496.22 28.2556 2505.58 -23.0356 2465.83C-74.3269 2426.08 -83.685 2352.28 -43.9376 2300.99C-4.19019 2249.7 46.3676 2259.05 97.6588 2298.8Z" fill="#2C5D5C"/>
<path d="M2.91426 2220.13C61.8179 2192.91 125.733 2189.34 152.954 2248.25C180.176 2307.15 154.492 2376.97 95.5887 2404.19C36.6851 2431.41 -33.1331 2405.73 -60.3546 2346.83C-87.5762 2287.92 -55.9893 2247.35 2.91426 2220.13Z" fill="#2C5D5C"/>
<path d="M121.21 2246.87C159.428 2299.31 175.428 2361.29 122.988 2399.51C70.5476 2437.73 -2.94596 2426.2 -41.1644 2373.76C-79.3829 2321.32 -67.8538 2247.83 -15.4134 2209.61C37.0269 2171.39 82.9912 2194.43 121.21 2246.87Z" fill="#3B6766"/>
<path d="M-7.0756 2277.39C26.3158 2306.15 41.5559 2350.39 -0.79112 2399.56C-43.1381 2448.72 -104.536 2465.27 -137.928 2436.51C-171.319 2407.75 -164.059 2344.57 -121.712 2295.41C-79.3652 2246.24 -40.467 2248.63 -7.0756 2277.39Z" fill="#2C5D5C"/>
<path d="M31.4211 2261.44C64.8125 2290.2 80.0526 2334.44 37.7056 2383.61C-4.64142 2432.78 -66.0395 2449.32 -99.431 2420.56C-132.822 2391.8 -125.562 2328.63 -83.2154 2279.46C-40.8684 2230.29 -1.97031 2232.68 31.4211 2261.44Z" fill="#2C5D5C"/>
<path d="M11.2661 2249.16C39.5052 2287.91 13.9584 2340.69 -24.7891 2368.93C-63.5366 2397.16 -117.84 2388.65 -146.079 2349.9C-174.318 2311.15 -165.799 2256.85 -127.052 2228.61C-88.3045 2200.37 -16.973 2210.42 11.2661 2249.16Z" fill="#3B6766"/>
<path d="M28.0648 2449.67C10.3775 2501.98 -44.0308 2530.84 -93.4594 2514.13C-142.888 2497.42 -156.98 2476.44 -139.293 2424.13C-121.606 2371.82 -78.8366 2307.98 -29.408 2324.69C20.0207 2341.4 45.7521 2397.36 28.0648 2449.67Z" fill="#3B6766"/>
<path d="M76.8928 2537.84L131.126 2527.83L152.641 2524.55L76.8928 2566.9V2537.84Z" fill="#5C3F35"/>
<g filter="url(#filter2_d_1_258)">
<path d="M165.603 2739.55L139.256 2756.92L159.818 2788.1C159.818 2788.1 168.419 2792.44 175.364 2789.03C183.919 2784.83 184.965 2778.94 186.164 2770.73C188.271 2756.3 165.603 2739.55 165.603 2739.55Z" fill="#A3A3A3"/>
<path d="M82.5925 2703.2C94.3834 2701.6 116.548 2711.29 116.548 2711.29L126.957 2709.87C126.957 2709.87 131.777 2696.51 139.058 2695.51C154.551 2693.4 167.744 2727.29 170.763 2749.46C173.783 2771.64 178.95 2806.61 156.68 2809.64C137.856 2812.21 128.603 2813.47 109.597 2816.05C90.5912 2818.64 76.7138 2803.45 76.7138 2803.45C76.7138 2803.45 73.3726 2799.07 71.4573 2796.12C53.6808 2768.69 70.8016 2704.81 82.5925 2703.2Z" fill="#D9D9D9"/>
<path d="M64.7194 2752.1L94.7508 2761.8L83.277 2797.34C83.277 2797.34 76.1494 2803.83 68.5448 2802.4C59.1785 2800.63 55.4104 2795.66 53.2456 2787.65C49.4284 2773.52 64.7194 2752.1 64.7194 2752.1Z" fill="#D9D9D9"/>
<path d="M82.4901 2790.64C82.4901 2790.64 116.702 2778.21 126.302 2789.62C135.903 2801.02 130.886 2815.86 128.904 2820.19C126.923 2824.52 100.952 2834.32 86.8969 2823C75.8434 2814.1 71.9338 2789.26 71.9338 2789.26L82.4901 2790.64Z" fill="#D9D9D9"/>
<line x1="103.475" y1="2746.73" x2="121.575" y2="2744.26" stroke="#2D2693" stroke-width="4.55149" stroke-linecap="round"/>
<line x1="141.458" y1="2741.55" x2="153.185" y2="2739.96" stroke="#2D2693" stroke-width="4.55149" stroke-linecap="round"/>
<circle cx="135.316" cy="2759.05" r="3.50039" transform="rotate(-7.75448 135.316 2759.05)" fill="#2D2693"/>
<circle cx="113.294" cy="2807.14" r="20.0778" transform="rotate(-7.75448 113.294 2807.14)" fill="#CFCFCF"/>
<path d="M143.175 2784.61C152.909 2771.96 169.798 2771.69 182.372 2782.69C194.947 2793.7 188.358 2805.74 184.365 2810.53C180.372 2815.33 158.975 2824.92 145.217 2813.57C134.397 2804.63 135.053 2795.17 143.175 2784.61Z" fill="#D9D9D9"/>
<circle cx="169.369" cy="2797.88" r="20.0778" transform="rotate(-7.75448 169.369 2797.88)" fill="#CFCFCF"/>
</g>
<path d="M1187.28 2679.65L1267.98 2688.98C1267.98 2688.98 1159.87 2729.27 1163.98 2784.18C1167.83 2835.71 1267.98 2866 1267.98 2866H1127C1127 2866 1049.62 2848.58 1042.89 2784.18C1035.7 2715.34 1187.28 2679.65 1187.28 2679.65Z" fill="#5C3F35"/>
<path d="M485.407 2687.03C525.968 2687.03 559.726 2707.25 566.924 2733.97C572.556 2733.4 578.431 2733.11 584.47 2733.11C616.891 2733.11 644.571 2741.72 655.502 2753.84L403.529 2753.84C402.834 2750.84 402.471 2747.76 402.471 2744.63C402.471 2712.82 439.603 2687.03 485.407 2687.03Z" fill="#2C5D5C"/>
<path d="M938.899 2762.6C906.869 2762.6 880.211 2778.57 874.529 2799.67C870.081 2799.22 865.442 2798.98 860.674 2798.98C835.074 2798.98 813.219 2805.78 804.587 2815.36L1003.55 2815.36C1004.1 2812.99 1004.39 2810.56 1004.39 2808.08C1004.39 2782.96 975.068 2762.6 938.899 2762.6Z" fill="#2C5D5C"/>
</g>
<defs>
<filter id="filter0_i_1_258" x="1149.98" y="949.243" width="488.053" height="1984.43" filterUnits="userSpaceOnUse" color-interpolation-filters="sRGB">
<feFlood flood-opacity="0" result="BackgroundImageFix"/>
<feBlend mode="normal" in="SourceGraphic" in2="BackgroundImageFix" result="shape"/>
<feColorMatrix in="SourceAlpha" type="matrix" values="0 0 0 0 0 0 0 0 0 0 0 0 0 0 0 0 0 0 127 0" result="hardAlpha"/>
<feOffset dx="160"/>
<feComposite in2="hardAlpha" operator="arithmetic" k2="-1" k3="1"/>
<feColorMatrix type="matrix" values="0 0 0 0 0 0 0 0 0 0 0 0 0 0 0 0 0 0 0.25 0"/>
<feBlend mode="normal" in2="shape" result="effect1_innerShadow_1_258"/>
</filter>
<filter id="filter1_i_1_258" x="-11.0657" y="2323.48" width="98.1862" height="464.339" filterUnits="userSpaceOnUse" color-interpolation-filters="sRGB">
<feFlood flood-opacity="0" result="BackgroundImageFix"/>
<feBlend mode="normal" in="SourceGraphic" in2="BackgroundImageFix" result="shape"/>
<feColorMatrix in="SourceAlpha" type="matrix" values="0 0 0 0 0 0 0 0 0 0 0 0 0 0 0 0 0 0 127 0" result="hardAlpha"/>
<feOffset dx="19" dy="4"/>
<feComposite in2="hardAlpha" operator="arithmetic" k2="-1" k3="1"/>
<feColorMatrix type="matrix" values="0 0 0 0 0 0 0 0 0 0 0 0 0 0 0 0 0 0 0.25 0"/>
<feBlend mode="normal" in2="shape" result="effect1_innerShadow_1_258"/>
</filter>
<filter id="filter2_d_1_258" x="48.6337" y="2695.42" width="145.061" height="149.846" filterUnits="userSpaceOnUse" color-interpolation-filters="sRGB">
<feFlood flood-opacity="0" result="BackgroundImageFix"/>
<feColorMatrix in="SourceAlpha" type="matrix" values="0 0 0 0 0 0 0 0 0 0 0 0 0 0 0 0 0 0 127 0" result="hardAlpha"/>
<feOffset dy="13"/>
<feGaussianBlur stdDeviation="2"/>
<feComposite in2="hardAlpha" operator="out"/>
<feColorMatrix type="matrix" values="0 0 0 0 0 0 0 0 0 0 0 0 0 0 0 0 0 0 0.25 0"/>
<feBlend mode="normal" in2="BackgroundImageFix" result="effect1_dropShadow_1_258"/>
<feBlend mode="normal" in="SourceGraphic" in2="effect1_dropShadow_1_258" result="shape"/>
</filter>
<linearGradient id="paint0_linear_1_258" x1="720" y1="3.74062e-06" x2="969.484" y2="4053.51" gradientUnits="userSpaceOnUse">
<stop stop-color="#3D164B"/>
<stop offset="1" stop-color="#773049"/>
</linearGradient>
<clipPath id="clip0_1_258">
<rect width="1440" height="2866" fill="white"/>
</clipPath>
</defs>
</svg>
