<svg width="514" height="329" viewBox="0 0 514 329" fill="none" xmlns="http://www.w3.org/2000/svg">
<path d="M37.1542 90.2222H197.514C197.514 90.2222 150.065 125.562 115.998 126.57C79.8838 127.639 37.1542 90.2222 37.1542 90.2222Z" fill="#560E44"/>
<path d="M163.573 222.962H86.8674C80.9577 222.962 76.9777 222.54 74.9274 221.696C72.8771 220.852 71.852 219.525 71.852 217.716V103.2C71.852 100.065 73.2389 97.8335 76.0129 96.5068C78.9074 95.1802 84.0332 94.5168 91.3902 94.5168H164.116C166.648 94.5168 167.915 98.738 167.915 107.18C167.915 115.502 167.372 121.894 166.287 126.357C165.201 130.699 163.754 132.87 161.945 132.87C154.105 132.87 140.899 132.086 122.326 130.518V142.639C140.175 141.915 151.814 141.553 157.241 141.553C160.498 141.553 162.126 145.352 162.126 152.951C162.126 160.549 161.462 166.338 160.136 170.318C158.93 174.177 157.241 176.107 155.07 176.107L122.326 175.383V186.962C143.311 185.394 157.784 184.61 165.744 184.61C168.277 184.61 169.543 188.831 169.543 197.273C169.543 205.716 169 212.108 167.915 216.45C166.829 220.792 165.382 222.962 163.573 222.962ZM365.972 224.41C361.872 224.41 358.073 223.988 354.575 223.143C351.078 222.299 347.399 220.55 343.54 217.897C339.801 215.123 336.605 211.505 333.951 207.042C327.921 196.912 324.906 181.655 324.906 161.272C324.906 150.056 326.414 140.166 329.429 131.603C332.444 123.04 336.243 116.407 340.826 111.703C345.409 106.879 350.897 102.959 357.289 99.9441C363.681 96.929 369.651 94.9993 375.199 94.155C380.747 93.1902 386.656 92.7077 392.928 92.7077C407.401 92.7077 417.592 93.9741 423.502 96.5068C429.411 98.919 432.366 103.623 432.366 110.618C432.366 116.166 431.341 122.196 429.291 128.709C427.24 135.101 424.225 138.297 420.245 138.297C419.28 138.297 415.18 137.392 407.943 135.583C400.707 133.654 395.28 132.689 391.662 132.689C381.289 132.689 376.103 141.433 376.103 158.921C376.103 167.725 377.309 174.298 379.721 178.64C382.134 182.861 385.149 185.213 388.767 185.695V169.413C388.767 166.398 391.842 163.624 397.993 161.091C404.144 158.559 410.054 157.292 415.722 157.292C421.391 157.292 425.492 157.654 428.024 158.378C430.678 159.101 432.487 160.127 433.452 161.453C435.14 163.624 435.984 165.554 435.984 167.242V217.354C435.984 218.922 432.788 220.189 426.396 221.153C420.125 222.118 413.552 222.601 406.677 222.601C399.923 222.601 395.642 222.299 393.832 221.696C392.023 220.972 390.998 219.103 390.757 216.088L389.491 205.414H388.043C387.199 210.6 385.028 215.063 381.531 218.802C378.154 222.54 372.968 224.41 365.972 224.41Z" fill="#B1E6E3"/>
<circle cx="246.034" cy="157.987" r="64.0793" fill="#C7EAE8" stroke="#B1E6E3" stroke-width="10"/>
<path d="M291.209 76.9695C295.574 79.5647 300.367 83.6097 303.934 86.8446C305.749 88.4908 307.308 89.9834 308.414 91.066C308.967 91.6081 309.41 92.0492 309.716 92.357C309.869 92.5108 309.987 92.632 310.069 92.7156C310.11 92.7572 310.142 92.7895 310.165 92.8123C310.176 92.8236 310.184 92.8332 310.191 92.8397C310.194 92.8429 310.197 92.8456 310.199 92.8476C310.199 92.8483 310.2 92.8485 310.201 92.849L310.202 92.8508C310.2 92.8534 310.135 92.9173 308.254 94.7456L310.203 92.8513L312.549 95.2655L310.896 98.1983L305.889 107.078L303.675 111.005L299.752 108.784L297.41 107.457L285.271 128.371L283.017 132.254L246.988 111.453L249.252 107.552L261.528 86.4029L260.254 85.5319L256.804 83.1748L258.9 79.5594L264.309 70.2268L266.083 67.1656L269.476 68.1673L268.202 72.4835C269.476 68.1675 269.477 68.1677 269.477 68.1678L269.478 68.1683C269.479 68.1685 269.48 68.1686 269.481 68.1689C269.484 68.1696 269.487 68.1701 269.491 68.1713C269.499 68.1737 269.511 68.1778 269.525 68.1821C269.554 68.1907 269.595 68.2033 269.648 68.2192C269.755 68.2511 269.908 68.2971 270.104 68.3573C270.497 68.4777 271.061 68.6534 271.759 68.8775C273.154 69.3251 275.092 69.9695 277.274 70.7577C281.561 72.3066 287.075 74.512 291.209 76.9695Z" fill="#C7EAE8" stroke="#B1E6E3" stroke-width="9"/>
<mask id="mask0_1_192" style="mask-type:alpha" maskUnits="userSpaceOnUse" x="186" y="98" width="120" height="120">
<circle cx="246.034" cy="157.987" r="59.0793" fill="#8FCFCC"/>
</mask>
<g mask="url(#mask0_1_192)">
<circle cx="246.034" cy="157.987" r="59.0793" fill="#C7EAE8"/>
<path d="M179.96 152.748C179.96 152.748 194.652 145.158 247.767 151.714C300.882 158.271 314.053 169.531 314.053 169.531L308.415 214.575L174.323 197.793L179.96 152.748Z" fill="#BF61A7"/>
<path d="M171.778 145.807C171.778 145.807 211.661 165.953 241.161 170.375C275.497 175.522 330.739 163.211 330.739 163.211V257.987H178.307L171.778 145.807Z" fill="#80346D"/>
<path d="M195.11 190.136C195.11 190.136 221.95 211.967 252.806 208.132C283.663 204.298 306.344 167.89 306.344 167.89L294.89 229.748L212.181 238.23L195.11 190.136Z" fill="#560E44"/>
</g>
<path d="M275.251 71.3822L305.114 88.0201C305.114 88.0201 299.181 98.2529 297.218 99.1045C295.254 99.9562 287.444 98.8442 281.03 94.899C275.307 91.3791 270.948 85.6691 269.732 83.4711C268.515 81.2731 275.251 71.3822 275.251 71.3822Z" fill="#AC7E7E"/>
<path d="M279.058 64.2236L308.921 80.8615L301.919 93.4306C301.919 93.4306 291.639 90.6903 285.643 87.3337C279.708 84.0115 272.415 76.1463 272.415 76.1463L279.058 64.2236Z" fill="#8B5454"/>
<ellipse cx="294.18" cy="72.2" rx="17.0926" ry="5.42169" transform="rotate(29.1239 294.18 72.2)" fill="#C57878"/>
<path d="M306.86 112.258C307.18 112.425 307.417 112.585 307.579 112.734C307.742 112.884 307.806 113.001 307.827 113.081C308.028 113.844 308.047 114.401 307.969 114.837C307.891 115.268 307.711 115.618 307.456 115.959C307.19 116.316 306.866 116.636 306.481 117.049C306.107 117.451 305.704 117.914 305.35 118.505C304.597 119.76 304.551 121.08 304.396 122.08C304.316 122.598 304.211 123.043 304.003 123.437C303.801 123.821 303.489 124.181 302.956 124.503C302.913 124.529 302.8 124.57 302.569 124.574C302.346 124.579 302.056 124.548 301.697 124.479C300.98 124.339 300.05 124.053 298.947 123.642C296.746 122.821 293.921 121.526 290.854 120.002C284.724 116.955 277.672 113.016 272.793 110.184C268.004 107.405 261.262 103.271 255.685 99.5038C252.894 97.6195 250.404 95.8333 248.599 94.3584C247.695 93.6202 246.974 92.9691 246.475 92.4296C246.225 92.1596 246.039 91.9268 245.915 91.7335C245.786 91.5322 245.749 91.4122 245.743 91.3603C245.623 90.2426 246.062 89.5066 246.75 88.7624C247.114 88.37 247.497 88.0251 247.929 87.5919C248.345 87.1757 248.768 86.7109 249.117 86.1577C249.927 84.8752 250.002 83.5792 250.159 82.6155C250.24 82.1182 250.34 81.7124 250.53 81.3659C250.713 81.0327 250.996 80.7273 251.492 80.4649C251.474 80.4743 251.51 80.4438 251.674 80.4925C251.834 80.5404 252.053 80.6472 252.335 80.8305C252.896 81.1958 253.612 81.8012 254.46 82.6054C256.153 84.2103 258.296 86.5252 260.672 89.0691C265.394 94.1245 271.046 100.097 275.712 102.868C280.858 105.923 288.818 107.754 295.508 109.22C298.875 109.957 301.919 110.602 304.179 111.264C305.31 111.596 306.218 111.924 306.86 112.258Z" fill="#80346D" stroke="#7C2D68"/>
<circle cx="200.818" cy="134.157" r="2.51566" transform="rotate(13.7314 200.818 134.157)" fill="white"/>
<path d="M204.13 128.656C204.13 128.656 206.879 116.751 220.375 109.941C233.872 103.132 245.164 108.354 245.164 108.354C245.164 108.354 230.272 109.728 221.931 113.942C213.806 118.047 204.13 128.656 204.13 128.656Z" fill="white"/>
<path d="M136.906 50.5121L150.192 83.4222L148.292 83.7494C173.281 86.1495 197.721 89.9293 197.777 89.9379C197.684 89.9694 144.089 108.102 114.475 107.915C85.6456 107.734 36.0126 89.9684 35.9272 89.9379C36.0243 89.9224 59.0047 86.2544 82.7603 83.8529L98.4897 64.2885L94.1147 38.9056L85.8755 40.3256L65.2983 56.1254L94.0884 22.6469L136.906 50.5121Z" fill="#80346D"/>
<path d="M437.78 139.621L442.157 141.166L444.621 134.189L449.192 135.803L446.729 142.78L450.958 144.274L415.128 232.064L411.6 230.818L437.78 139.621Z" fill="#8B5454"/>
<mask id="mask1_1_192" style="mask-type:alpha" maskUnits="userSpaceOnUse" x="437" y="109" width="25" height="36">
<path d="M460.989 131.296L443.588 143.42L437.658 123.058L455.177 110.6L460.989 131.296Z" fill="#FF6CAE" stroke="#FFBBDA"/>
</mask>
<g mask="url(#mask1_1_192)">
<path d="M455.466 109.782L461.566 131.504L443.303 144.229L437.079 122.857L455.466 109.782Z" fill="#FF6CAE"/>
<path d="M436.814 123.345L447.004 133.908L462.239 132.122L453.952 145.25L443.089 144.835L434.374 138.337L436.814 123.345Z" fill="#560E44"/>
<path d="M455.897 108.412L463.644 108.412L464.459 131.957L446.928 134.098L455.897 108.412Z" fill="#BA3D75"/>
<path d="M436.475 122.77L447.085 133.769L442.808 145.99L435.919 128.936L436.475 122.77Z" fill="#BE3874"/>
</g>
<path d="M40.4558 284.739C40.4558 285.155 39.4798 285.491 37.5278 285.747C35.5758 286.003 33.6238 286.131 31.6718 286.131C29.7198 286.131 28.4718 286.019 27.9278 285.795C27.3838 285.571 27.1118 285.219 27.1118 284.739V253.875C27.1118 252.339 31.7198 251.571 40.9358 251.571C46.5038 251.571 50.1838 251.955 51.9758 252.723C54.1518 253.619 55.6238 254.835 56.3918 256.371C57.4158 258.355 57.9278 260.899 57.9278 264.003C57.9278 268.259 57.1918 271.347 55.7198 273.267C54.6638 274.675 53.6078 275.587 52.5518 276.003C51.4958 276.419 50.6158 276.723 49.9118 276.915C49.2398 277.075 48.3918 277.203 47.3678 277.299C45.9598 277.427 44.0398 277.491 41.6078 277.491L40.4558 277.443V284.739ZM40.5038 269.475H41.6558C42.2638 269.475 42.7438 269.395 43.0958 269.235C43.4478 269.043 43.7518 268.563 44.0078 267.795C44.2958 266.995 44.4398 265.891 44.4398 264.483C44.4398 263.043 44.2798 261.955 43.9598 261.219C43.6718 260.451 43.3678 260.003 43.0478 259.875C42.7598 259.715 42.4078 259.635 41.9918 259.635H40.5038V269.475ZM77.2733 286.563C74.6173 286.563 72.3293 286.323 70.4093 285.843C68.5213 285.331 66.7773 284.435 65.1773 283.155C61.9453 280.627 60.3293 275.779 60.3293 268.611C60.3293 265.603 60.7613 262.979 61.6253 260.739C62.5213 258.499 63.7533 256.723 65.3213 255.411C68.3933 252.851 72.3773 251.571 77.2733 251.571C79.8013 251.571 81.9933 251.795 83.8493 252.243C85.7373 252.691 87.5133 253.507 89.1773 254.691C92.5373 257.123 94.2173 261.763 94.2173 268.611C94.2173 274.755 92.6973 279.283 89.6573 282.195C86.6173 285.107 82.4893 286.563 77.2733 286.563ZM75.6893 278.355C76.0733 278.803 76.6013 279.027 77.2733 279.027C77.9453 279.027 78.4733 278.803 78.8573 278.355C79.2413 277.875 79.5613 276.883 79.8173 275.379C80.0733 273.843 80.2013 271.715 80.2013 268.995C80.2013 266.275 80.0733 264.179 79.8173 262.707C79.5613 261.235 79.2413 260.275 78.8573 259.827C78.4733 259.379 77.9453 259.155 77.2733 259.155C76.6013 259.155 76.0733 259.379 75.6893 259.827C75.3053 260.275 74.9853 261.235 74.7293 262.707C74.4733 264.179 74.3453 266.275 74.3453 268.995C74.3453 271.715 74.4733 273.843 74.7293 275.379C74.9853 276.883 75.3053 277.875 75.6893 278.355ZM118.787 284.739C118.787 285.155 117.811 285.491 115.859 285.747C113.907 286.003 111.955 286.131 110.003 286.131C108.083 286.131 106.835 286.035 106.259 285.843C105.683 285.619 105.395 285.251 105.395 284.739V276.387C99.0585 263.427 95.8905 256.387 95.8905 255.267C95.8905 254.595 96.9625 253.891 99.1065 253.155C101.251 252.419 103.507 252.051 105.875 252.051C108.915 252.051 110.531 252.947 110.723 254.739L112.019 267.651H112.547L113.459 255.075C113.523 254.179 114.659 253.459 116.867 252.915C119.075 252.339 121.171 252.051 123.155 252.051C125.139 252.051 126.515 252.339 127.283 252.915C128.051 253.491 128.435 254.099 128.435 254.739C128.435 255.347 125.219 262.563 118.787 276.387V284.739ZM147.07 286.563C144.414 286.563 142.126 286.323 140.206 285.843C138.318 285.331 136.574 284.435 134.974 283.155C131.742 280.627 130.126 275.779 130.126 268.611C130.126 265.603 130.558 262.979 131.422 260.739C132.318 258.499 133.55 256.723 135.118 255.411C138.19 252.851 142.174 251.571 147.07 251.571C149.598 251.571 151.79 251.795 153.646 252.243C155.534 252.691 157.31 253.507 158.974 254.691C162.334 257.123 164.014 261.763 164.014 268.611C164.014 274.755 162.494 279.283 159.454 282.195C156.414 285.107 152.286 286.563 147.07 286.563ZM145.486 278.355C145.87 278.803 146.398 279.027 147.07 279.027C147.742 279.027 148.27 278.803 148.654 278.355C149.038 277.875 149.358 276.883 149.614 275.379C149.87 273.843 149.998 271.715 149.998 268.995C149.998 266.275 149.87 264.179 149.614 262.707C149.358 261.235 149.038 260.275 148.654 259.827C148.27 259.379 147.742 259.155 147.07 259.155C146.398 259.155 145.87 259.379 145.486 259.827C145.102 260.275 144.782 261.235 144.526 262.707C144.27 264.179 144.142 266.275 144.142 268.995C144.142 271.715 144.27 273.843 144.526 275.379C144.782 276.883 145.102 277.875 145.486 278.355ZM170.007 265.155C169.079 265.155 168.407 264.403 167.991 262.899C167.575 261.299 167.335 259.699 167.271 258.099C167.175 255.731 167.127 253.443 167.127 251.235C167.127 249.539 169.719 248.691 174.903 248.691C175.799 248.691 176.359 249.267 176.583 250.419C176.807 251.571 176.919 253.555 176.919 256.371C176.919 262.227 174.615 265.155 170.007 265.155ZM204.731 284.115C203.771 284.819 202.427 285.411 200.699 285.891C199.003 286.339 196.795 286.563 194.075 286.563C191.387 286.563 188.827 286.339 186.395 285.891C183.963 285.443 182.219 284.947 181.163 284.403C180.107 283.859 179.579 283.331 179.579 282.819C179.579 281.027 179.835 279.171 180.347 277.251C180.859 275.299 181.467 274.323 182.171 274.323C182.299 274.323 183.627 274.755 186.155 275.619C188.683 276.483 190.587 276.915 191.867 276.915C193.147 276.915 193.979 276.787 194.363 276.531C194.747 276.243 194.939 275.843 194.939 275.331C194.939 274.819 194.587 274.371 193.883 273.987C193.179 273.571 192.299 273.219 191.243 272.931C190.187 272.611 189.035 272.163 187.787 271.587C186.571 271.011 185.435 270.371 184.379 269.667C183.323 268.963 182.443 267.971 181.739 266.691C181.035 265.379 180.683 263.891 180.683 262.227C180.683 255.123 184.923 251.571 193.403 251.571C196.571 251.571 199.307 251.779 201.611 252.195C203.915 252.579 205.531 253.027 206.459 253.539C207.419 254.019 207.899 254.499 207.899 254.979C207.899 256.643 207.499 258.435 206.699 260.355C205.931 262.275 205.179 263.235 204.443 263.235C204.315 263.235 203.899 263.091 203.195 262.803C201.083 261.875 199.323 261.411 197.915 261.411C196.539 261.411 195.595 261.539 195.083 261.795C194.603 262.051 194.363 262.451 194.363 262.995C194.363 263.507 194.715 263.939 195.419 264.291C196.123 264.611 196.987 264.915 198.011 265.203C199.067 265.459 200.203 265.875 201.419 266.451C202.667 266.995 203.819 267.651 204.875 268.419C205.931 269.155 206.811 270.211 207.515 271.587C208.219 272.963 208.571 274.563 208.571 276.387C208.571 278.307 208.075 280.051 207.083 281.619C206.475 282.579 205.691 283.411 204.731 284.115ZM237.031 286.131H226.519C224.919 286.131 223.847 286.019 223.303 285.795C222.759 285.571 222.487 285.219 222.487 284.739V253.875C222.487 252.339 227.111 251.571 236.359 251.571C241.671 251.571 245.335 252.083 247.351 253.107C249.399 254.163 250.711 255.507 251.287 257.139C251.607 258.099 251.767 259.219 251.767 260.499C251.767 262.995 251.335 264.867 250.471 266.115C249.639 267.363 248.727 268.067 247.735 268.227C249.239 268.547 250.487 269.283 251.479 270.435C252.471 271.587 252.967 273.539 252.967 276.291C252.967 279.491 251.991 281.859 250.039 283.395C248.343 284.739 245.751 285.587 242.263 285.939C240.791 286.067 239.047 286.131 237.031 286.131ZM237.079 265.203C238.711 265.203 239.527 264.115 239.527 261.939C239.527 260.851 239.303 260.051 238.855 259.539C238.439 258.995 237.959 258.723 237.415 258.723H235.879V265.203H237.079ZM235.879 278.979H237.079C238.711 278.979 239.527 277.891 239.527 275.715C239.527 274.627 239.303 273.827 238.855 273.315C238.439 272.771 237.959 272.499 237.415 272.499H235.879V278.979ZM269.771 284.739C269.771 285.155 268.795 285.491 266.843 285.747C264.891 286.003 262.923 286.131 260.939 286.131C258.987 286.131 257.723 286.019 257.147 285.795C256.603 285.571 256.331 285.219 256.331 284.739V253.875C256.331 253.043 257.371 252.451 259.451 252.099C261.563 251.747 264.219 251.571 267.419 251.571C270.619 251.571 272.683 251.587 273.611 251.619C274.571 251.619 275.691 251.667 276.971 251.763C278.251 251.859 279.259 252.019 279.995 252.243C280.763 252.467 281.595 252.755 282.491 253.107C283.419 253.459 284.139 253.923 284.651 254.499C285.163 255.043 285.659 255.699 286.139 256.467C287.003 257.843 287.435 259.811 287.435 262.371C287.435 264.899 287.003 267.043 286.139 268.803C285.307 270.531 284.187 271.843 282.779 272.739C286.459 278.531 288.299 282.211 288.299 283.779C288.299 285.347 285.147 286.131 278.843 286.131C277.019 286.131 275.755 286.051 275.051 285.891C274.347 285.731 273.899 285.379 273.707 284.835L270.587 274.947L269.771 274.899V284.739ZM269.771 267.507H271.019C272.875 267.507 273.803 266.067 273.803 263.187C273.803 261.715 273.547 260.675 273.035 260.067C272.555 259.459 271.995 259.155 271.355 259.155H269.771V267.507ZM315.026 286.131H294.674C293.106 286.131 292.05 286.019 291.506 285.795C290.962 285.571 290.69 285.219 290.69 284.739V254.355C290.69 253.523 291.058 252.931 291.794 252.579C292.562 252.227 293.922 252.051 295.874 252.051H315.17C315.842 252.051 316.178 253.171 316.178 255.411C316.178 257.619 316.034 259.315 315.746 260.499C315.458 261.651 315.074 262.227 314.594 262.227C312.514 262.227 309.01 262.019 304.082 261.603V264.819C308.818 264.627 311.906 264.531 313.346 264.531C314.21 264.531 314.642 265.539 314.642 267.555C314.642 269.571 314.466 271.107 314.114 272.163C313.794 273.187 313.346 273.699 312.77 273.699L304.082 273.507V276.579C309.65 276.163 313.49 275.955 315.602 275.955C316.274 275.955 316.61 277.075 316.61 279.315C316.61 281.555 316.466 283.251 316.178 284.403C315.89 285.555 315.506 286.131 315.026 286.131ZM333.187 286.131C331.651 286.131 330.643 286.019 330.163 285.795C329.683 285.571 329.347 285.187 329.155 284.643L318.547 255.363C318.547 254.755 319.683 254.051 321.955 253.251C324.259 252.451 326.579 252.051 328.915 252.051C331.923 252.051 333.523 252.995 333.715 254.883L335.347 270.099H336.019L337.363 254.883C337.523 252.995 339.683 252.051 343.843 252.051C345.443 252.051 346.515 252.275 347.059 252.723C347.603 253.139 347.907 253.699 347.971 254.403L349.555 270.099H350.227L351.475 254.883C351.571 253.955 352.659 253.251 354.739 252.771C356.851 252.291 358.931 252.051 360.979 252.051C363.059 252.051 364.467 252.355 365.203 252.963C365.971 253.571 366.355 254.211 366.355 254.883L356.083 284.643C355.731 285.635 353.363 286.131 348.979 286.131C347.667 286.131 346.787 286.019 346.339 285.795C345.891 285.571 345.587 285.187 345.427 284.643L342.931 276.291H342.355L339.811 284.643C339.523 285.635 337.315 286.131 333.187 286.131ZM393.073 286.131H372.721C371.153 286.131 370.097 286.019 369.553 285.795C369.009 285.571 368.737 285.219 368.737 284.739V254.355C368.737 253.523 369.105 252.931 369.841 252.579C370.609 252.227 371.969 252.051 373.921 252.051H393.217C393.889 252.051 394.225 253.171 394.225 255.411C394.225 257.619 394.081 259.315 393.793 260.499C393.505 261.651 393.121 262.227 392.641 262.227C390.561 262.227 387.057 262.019 382.129 261.603V264.819C386.865 264.627 389.953 264.531 391.393 264.531C392.257 264.531 392.689 265.539 392.689 267.555C392.689 269.571 392.513 271.107 392.161 272.163C391.841 273.187 391.393 273.699 390.817 273.699L382.129 273.507V276.579C387.697 276.163 391.537 275.955 393.649 275.955C394.321 275.955 394.657 277.075 394.657 279.315C394.657 281.555 394.513 283.251 394.225 284.403C393.937 285.555 393.553 286.131 393.073 286.131ZM411.474 284.739C411.474 285.155 410.498 285.491 408.546 285.747C406.594 286.003 404.626 286.131 402.642 286.131C400.69 286.131 399.426 286.019 398.85 285.795C398.306 285.571 398.034 285.219 398.034 284.739V253.875C398.034 253.043 399.074 252.451 401.154 252.099C403.266 251.747 405.922 251.571 409.122 251.571C412.322 251.571 414.386 251.587 415.314 251.619C416.274 251.619 417.394 251.667 418.674 251.763C419.954 251.859 420.962 252.019 421.698 252.243C422.466 252.467 423.298 252.755 424.194 253.107C425.122 253.459 425.842 253.923 426.354 254.499C426.866 255.043 427.362 255.699 427.842 256.467C428.706 257.843 429.138 259.811 429.138 262.371C429.138 264.899 428.706 267.043 427.842 268.803C427.01 270.531 425.89 271.843 424.482 272.739C428.162 278.531 430.002 282.211 430.002 283.779C430.002 285.347 426.85 286.131 420.546 286.131C418.722 286.131 417.458 286.051 416.754 285.891C416.05 285.731 415.602 285.379 415.41 284.835L412.29 274.947L411.474 274.899V284.739ZM411.474 267.507H412.722C414.578 267.507 415.506 266.067 415.506 263.187C415.506 261.715 415.25 260.675 414.738 260.067C414.258 259.459 413.698 259.155 413.058 259.155H411.474V267.507ZM445.785 284.979C445.785 285.331 444.809 285.619 442.857 285.843C440.905 286.035 438.937 286.131 436.953 286.131C435.001 286.131 433.753 286.051 433.209 285.891C432.665 285.699 432.393 285.395 432.393 284.979V255.123C432.393 254.419 433.321 253.731 435.177 253.059C437.033 252.355 439.113 252.003 441.417 252.003C443.465 252.003 444.809 252.435 445.449 253.299C445.673 253.619 445.785 253.939 445.785 254.259V284.979ZM462.891 283.683C462.827 284.611 462.331 285.251 461.403 285.603C460.507 285.955 458.875 286.131 456.507 286.131C454.139 286.131 452.155 285.923 450.555 285.507C448.987 285.059 448.203 284.499 448.203 283.827C448.203 283.059 449.627 278.163 452.475 269.139C455.323 260.083 456.955 254.867 457.371 253.491C457.531 253.075 458.811 252.739 461.211 252.483C463.643 252.195 466.235 252.051 468.987 252.051C471.771 252.051 473.307 252.531 473.595 253.491C479.643 273.587 482.667 283.795 482.667 284.115C482.667 284.435 482.475 284.755 482.091 285.075C481.195 285.779 479.419 286.131 476.763 286.131C471.099 286.131 468.203 285.459 468.075 284.115L467.739 280.995H463.131L462.891 283.683ZM466.731 271.875L466.011 263.235H464.955L464.139 271.875H466.731Z" fill="#B1E6E3"/>
<path d="M295.5 137.39C295 129.057 294.772 116.259 294.772 116.259L301.5 117C303.167 123.333 305.221 137.184 304.193 137.39C303.363 137.556 301.033 128.514 299.727 121.515C300.256 127.138 300.193 136.048 299 145.89C297.4 159.09 296 145.723 295.5 137.39Z" fill="#80346D" stroke="#80346D"/>
</svg>
