<svg width="842" height="484" viewBox="0 0 842 484" fill="none" xmlns="http://www.w3.org/2000/svg">
<path d="M21.7214 122.704H312.904C312.904 122.704 226.745 186.874 164.886 188.705C99.31 190.646 21.7214 122.704 21.7214 122.704Z" fill="#560E44"/>
<path d="M251.273 364.968H111.991C101.26 364.968 94.0332 364.202 90.3102 362.669C86.5873 361.136 84.7258 358.727 84.7258 355.442V147.504C84.7258 141.81 87.2442 137.758 92.2812 135.35C97.5371 132.941 106.844 131.736 120.203 131.736H252.259C256.858 131.736 259.157 139.401 259.157 154.731C259.157 169.842 258.172 181.448 256.201 189.551C254.23 197.435 251.602 201.377 248.317 201.377C234.082 201.377 210.102 199.954 176.376 197.107V219.116C208.788 217.802 229.921 217.145 239.776 217.145C245.689 217.145 248.645 224.043 248.645 237.84C248.645 251.637 247.441 262.149 245.032 269.376C242.842 276.384 239.776 279.888 235.834 279.888L176.376 278.574V299.597C214.482 296.751 240.761 295.327 255.215 295.327C259.814 295.327 262.114 302.992 262.114 318.322C262.114 333.652 261.128 345.258 259.157 353.142C257.186 361.026 254.558 364.968 251.273 364.968ZM618.791 367.596C611.345 367.596 604.446 366.83 598.096 365.297C591.745 363.764 585.065 360.588 578.057 355.77C571.268 350.733 565.465 344.163 560.647 336.061C549.697 317.665 544.222 289.962 544.222 252.951C544.222 232.584 546.96 214.627 552.435 199.078C557.91 183.529 564.808 171.484 573.13 162.943C581.452 154.183 591.416 147.066 603.023 141.591C614.63 136.116 625.47 132.612 635.544 131.079C645.618 129.327 656.349 128.451 667.737 128.451C694.016 128.451 712.522 130.751 723.252 135.35C733.983 139.729 739.349 148.27 739.349 160.972C739.349 171.046 737.487 181.996 733.764 193.822C730.041 205.429 724.566 211.232 717.34 211.232C715.588 211.232 708.142 209.59 695.002 206.305C681.862 202.801 672.007 201.049 665.437 201.049C646.603 201.049 637.187 216.926 637.187 248.681C637.187 264.667 639.377 276.603 643.756 284.487C648.136 292.152 653.611 296.422 660.181 297.298V267.733C660.181 262.258 665.766 257.222 676.935 252.623C688.103 248.024 698.834 245.724 709.127 245.724C719.42 245.724 726.866 246.381 731.465 247.695C736.283 249.009 739.568 250.871 741.32 253.28C744.386 257.222 745.919 260.725 745.919 263.791V354.785C745.919 357.632 740.115 359.931 728.508 361.683C717.121 363.435 705.185 364.311 692.702 364.311C680.439 364.311 672.664 363.764 669.379 362.669C666.094 361.355 664.233 357.96 663.795 352.485L661.495 333.104H658.867C657.334 342.521 653.392 350.624 647.041 357.413C640.91 364.202 631.493 367.596 618.791 367.596Z" fill="#B1E6E3"/>
<circle cx="401.006" cy="245.75" r="116.355" fill="#C7EAE8" stroke="#B1E6E3" stroke-width="18.158"/>
<path d="M483.035 98.6403C490.962 103.353 499.665 110.695 506.141 116.569C509.437 119.559 512.267 122.271 514.275 124.237C515.281 125.221 516.083 126.021 516.639 126.58C516.917 126.86 517.134 127.079 517.283 127.231C517.358 127.307 517.416 127.366 517.456 127.407C517.476 127.428 517.492 127.444 517.503 127.456C517.509 127.462 517.513 127.467 517.517 127.47C517.518 127.472 517.52 127.473 517.521 127.474L517.523 127.476C517.522 127.478 517.446 127.553 513.163 131.716L517.524 127.477L521.785 131.861L518.783 137.185L509.691 153.31L505.671 160.441L498.547 156.407L494.295 153.999L472.253 191.976L468.16 199.026L402.738 161.255L406.85 154.172L429.141 115.768L426.825 114.187L420.562 109.906L424.367 103.343L434.191 86.3956L437.412 80.8386L443.573 82.6566L441.26 90.4937C443.483 82.9611 443.57 82.6687 443.574 82.6575L443.576 82.6577C443.578 82.6581 443.58 82.6591 443.582 82.6598C443.586 82.6611 443.592 82.6622 443.6 82.6643C443.614 82.6687 443.635 82.6751 443.661 82.6829C443.713 82.6985 443.789 82.7212 443.885 82.7501C444.078 82.8081 444.357 82.8927 444.714 83.002C445.427 83.2207 446.451 83.5394 447.719 83.9463C450.251 84.759 453.77 85.9285 457.732 87.3597C465.517 90.1721 475.528 94.1779 483.035 98.6403Z" fill="#C7EAE8" stroke="#B1E6E3" stroke-width="16.3422"/>
<mask id="mask0_80_4" style="mask-type:alpha" maskUnits="userSpaceOnUse" x="293" y="138" width="216" height="216">
<circle cx="401.006" cy="245.75" r="107.276" fill="#8FCFCC"/>
</mask>
<g mask="url(#mask0_80_4)">
<circle cx="401.006" cy="245.75" r="107.276" fill="#C7EAE8"/>
<path d="M281.029 236.238C281.029 236.238 307.707 222.455 404.153 234.361C500.6 246.267 524.515 266.712 524.515 266.712L514.278 348.505L270.792 318.031L281.029 236.238Z" fill="#BF61A7"/>
<path d="M266.171 223.634C266.171 223.634 338.592 260.216 392.158 268.245C454.505 277.592 554.814 255.237 554.814 255.237V427.331H278.028L266.171 223.634Z" fill="#80346D"/>
<path d="M308.539 304.128C308.539 304.128 357.274 343.768 413.304 336.805C469.333 329.843 510.518 263.732 510.518 263.732L489.719 376.056L339.537 391.456L308.539 304.128Z" fill="#560E44"/>
</g>
<path d="M454.059 88.4938L508.285 118.705C508.285 118.705 497.51 137.286 493.945 138.832C490.381 140.379 476.199 138.359 464.552 131.196C454.16 124.804 446.245 114.436 444.036 110.445C441.828 106.454 454.059 88.4938 454.059 88.4938Z" fill="#AC7E7E"/>
<path d="M460.971 75.4953L515.197 105.707L502.483 128.53C502.483 128.53 483.816 123.554 472.928 117.459C462.151 111.426 448.909 97.1446 448.909 97.1446L460.971 75.4953Z" fill="#8B5454"/>
<ellipse cx="488.431" cy="89.9788" rx="31.0368" ry="9.84472" transform="rotate(29.1239 488.431 89.9788)" fill="#C57878"/>
<path d="M511.453 162.717C512.035 163.02 512.466 163.31 512.76 163.581C513.056 163.853 513.172 164.065 513.211 164.211C513.575 165.597 513.609 166.609 513.466 167.4C513.325 168.183 513 168.816 512.537 169.437C512.053 170.085 511.466 170.665 510.767 171.417C510.088 172.146 509.355 172.986 508.711 174.06C507.344 176.339 507.262 178.735 506.981 180.55C506.836 181.492 506.644 182.3 506.268 183.015C505.9 183.712 505.332 184.366 504.366 184.95C504.286 184.998 504.081 185.072 503.662 185.08C503.257 185.088 502.731 185.033 502.079 184.906C500.777 184.653 499.089 184.133 497.086 183.386C493.089 181.895 487.96 179.545 482.391 176.778C471.26 171.246 458.455 164.092 449.595 158.95C440.9 153.904 428.657 146.397 418.529 139.557C413.463 136.136 408.942 132.893 405.664 130.215C404.022 128.874 402.713 127.692 401.806 126.712C401.352 126.222 401.016 125.8 400.791 125.449C400.556 125.083 400.488 124.864 400.478 124.77C400.259 122.741 401.055 121.405 402.306 120.054C402.966 119.341 403.662 118.714 404.448 117.927C405.202 117.171 405.971 116.327 406.605 115.323C408.075 112.994 408.21 110.641 408.496 108.891C408.644 107.988 408.824 107.251 409.169 106.622C409.502 106.017 410.016 105.463 410.918 104.986C410.883 105.005 410.948 104.947 411.247 105.036C411.539 105.123 411.937 105.317 412.448 105.65C413.467 106.314 414.765 107.414 416.306 108.874C419.381 111.789 423.27 115.991 427.585 120.61C436.159 129.789 446.423 140.635 454.895 145.665C464.239 151.213 478.692 154.536 490.84 157.198C496.954 158.538 502.482 159.708 506.586 160.911C508.64 161.513 510.287 162.11 511.453 162.717Z" fill="#80346D" stroke="#7C2D68" stroke-width="1.8158"/>
<circle cx="318.902" cy="202.481" r="4.56794" transform="rotate(13.7314 318.902 202.481)" fill="white"/>
<path d="M324.918 192.491C324.918 192.491 329.908 170.874 354.415 158.51C378.922 146.145 399.427 155.627 399.427 155.627C399.427 155.627 372.386 158.123 357.24 165.775C342.486 173.229 324.918 192.491 324.918 192.491Z" fill="white"/>
<path d="M202.851 50.5977L226.975 110.355L223.537 110.947C268.96 115.31 313.381 122.188 313.381 122.188C313.381 122.188 215.94 155.169 162.121 154.83C109.727 154.5 19.4927 122.188 19.4927 122.188C19.4927 122.188 61.3073 115.508 104.535 111.138L133.095 75.6133L125.151 29.5225L110.189 32.1016L72.8257 60.79L125.103 3.8147e-06L202.851 50.5977Z" fill="#80346D"/>
<path d="M749.179 212.401L757.128 215.208L761.601 202.539L769.902 205.47L765.428 218.139L773.109 220.851L708.048 380.26L701.642 377.998L749.179 212.401Z" fill="#8B5454"/>
<mask id="mask1_80_4" style="mask-type:alpha" maskUnits="userSpaceOnUse" x="747" y="158" width="46" height="63">
<path d="M791.322 197.286L759.725 219.302L748.958 182.327L780.768 159.707L791.322 197.286Z" fill="#FF6CAE" stroke="#FFBBDA" stroke-width="1.8158"/>
</mask>
<g mask="url(#mask1_80_4)">
<path d="M781.294 158.22L792.371 197.663L759.207 220.77L747.906 181.962L781.294 158.22Z" fill="#FF6CAE"/>
<path d="M747.425 182.848L765.929 202.029L793.593 198.786L778.545 222.623L758.82 221.869L742.994 210.07L747.425 182.848Z" fill="#560E44"/>
<path d="M782.077 155.733H796.143L797.623 198.486L765.79 202.373L782.077 155.733Z" fill="#BA3D75"/>
<path d="M746.81 181.805L766.076 201.777L758.309 223.968L745.801 193.001L746.81 181.805Z" fill="#BE3874"/>
</g>
<path d="M27.7164 475.566C27.7164 476.321 25.9442 476.931 22.3998 477.396C18.8553 477.861 15.3109 478.093 11.7664 478.093C8.22196 478.093 5.95584 477.89 4.96804 477.483C3.98024 477.077 3.48634 476.437 3.48634 475.566V419.523C3.48634 416.734 11.8536 415.339 28.588 415.339C38.6984 415.339 45.3806 416.037 48.6345 417.431C52.5857 419.058 55.2586 421.266 56.6531 424.055C58.5125 427.658 59.4422 432.277 59.4422 437.913C59.4422 445.641 58.1057 451.249 55.4329 454.735C53.5154 457.292 51.5979 458.948 49.6804 459.703C47.7629 460.458 46.165 461.01 44.8867 461.359C43.6665 461.65 42.1267 461.882 40.2673 462.056C37.7106 462.289 34.2243 462.405 29.8082 462.405L27.7164 462.318V475.566ZM27.8036 447.849H29.8954C30.9994 447.849 31.871 447.704 32.5102 447.414C33.1493 447.065 33.7013 446.193 34.1662 444.799C34.6891 443.346 34.9506 441.342 34.9506 438.785C34.9506 436.17 34.6601 434.195 34.079 432.858C33.5561 431.464 33.0041 430.65 32.423 430.418C31.9 430.127 31.2609 429.982 30.5055 429.982H27.8036V447.849ZM94.5698 478.878C89.747 478.878 85.5925 478.442 82.1061 477.571C78.6779 476.641 75.5111 475.014 72.6058 472.69C66.7372 468.099 63.8028 459.296 63.8028 446.281C63.8028 440.819 64.5872 436.054 66.1561 431.987C67.7831 427.919 70.0201 424.694 72.8673 422.312C78.4455 417.663 85.6796 415.339 94.5698 415.339C99.1601 415.339 103.14 415.746 106.511 416.559C109.939 417.373 113.164 418.855 116.185 421.005C122.286 425.421 125.337 433.846 125.337 446.281C125.337 457.437 122.577 465.659 117.057 470.946C111.537 476.234 104.041 478.878 94.5698 478.878ZM91.6936 463.974C92.3908 464.787 93.3496 465.194 94.5698 465.194C95.79 465.194 96.7488 464.787 97.446 463.974C98.1433 463.102 98.7244 461.301 99.1892 458.57C99.654 455.781 99.8865 451.917 99.8865 446.978C99.8865 442.039 99.654 438.233 99.1892 435.56C98.7244 432.887 98.1433 431.144 97.446 430.331C96.7488 429.517 95.79 429.11 94.5698 429.11C93.3496 429.11 92.3908 429.517 91.6936 430.331C90.9963 431.144 90.4152 432.887 89.9504 435.56C89.4855 438.233 89.2531 442.039 89.2531 446.978C89.2531 451.917 89.4855 455.781 89.9504 458.57C90.4152 461.301 90.9963 463.102 91.6936 463.974ZM169.95 475.566C169.95 476.321 168.177 476.931 164.633 477.396C161.089 477.861 157.544 478.093 154 478.093C150.513 478.093 148.247 477.919 147.201 477.571C146.155 477.164 145.632 476.496 145.632 475.566V460.4C134.128 436.867 128.375 424.084 128.375 422.05C128.375 420.83 130.322 419.552 134.215 418.215C138.108 416.879 142.204 416.211 146.504 416.211C152.024 416.211 154.958 417.838 155.307 421.092L157.66 444.537H158.619L160.275 421.702C160.391 420.075 162.454 418.768 166.463 417.78C170.473 416.734 174.279 416.211 177.881 416.211C181.484 416.211 183.982 416.734 185.377 417.78C186.771 418.826 187.469 419.93 187.469 421.092C187.469 422.196 181.629 435.299 169.95 460.4V475.566ZM221.307 478.878C216.484 478.878 212.33 478.442 208.844 477.571C205.415 476.641 202.249 475.014 199.343 472.69C193.475 468.099 190.54 459.296 190.54 446.281C190.54 440.819 191.325 436.054 192.894 431.987C194.521 427.919 196.758 424.694 199.605 422.312C205.183 417.663 212.417 415.339 221.307 415.339C225.898 415.339 229.878 415.746 233.248 416.559C236.676 417.373 239.901 418.855 242.923 421.005C249.024 425.421 252.074 433.846 252.074 446.281C252.074 457.437 249.314 465.659 243.794 470.946C238.274 476.234 230.778 478.878 221.307 478.878ZM218.431 463.974C219.128 464.787 220.087 465.194 221.307 465.194C222.527 465.194 223.486 464.787 224.183 463.974C224.881 463.102 225.462 461.301 225.927 458.57C226.391 455.781 226.624 451.917 226.624 446.978C226.624 442.039 226.391 438.233 225.927 435.56C225.462 432.887 224.881 431.144 224.183 430.331C223.486 429.517 222.527 429.11 221.307 429.11C220.087 429.11 219.128 429.517 218.431 430.331C217.734 431.144 217.153 432.887 216.688 435.56C216.223 438.233 215.991 442.039 215.991 446.978C215.991 451.917 216.223 455.781 216.688 458.57C217.153 461.301 217.734 463.102 218.431 463.974ZM262.957 440.005C261.272 440.005 260.052 438.64 259.296 435.909C258.541 433.003 258.105 430.098 257.989 427.193C257.814 422.893 257.727 418.738 257.727 414.729C257.727 411.65 262.434 410.11 271.847 410.11C273.474 410.11 274.491 411.156 274.898 413.247C275.304 415.339 275.508 418.942 275.508 424.055C275.508 434.688 271.324 440.005 262.957 440.005ZM326.009 474.433C324.265 475.711 321.825 476.786 318.687 477.658C315.608 478.471 311.598 478.878 306.659 478.878C301.778 478.878 297.13 478.471 292.714 477.658C288.298 476.844 285.131 475.944 283.214 474.956C281.296 473.968 280.337 473.009 280.337 472.08C280.337 468.826 280.802 465.455 281.732 461.969C282.662 458.425 283.766 456.652 285.044 456.652C285.276 456.652 287.688 457.437 292.278 459.006C296.869 460.575 300.326 461.359 302.65 461.359C304.974 461.359 306.485 461.127 307.182 460.662C307.88 460.139 308.228 459.412 308.228 458.483C308.228 457.553 307.589 456.74 306.311 456.042C305.032 455.287 303.434 454.648 301.517 454.125C299.599 453.544 297.508 452.73 295.242 451.684C293.034 450.638 290.971 449.476 289.053 448.198C287.136 446.92 285.538 445.118 284.26 442.794C282.981 440.412 282.342 437.71 282.342 434.688C282.342 421.789 290.041 415.339 305.439 415.339C311.192 415.339 316.16 415.717 320.343 416.472C324.527 417.17 327.461 417.983 329.146 418.913C330.889 419.784 331.761 420.656 331.761 421.528C331.761 424.549 331.035 427.803 329.582 431.289C328.188 434.776 326.822 436.519 325.486 436.519C325.253 436.519 324.498 436.257 323.219 435.734C319.384 434.049 316.189 433.207 313.632 433.207C311.133 433.207 309.419 433.439 308.49 433.904C307.618 434.369 307.182 435.095 307.182 436.083C307.182 437.013 307.821 437.797 309.1 438.436C310.378 439.017 311.947 439.569 313.806 440.092C315.724 440.557 317.787 441.313 319.995 442.358C322.261 443.346 324.353 444.537 326.27 445.932C328.188 447.268 329.785 449.186 331.064 451.684C332.342 454.183 332.981 457.088 332.981 460.4C332.981 463.887 332.081 467.053 330.279 469.901C329.175 471.644 327.752 473.154 326.009 474.433ZM384.658 478.093H365.57C362.665 478.093 360.719 477.89 359.731 477.483C358.743 477.077 358.249 476.437 358.249 475.566V419.523C358.249 416.734 366.645 415.339 383.438 415.339C393.083 415.339 399.737 416.269 403.397 418.128C407.116 420.046 409.498 422.486 410.544 425.45C411.125 427.193 411.416 429.227 411.416 431.551C411.416 436.083 410.631 439.482 409.063 441.748C407.552 444.014 405.896 445.293 404.094 445.583C406.825 446.164 409.092 447.501 410.893 449.593C412.694 451.684 413.595 455.229 413.595 460.226C413.595 466.037 411.823 470.336 408.278 473.125C405.198 475.566 400.492 477.106 394.158 477.745C391.486 477.977 388.319 478.093 384.658 478.093ZM384.745 440.092C387.709 440.092 389.19 438.117 389.19 434.166C389.19 432.19 388.784 430.737 387.97 429.808C387.215 428.82 386.343 428.326 385.355 428.326H382.566V440.092H384.745ZM382.566 465.107H384.745C387.709 465.107 389.19 463.131 389.19 459.18C389.19 457.204 388.784 455.752 387.97 454.822C387.215 453.834 386.343 453.34 385.355 453.34H382.566V465.107ZM444.107 475.566C444.107 476.321 442.335 476.931 438.79 477.396C435.246 477.861 431.672 478.093 428.07 478.093C424.525 478.093 422.23 477.89 421.184 477.483C420.197 477.077 419.703 476.437 419.703 475.566V419.523C419.703 418.012 421.591 416.937 425.368 416.298C429.203 415.659 434.026 415.339 439.836 415.339C445.647 415.339 449.395 415.368 451.08 415.426C452.823 415.426 454.857 415.514 457.181 415.688C459.505 415.862 461.335 416.153 462.672 416.559C464.066 416.966 465.577 417.489 467.204 418.128C468.889 418.768 470.197 419.61 471.126 420.656C472.056 421.644 472.957 422.835 473.828 424.229C475.397 426.728 476.181 430.301 476.181 434.95C476.181 439.54 475.397 443.433 473.828 446.629C472.317 449.767 470.284 452.149 467.727 453.776C474.409 464.293 477.75 470.976 477.75 473.823C477.75 476.67 472.027 478.093 460.58 478.093C457.268 478.093 454.973 477.948 453.695 477.658C452.416 477.367 451.603 476.728 451.254 475.74L445.589 457.785L444.107 457.698V475.566ZM444.107 444.276H446.373C449.743 444.276 451.428 441.661 451.428 436.432C451.428 433.759 450.964 431.87 450.034 430.766C449.162 429.662 448.145 429.11 446.983 429.11H444.107V444.276ZM526.282 478.093H489.327C486.48 478.093 484.562 477.89 483.574 477.483C482.586 477.077 482.093 476.437 482.093 475.566V420.394C482.093 418.884 482.761 417.809 484.097 417.17C485.492 416.53 487.961 416.211 491.506 416.211H526.543C527.764 416.211 528.374 418.245 528.374 422.312C528.374 426.321 528.112 429.401 527.589 431.551C527.066 433.643 526.369 434.688 525.498 434.688C521.721 434.688 515.358 434.311 506.41 433.555V439.395C515.009 439.046 520.617 438.872 523.231 438.872C524.8 438.872 525.585 440.702 525.585 444.363C525.585 448.024 525.265 450.813 524.626 452.73C524.045 454.59 523.231 455.519 522.186 455.519L506.41 455.171V460.749C516.52 459.994 523.493 459.616 527.328 459.616C528.548 459.616 529.158 461.65 529.158 465.717C529.158 469.784 528.897 472.864 528.374 474.956C527.851 477.048 527.154 478.093 526.282 478.093ZM559.259 478.093C556.469 478.093 554.639 477.89 553.768 477.483C552.896 477.077 552.286 476.379 551.937 475.392L532.675 422.225C532.675 421.121 534.738 419.842 538.863 418.39C543.047 416.937 547.26 416.211 551.501 416.211C556.963 416.211 559.869 417.925 560.217 421.353L563.181 448.982H564.401L566.841 421.353C567.132 417.925 571.054 416.211 578.608 416.211C581.513 416.211 583.46 416.618 584.447 417.431C585.435 418.186 585.987 419.203 586.103 420.482L588.98 448.982H590.2L592.466 421.353C592.64 419.668 594.616 418.39 598.393 417.518C602.228 416.647 606.005 416.211 609.723 416.211C613.5 416.211 616.057 416.763 617.393 417.867C618.788 418.971 619.485 420.133 619.485 421.353L600.833 475.392C600.194 477.193 595.894 478.093 587.934 478.093C585.551 478.093 583.953 477.89 583.14 477.483C582.327 477.077 581.775 476.379 581.484 475.392L576.952 460.226H575.906L571.286 475.392C570.763 477.193 566.754 478.093 559.259 478.093ZM668 478.093H631.045C628.197 478.093 626.28 477.89 625.292 477.483C624.304 477.077 623.81 476.437 623.81 475.566V420.394C623.81 418.884 624.479 417.809 625.815 417.17C627.21 416.53 629.679 416.211 633.224 416.211H668.261C669.481 416.211 670.092 418.245 670.092 422.312C670.092 426.321 669.83 429.401 669.307 431.551C668.784 433.643 668.087 434.688 667.215 434.688C663.438 434.688 657.076 434.311 648.128 433.555V439.395C656.727 439.046 662.334 438.872 664.949 438.872C666.518 438.872 667.303 440.702 667.303 444.363C667.303 448.024 666.983 450.813 666.344 452.73C665.763 454.59 664.949 455.519 663.903 455.519L648.128 455.171V460.749C658.238 459.994 665.211 459.616 669.046 459.616C670.266 459.616 670.876 461.65 670.876 465.717C670.876 469.784 670.615 472.864 670.092 474.956C669.569 477.048 668.871 478.093 668 478.093ZM701.412 475.566C701.412 476.321 699.64 476.931 696.095 477.396C692.551 477.861 688.978 478.093 685.375 478.093C681.831 478.093 679.535 477.89 678.489 477.483C677.502 477.077 677.008 476.437 677.008 475.566V419.523C677.008 418.012 678.896 416.937 682.673 416.298C686.508 415.659 691.331 415.339 697.141 415.339C702.952 415.339 706.7 415.368 708.385 415.426C710.128 415.426 712.162 415.514 714.486 415.688C716.81 415.862 718.641 416.153 719.977 416.559C721.371 416.966 722.882 417.489 724.509 418.128C726.194 418.768 727.502 419.61 728.431 420.656C729.361 421.644 730.262 422.835 731.133 424.229C732.702 426.728 733.487 430.301 733.487 434.95C733.487 439.54 732.702 443.433 731.133 446.629C729.623 449.767 727.589 452.149 725.032 453.776C731.714 464.293 735.055 470.976 735.055 473.823C735.055 476.67 729.332 478.093 717.885 478.093C714.573 478.093 712.278 477.948 711 477.658C709.721 477.367 708.908 476.728 708.559 475.74L702.894 457.785L701.412 457.698V475.566ZM701.412 444.276H703.678C707.048 444.276 708.733 441.661 708.733 436.432C708.733 433.759 708.269 431.87 707.339 430.766C706.467 429.662 705.451 429.11 704.288 429.11H701.412V444.276ZM763.715 476.002C763.715 476.641 761.943 477.164 758.398 477.571C754.854 477.919 751.28 478.093 747.678 478.093C744.133 478.093 741.867 477.948 740.879 477.658C739.892 477.309 739.398 476.757 739.398 476.002V421.789C739.398 420.511 741.083 419.261 744.453 418.041C747.823 416.763 751.6 416.124 755.783 416.124C759.502 416.124 761.943 416.908 763.105 418.477C763.512 419.058 763.715 419.639 763.715 420.22V476.002ZM794.776 473.648C794.66 475.333 793.759 476.496 792.074 477.135C790.447 477.774 787.484 478.093 783.184 478.093C778.884 478.093 775.282 477.716 772.376 476.96C769.529 476.147 768.106 475.13 768.106 473.91C768.106 472.515 770.691 463.625 775.863 447.239C781.034 430.795 783.997 421.324 784.753 418.826C785.043 418.07 787.368 417.46 791.726 416.995C796.142 416.472 800.848 416.211 805.845 416.211C810.9 416.211 813.689 417.082 814.212 418.826C825.194 455.316 830.685 473.852 830.685 474.433C830.685 475.014 830.337 475.595 829.64 476.176C828.013 477.454 824.788 478.093 819.965 478.093C809.68 478.093 804.422 476.873 804.189 474.433L803.579 468.767H795.212L794.776 473.648ZM801.749 452.207L800.441 436.519H798.524L797.042 452.207H801.749Z" fill="#B1E6E3"/>
</svg>
