<svg width="113" height="76" viewBox="0 0 113 76" fill="none" xmlns="http://www.w3.org/2000/svg">
<path d="M12.6485 30.5213L34.1585 37.3647C34.1585 37.3647 28.6007 58.9477 26.058 62.8259C23.5153 66.7041 18.8962 69.4749 13.5598 68.0061C7.02389 66.207 5.33075 61.6989 4.54804 55.9825C3.13256 45.6446 12.6485 30.5213 12.6485 30.5213Z" fill="#CFCFCF"/>
<path d="M69.8084 0C61.2966 0 46.5227 9.00513 46.5227 9.00513H39.0082C39.0082 9.00513 34.3025 0 29.0465 0C17.8619 0 11.782 25.288 11.782 41.2948C11.782 57.3015 15.7419 75.7288 22.3804 75.047C35.0955 73.7411 48.1745 71.4947 57.9374 69.803C67.7004 68.1112 77.5716 66.5196 81.3695 63.6858C85.1674 60.8519 85.5956 59.5987 86.6678 57.3191C96.6193 36.1607 78.3201 0 69.8084 0Z" fill="#D9D9D9"/>
<path d="M81.0693 28.6938L71.7339 49.2452C71.7339 49.2452 85.1864 60.8362 95.6206 60.7923C100.19 60.7731 102.922 59.6477 105.827 54.9369C109.406 49.1347 109.637 43.897 105.396 39.744C98.6957 33.1825 81.0693 28.6938 81.0693 28.6938Z" fill="#D9D9D9"/>
<line x1="1.62781" y1="-1.62781" x2="14.6937" y2="-1.62781" transform="matrix(-1 0 0 1 60.8362 34.49)" stroke="#2D2693" stroke-width="3.25562" stroke-linecap="round"/>
<line x1="1.62781" y1="-1.62781" x2="14.6937" y2="-1.62781" transform="matrix(-1 0 0 1 67.7879 40.7288)" stroke="#E8B5B5" stroke-width="3.25562" stroke-linecap="round"/>
<line x1="1.62781" y1="-1.62781" x2="14.6937" y2="-1.62781" transform="matrix(-1 0 0 1 23.9368 40.7288)" stroke="#E8B5B5" stroke-width="3.25562" stroke-linecap="round"/>
<path d="M45.4085 40.7288C45.4085 40.7288 41.6034 44.175 38.6589 44.0954C35.8647 44.0199 32.3426 40.7288 32.3426 40.7288" stroke="#2D2693" stroke-width="3.25562" stroke-linecap="round"/>
<line x1="1.62781" y1="-1.62781" x2="10.0937" y2="-1.62781" transform="matrix(-1 -8.74228e-08 -8.74228e-08 1 33.4168 34.49)" stroke="#2D2693" stroke-width="3.25562" stroke-linecap="round"/>
</svg>
