<svg width="1440" height="2866" viewBox="0 0 1440 2866" fill="none" xmlns="http://www.w3.org/2000/svg">
<g clip-path="url(#clip0_24_1098)">
<rect width="1440" height="2866" fill="url(#paint0_linear_24_1098)"/>
<g opacity="0.21">
<path d="M1259.89 51.0185C1259.89 57.0155 1255.03 61.8771 1249.03 61.8771C1243.04 61.8771 1238.17 57.0155 1238.17 51.0185C1238.17 45.0214 1243.04 40.1598 1249.03 40.1598C1255.03 40.1598 1259.89 45.0214 1259.89 51.0185Z" fill="white"/>
<path d="M946.093 105.411C946.093 111.408 941.231 116.27 935.234 116.27C929.237 116.27 924.376 111.408 924.376 105.411C924.376 99.414 929.237 94.5524 935.234 94.5524C941.231 94.5524 946.093 99.414 946.093 105.411Z" fill="white"/>
<path d="M-25.4409 40.1591C-25.4409 46.1562 -30.3025 51.0177 -36.2996 51.0177C-42.2966 51.0177 -47.1582 46.1562 -47.1582 40.1591C-47.1582 34.162 -42.2966 29.3005 -36.2996 29.3005C-30.3025 29.3005 -25.4409 34.162 -25.4409 40.1591Z" fill="white"/>
<path d="M1893.91 83.6943C1893.91 89.6913 1889.05 94.5529 1883.05 94.5529C1877.05 94.5529 1872.19 89.6913 1872.19 83.6943C1872.19 77.6972 1877.05 72.8356 1883.05 72.8356C1889.05 72.8356 1893.91 77.6972 1893.91 83.6943Z" fill="white"/>
<path d="M-640.143 163.286C-640.143 169.283 -645.005 174.145 -651.002 174.145C-656.999 174.145 -661.861 169.283 -661.861 163.286C-661.861 157.289 -656.999 152.427 -651.002 152.427C-645.005 152.427 -640.143 157.289 -640.143 163.286Z" fill="white"/>
<path d="M211.102 234.032C211.102 240.029 206.24 244.891 200.243 244.891C194.246 244.891 189.385 240.029 189.385 234.032C189.385 228.035 194.246 223.174 200.243 223.174C206.24 223.174 211.102 228.035 211.102 234.032Z" fill="white"/>
<path d="M1042.64 549.825C1042.64 555.822 1037.78 560.684 1031.78 560.684C1025.79 560.684 1020.92 555.822 1020.92 549.825C1020.92 543.828 1025.79 538.966 1031.78 538.966C1037.78 538.966 1042.64 543.828 1042.64 549.825Z" fill="white"/>
<path d="M543.218 376.847C543.218 382.844 538.357 387.705 532.36 387.705C526.363 387.705 521.501 382.844 521.501 376.847C521.501 370.85 526.363 365.988 532.36 365.988C538.357 365.988 543.218 370.85 543.218 376.847Z" fill="white"/>
<path d="M722.585 528.108C722.585 534.105 717.723 538.966 711.726 538.966C705.729 538.966 700.867 534.105 700.867 528.108C700.867 522.111 705.729 517.249 711.726 517.249C717.723 517.249 722.585 522.111 722.585 528.108Z" fill="white"/>
<path d="M2098.92 433.138C2098.92 439.135 2094.06 443.996 2088.06 443.996C2082.07 443.996 2077.21 439.135 2077.21 433.138C2077.21 427.141 2082.07 422.279 2088.06 422.279C2094.06 422.279 2098.92 427.141 2098.92 433.138Z" fill="white"/>
<path d="M-25.4409 447.78C-25.4409 453.777 -30.3025 458.639 -36.2996 458.639C-42.2966 458.639 -47.1582 453.777 -47.1582 447.78C-47.1582 441.783 -42.2966 436.922 -36.2996 436.922C-30.3025 436.922 -25.4409 441.783 -25.4409 447.78Z" fill="white"/>
<path d="M-640.143 613.899C-640.143 619.896 -645.005 624.758 -651.002 624.758C-656.999 624.758 -661.861 619.896 -661.861 613.899C-661.861 607.902 -656.999 603.041 -651.002 603.041C-645.005 603.041 -640.143 607.902 -640.143 613.899Z" fill="white"/>
<path d="M1000.33 267.347C1000.33 270.469 997.794 273 994.672 273C991.55 273 989.018 270.469 989.018 267.347C989.018 264.224 991.55 261.693 994.672 261.693C997.794 261.693 1000.33 264.224 1000.33 267.347Z" fill="white"/>
<path d="M1483.15 40.1591C1483.15 43.2815 1480.62 45.8127 1477.5 45.8127C1474.38 45.8127 1471.84 43.2815 1471.84 40.1591C1471.84 37.0367 1474.38 34.5055 1477.5 34.5055C1480.62 34.5055 1483.15 37.0367 1483.15 40.1591Z" fill="white"/>
<path d="M512.106 137.724C512.106 140.846 509.574 143.377 506.452 143.377C503.33 143.377 500.798 140.846 500.798 137.724C500.798 134.601 503.33 132.07 506.452 132.07C509.574 132.07 512.106 134.601 512.106 137.724Z" fill="white"/>
<path d="M730.989 231.642C730.989 234.764 728.458 237.295 725.336 237.295C722.213 237.295 719.682 234.764 719.682 231.642C719.682 228.519 722.213 225.988 725.336 225.988C728.458 225.988 730.989 228.519 730.989 231.642Z" fill="white"/>
<path d="M1105.11 67.5302C1105.11 70.6526 1102.58 73.1838 1099.46 73.1838C1096.33 73.1838 1093.8 70.6526 1093.8 67.5302C1093.8 64.4078 1096.33 61.8766 1099.46 61.8766C1102.58 61.8766 1105.11 64.4078 1105.11 67.5302Z" fill="white"/>
<path d="M1178.23 399.552C1178.23 402.674 1175.7 405.205 1172.58 405.205C1169.46 405.205 1166.92 402.674 1166.92 399.552C1166.92 396.429 1169.46 393.898 1172.58 393.898C1175.7 393.898 1178.23 396.429 1178.23 399.552Z" fill="white"/>
<path d="M195.038 67.5302C195.038 70.6526 192.507 73.1838 189.385 73.1838C186.262 73.1838 183.731 70.6526 183.731 67.5302C183.731 64.4078 186.262 61.8766 189.385 61.8766C192.507 61.8766 195.038 64.4078 195.038 67.5302Z" fill="white"/>
<path d="M-104.227 225.987C-104.227 229.11 -106.758 231.641 -109.881 231.641C-113.003 231.641 -115.534 229.11 -115.534 225.987C-115.534 222.865 -113.003 220.334 -109.881 220.334C-106.758 220.334 -104.227 222.865 -104.227 225.987Z" fill="white"/>
<path d="M274.135 360.335C274.135 363.457 271.604 365.988 268.482 365.988C265.359 365.988 262.828 363.457 262.828 360.335C262.828 357.213 265.359 354.681 268.482 354.681C271.604 354.681 274.135 357.213 274.135 360.335Z" fill="white"/>
<path d="M-278.753 67.5302C-278.753 70.6526 -281.285 73.1838 -284.407 73.1838C-287.529 73.1838 -290.061 70.6526 -290.061 67.5302C-290.061 64.4078 -287.529 61.8766 -284.407 61.8766C-281.285 61.8766 -278.753 64.4078 -278.753 67.5302Z" fill="white"/>
<path d="M2002.83 202.821C2002.83 205.944 2000.3 208.475 1997.18 208.475C1994.06 208.475 1991.52 205.944 1991.52 202.821C1991.52 199.699 1994.06 197.168 1997.18 197.168C2000.3 197.168 2002.83 199.699 2002.83 202.821Z" fill="white"/>
<path d="M1339.03 538.962C1339.03 542.084 1336.5 544.615 1333.38 544.615C1330.26 544.615 1327.73 542.084 1327.73 538.962C1327.73 535.839 1330.26 533.308 1333.38 533.308C1336.5 533.308 1339.03 535.839 1339.03 538.962Z" fill="white"/>
<path d="M1462.5 681.806C1462.5 687.803 1467.36 692.664 1473.36 692.664C1479.36 692.664 1484.22 687.803 1484.22 681.806C1484.22 675.809 1479.36 670.947 1473.36 670.947C1467.36 670.947 1462.5 675.809 1462.5 681.806Z" fill="white" fill-opacity="0.79"/>
<path d="M-456.845 725.341C-456.845 731.338 -451.983 736.199 -445.986 736.199C-439.989 736.199 -435.128 731.338 -435.128 725.341C-435.128 719.344 -439.989 714.482 -445.986 714.482C-451.983 714.482 -456.845 719.344 -456.845 725.341Z" fill="white" fill-opacity="0.79"/>
<path d="M2077.21 804.933C2077.21 810.93 2082.07 815.791 2088.06 815.791C2094.06 815.791 2098.92 810.93 2098.92 804.933C2098.92 798.935 2094.06 794.074 2088.06 794.074C2082.07 794.074 2077.21 798.935 2077.21 804.933Z" fill="white" fill-opacity="0.79"/>
<path d="M1225.96 875.679C1225.96 881.676 1230.82 886.537 1236.82 886.537C1242.82 886.537 1247.68 881.676 1247.68 875.679C1247.68 869.682 1242.82 864.82 1236.82 864.82C1230.82 864.82 1225.96 869.682 1225.96 875.679Z" fill="white" fill-opacity="0.79"/>
<path d="M596.941 1119.64C596.941 1125.63 601.803 1130.5 607.8 1130.5C613.797 1130.5 618.658 1125.63 618.658 1119.64C618.658 1113.64 613.797 1108.78 607.8 1108.78C601.803 1108.78 596.941 1113.64 596.941 1119.64Z" fill="white" fill-opacity="0.79"/>
<path d="M893.843 1018.49C893.843 1024.49 898.705 1029.35 904.702 1029.35C910.699 1029.35 915.561 1024.49 915.561 1018.49C915.561 1012.5 910.699 1007.63 904.702 1007.63C898.705 1007.63 893.843 1012.5 893.843 1018.49Z" fill="white" fill-opacity="0.79"/>
<path d="M-661.861 1074.78C-661.861 1080.78 -656.999 1085.64 -651.002 1085.64C-645.005 1085.64 -640.143 1080.78 -640.143 1074.78C-640.143 1068.79 -645.005 1063.93 -651.002 1063.93C-656.999 1063.93 -661.861 1068.79 -661.861 1074.78Z" fill="white" fill-opacity="0.79"/>
<path d="M1462.5 1089.43C1462.5 1095.42 1467.36 1100.29 1473.36 1100.29C1479.36 1100.29 1484.22 1095.42 1484.22 1089.43C1484.22 1083.43 1479.36 1078.57 1473.36 1078.57C1467.36 1078.57 1462.5 1083.43 1462.5 1089.43Z" fill="white" fill-opacity="0.79"/>
<path d="M2077.21 1255.55C2077.21 1261.54 2082.07 1266.4 2088.06 1266.4C2094.06 1266.4 2098.92 1261.54 2098.92 1255.55C2098.92 1249.55 2094.06 1244.69 2088.06 1244.69C2082.07 1244.69 2077.21 1249.55 2077.21 1255.55Z" fill="white" fill-opacity="0.79"/>
<path d="M436.736 908.993C436.736 912.115 439.267 914.647 442.39 914.647C445.512 914.647 448.043 912.115 448.043 908.993C448.043 905.871 445.512 903.34 442.39 903.34C439.267 903.34 436.736 905.871 436.736 908.993Z" fill="white" fill-opacity="0.79"/>
<path d="M-46.0889 681.806C-46.0889 684.928 -43.5577 687.459 -40.4353 687.459C-37.3129 687.459 -34.7817 684.928 -34.7817 681.806C-34.7817 678.683 -37.3129 676.152 -40.4353 676.152C-43.5577 676.152 -46.0889 678.683 -46.0889 681.806Z" fill="white" fill-opacity="0.79"/>
<path d="M924.956 779.37C924.956 782.492 927.487 785.024 930.61 785.024C933.732 785.024 936.263 782.492 936.263 779.37C936.263 776.248 933.732 773.716 930.61 773.716C927.487 773.716 924.956 776.248 924.956 779.37Z" fill="white" fill-opacity="0.79"/>
<path d="M706.072 873.288C706.072 876.41 708.604 878.942 711.726 878.942C714.848 878.942 717.38 876.41 717.38 873.288C717.38 870.166 714.848 867.634 711.726 867.634C708.604 867.634 706.072 870.166 706.072 873.288Z" fill="white" fill-opacity="0.79"/>
<path d="M331.951 709.177C331.951 712.299 334.482 714.83 337.605 714.83C340.727 714.83 343.258 712.299 343.258 709.177C343.258 706.054 340.727 703.523 337.605 703.523C334.482 703.523 331.951 706.054 331.951 709.177Z" fill="white" fill-opacity="0.79"/>
<path d="M258.83 1041.2C258.83 1044.32 261.361 1046.85 264.484 1046.85C267.606 1046.85 270.137 1044.32 270.137 1041.2C270.137 1038.08 267.606 1035.54 264.484 1035.54C261.361 1035.54 258.83 1038.08 258.83 1041.2Z" fill="white" fill-opacity="0.79"/>
<path d="M1242.02 709.177C1242.02 712.299 1244.55 714.83 1247.68 714.83C1250.8 714.83 1253.33 712.299 1253.33 709.177C1253.33 706.054 1250.8 703.523 1247.68 703.523C1244.55 703.523 1242.02 706.054 1242.02 709.177Z" fill="white" fill-opacity="0.79"/>
<path d="M1541.29 867.634C1541.29 870.756 1543.82 873.287 1546.94 873.287C1550.06 873.287 1552.6 870.756 1552.6 867.634C1552.6 864.511 1550.06 861.98 1546.94 861.98C1543.82 861.98 1541.29 864.511 1541.29 867.634Z" fill="white" fill-opacity="0.79"/>
<path d="M1162.93 1001.98C1162.93 1005.1 1165.46 1007.63 1168.58 1007.63C1171.7 1007.63 1174.23 1005.1 1174.23 1001.98C1174.23 998.859 1171.7 996.328 1168.58 996.328C1165.46 996.328 1162.93 998.859 1162.93 1001.98Z" fill="white" fill-opacity="0.79"/>
<path d="M1819.85 931.131C1819.85 934.254 1822.38 936.785 1825.51 936.785C1828.63 936.785 1831.16 934.254 1831.16 931.131C1831.16 928.009 1828.63 925.478 1825.51 925.478C1822.38 925.478 1819.85 928.009 1819.85 931.131Z" fill="white" fill-opacity="0.79"/>
<path d="M-565.77 844.468C-565.77 847.59 -563.238 850.121 -560.116 850.121C-556.994 850.121 -554.462 847.59 -554.462 844.468C-554.462 841.345 -556.994 838.814 -560.116 838.814C-563.238 838.814 -565.77 841.345 -565.77 844.468Z" fill="white" fill-opacity="0.79"/>
<path d="M108.722 873.288C108.722 876.41 111.253 878.942 114.375 878.942C117.498 878.942 120.029 876.41 120.029 873.288C120.029 870.166 117.498 867.634 114.375 867.634C111.253 867.634 108.722 870.166 108.722 873.288Z" fill="white" fill-opacity="0.79"/>
<path d="M-29.5767 1074.78C-29.5767 1080.78 -34.4382 1085.64 -40.4353 1085.64C-46.4324 1085.64 -51.2939 1080.78 -51.2939 1074.78C-51.2939 1068.79 -46.4324 1063.93 -40.4353 1063.93C-34.4382 1063.93 -29.5767 1068.79 -29.5767 1074.78Z" fill="white" fill-opacity="0.79"/>
<path d="M1830.21 1267.58C1830.21 1273.58 1825.34 1278.44 1819.35 1278.44C1813.35 1278.44 1808.49 1273.58 1808.49 1267.58C1808.49 1261.59 1813.35 1256.72 1819.35 1256.72C1825.34 1256.72 1830.21 1261.59 1830.21 1267.58Z" fill="white" fill-opacity="0.79"/>
<path d="M-703.845 1347.17C-703.845 1353.17 -708.707 1358.03 -714.704 1358.03C-720.701 1358.03 -725.562 1353.17 -725.562 1347.17C-725.562 1341.18 -720.701 1336.32 -714.704 1336.32C-708.707 1336.32 -703.845 1341.18 -703.845 1347.17Z" fill="white" fill-opacity="0.79"/>
<path d="M147.4 1417.92C147.4 1423.92 142.538 1428.78 136.541 1428.78C130.544 1428.78 125.683 1423.92 125.683 1417.92C125.683 1411.92 130.544 1407.06 136.541 1407.06C142.538 1407.06 147.4 1411.92 147.4 1417.92Z" fill="white" fill-opacity="0.79"/>
<path d="M978.94 1733.71C978.94 1739.71 974.078 1744.57 968.081 1744.57C962.084 1744.57 957.223 1739.71 957.223 1733.71C957.223 1727.72 962.084 1722.86 968.081 1722.86C974.078 1722.86 978.94 1727.72 978.94 1733.71Z" fill="white" fill-opacity="0.79"/>
<path d="M479.517 1560.74C479.517 1566.73 474.655 1571.59 468.658 1571.59C462.661 1571.59 457.799 1566.73 457.799 1560.74C457.799 1554.74 462.661 1549.88 468.658 1549.88C474.655 1549.88 479.517 1554.74 479.517 1560.74Z" fill="white" fill-opacity="0.79"/>
<path d="M2035.22 1617.03C2035.22 1623.02 2030.36 1627.88 2024.36 1627.88C2018.36 1627.88 2013.5 1623.02 2013.5 1617.03C2013.5 1611.03 2018.36 1606.17 2024.36 1606.17C2030.36 1606.17 2035.22 1611.03 2035.22 1617.03Z" fill="white" fill-opacity="0.79"/>
<path d="M-89.1428 1631.67C-89.1428 1637.67 -94.0044 1642.53 -100.001 1642.53C-105.999 1642.53 -110.86 1637.67 -110.86 1631.67C-110.86 1625.67 -105.999 1620.81 -100.001 1620.81C-94.0044 1620.81 -89.1428 1625.67 -89.1428 1631.67Z" fill="white" fill-opacity="0.79"/>
<path d="M-703.845 1797.79C-703.845 1803.79 -708.707 1808.65 -714.704 1808.65C-720.701 1808.65 -725.562 1803.79 -725.562 1797.79C-725.562 1791.79 -720.701 1786.93 -714.704 1786.93C-708.707 1786.93 -703.845 1791.79 -703.845 1797.79Z" fill="white" fill-opacity="0.79"/>
<path d="M936.624 1451.24C936.624 1454.36 934.093 1456.89 930.97 1456.89C927.848 1456.89 925.317 1454.36 925.317 1451.24C925.317 1448.11 927.848 1445.58 930.97 1445.58C934.093 1445.58 936.624 1448.11 936.624 1451.24Z" fill="white" fill-opacity="0.79"/>
<path d="M1419.45 1224.05C1419.45 1227.17 1416.92 1229.7 1413.8 1229.7C1410.67 1229.7 1408.14 1227.17 1408.14 1224.05C1408.14 1220.93 1410.67 1218.39 1413.8 1218.39C1416.92 1218.39 1419.45 1220.93 1419.45 1224.05Z" fill="white" fill-opacity="0.79"/>
<path d="M448.404 1321.61C448.404 1324.73 445.873 1327.27 442.75 1327.27C439.628 1327.27 437.097 1324.73 437.097 1321.61C437.097 1318.49 439.628 1315.96 442.75 1315.96C445.873 1315.96 448.404 1318.49 448.404 1321.61Z" fill="white" fill-opacity="0.79"/>
<path d="M667.288 1415.53C667.288 1418.65 664.756 1421.18 661.634 1421.18C658.512 1421.18 655.98 1418.65 655.98 1415.53C655.98 1412.41 658.512 1409.88 661.634 1409.88C664.756 1409.88 667.288 1412.41 667.288 1415.53Z" fill="white" fill-opacity="0.79"/>
<path d="M1041.41 1251.42C1041.41 1254.54 1038.88 1257.07 1035.76 1257.07C1032.63 1257.07 1030.1 1254.54 1030.1 1251.42C1030.1 1248.3 1032.63 1245.77 1035.76 1245.77C1038.88 1245.77 1041.41 1248.3 1041.41 1251.42Z" fill="white" fill-opacity="0.79"/>
<path d="M1114.53 1583.44C1114.53 1586.56 1112 1589.09 1108.88 1589.09C1105.75 1589.09 1103.22 1586.56 1103.22 1583.44C1103.22 1580.32 1105.75 1577.79 1108.88 1577.79C1112 1577.79 1114.53 1580.32 1114.53 1583.44Z" fill="white" fill-opacity="0.79"/>
<path d="M131.336 1251.42C131.336 1254.54 128.805 1257.07 125.683 1257.07C122.56 1257.07 120.029 1254.54 120.029 1251.42C120.029 1248.3 122.56 1245.77 125.683 1245.77C128.805 1245.77 131.336 1248.3 131.336 1251.42Z" fill="white" fill-opacity="0.79"/>
<path d="M-167.929 1409.88C-167.929 1413 -170.46 1415.53 -173.583 1415.53C-176.705 1415.53 -179.236 1413 -179.236 1409.88C-179.236 1406.75 -176.705 1404.22 -173.583 1404.22C-170.46 1404.22 -167.929 1406.75 -167.929 1409.88Z" fill="white" fill-opacity="0.79"/>
<path d="M210.433 1544.22C210.433 1547.35 207.902 1549.88 204.78 1549.88C201.657 1549.88 199.126 1547.35 199.126 1544.22C199.126 1541.1 201.657 1538.57 204.78 1538.57C207.902 1538.57 210.433 1541.1 210.433 1544.22Z" fill="white" fill-opacity="0.79"/>
<path d="M-342.455 1251.42C-342.455 1254.54 -344.987 1257.07 -348.109 1257.07C-351.231 1257.07 -353.762 1254.54 -353.762 1251.42C-353.762 1248.3 -351.231 1245.77 -348.109 1245.77C-344.987 1245.77 -342.455 1248.3 -342.455 1251.42Z" fill="white" fill-opacity="0.79"/>
<path d="M1939.13 1386.71C1939.13 1389.83 1936.6 1392.36 1933.48 1392.36C1930.35 1392.36 1927.82 1389.83 1927.82 1386.71C1927.82 1383.59 1930.35 1381.06 1933.48 1381.06C1936.6 1381.06 1939.13 1383.59 1939.13 1386.71Z" fill="white" fill-opacity="0.79"/>
<path d="M1275.33 1722.85C1275.33 1725.97 1272.8 1728.5 1269.68 1728.5C1266.56 1728.5 1264.02 1725.97 1264.02 1722.85C1264.02 1719.73 1266.56 1717.2 1269.68 1717.2C1272.8 1717.2 1275.33 1719.73 1275.33 1722.85Z" fill="white" fill-opacity="0.79"/>
<path d="M1462.5 3045.28C1462.5 3039.28 1467.36 3034.42 1473.36 3034.42C1479.36 3034.42 1484.22 3039.28 1484.22 3045.28C1484.22 3051.28 1479.36 3056.14 1473.36 3056.14C1467.36 3056.14 1462.5 3051.28 1462.5 3045.28Z" fill="white"/>
<path d="M-456.845 3001.74C-456.845 2995.75 -451.983 2990.88 -445.986 2990.88C-439.989 2990.88 -435.128 2995.75 -435.128 3001.74C-435.128 3007.74 -439.989 3012.6 -445.986 3012.6C-451.983 3012.6 -456.845 3007.74 -456.845 3001.74Z" fill="white"/>
<path d="M2077.21 2922.15C2077.21 2916.15 2082.07 2911.29 2088.06 2911.29C2094.06 2911.29 2098.92 2916.15 2098.92 2922.15C2098.92 2928.15 2094.06 2933.01 2088.06 2933.01C2082.07 2933.01 2077.21 2928.15 2077.21 2922.15Z" fill="white"/>
<path d="M1225.96 2851.41C1225.96 2845.41 1230.82 2840.55 1236.82 2840.55C1242.82 2840.55 1247.68 2845.41 1247.68 2851.41C1247.68 2857.4 1242.82 2862.26 1236.82 2862.26C1230.82 2862.26 1225.96 2857.4 1225.96 2851.41Z" fill="white"/>
<path d="M596.941 2607.45C596.941 2601.45 601.803 2596.59 607.8 2596.59C613.797 2596.59 618.658 2601.45 618.658 2607.45C618.658 2613.44 613.797 2618.31 607.8 2618.31C601.803 2618.31 596.941 2613.44 596.941 2607.45Z" fill="white"/>
<path d="M893.843 2708.59C893.843 2702.59 898.705 2697.73 904.702 2697.73C910.699 2697.73 915.561 2702.59 915.561 2708.59C915.561 2714.59 910.699 2719.45 904.702 2719.45C898.705 2719.45 893.843 2714.59 893.843 2708.59Z" fill="white"/>
<path d="M-661.861 2652.3C-661.861 2646.3 -656.999 2641.44 -651.002 2641.44C-645.005 2641.44 -640.143 2646.3 -640.143 2652.3C-640.143 2658.3 -645.005 2663.16 -651.002 2663.16C-656.999 2663.16 -661.861 2658.3 -661.861 2652.3Z" fill="white"/>
<path d="M1462.5 2637.66C1462.5 2631.66 1467.36 2626.8 1473.36 2626.8C1479.36 2626.8 1484.22 2631.66 1484.22 2637.66C1484.22 2643.65 1479.36 2648.52 1473.36 2648.52C1467.36 2648.52 1462.5 2643.65 1462.5 2637.66Z" fill="white"/>
<path d="M2077.21 2471.54C2077.21 2465.54 2082.07 2460.68 2088.06 2460.68C2094.06 2460.68 2098.92 2465.54 2098.92 2471.54C2098.92 2477.54 2094.06 2482.4 2088.06 2482.4C2082.07 2482.4 2077.21 2477.54 2077.21 2471.54Z" fill="white"/>
<path d="M436.736 2818.09C436.736 2814.97 439.267 2812.44 442.39 2812.44C445.512 2812.44 448.043 2814.97 448.043 2818.09C448.043 2821.21 445.512 2823.74 442.39 2823.74C439.267 2823.74 436.736 2821.21 436.736 2818.09Z" fill="white"/>
<path d="M-46.0889 3045.28C-46.0889 3042.16 -43.5577 3039.63 -40.4353 3039.63C-37.3129 3039.63 -34.7817 3042.16 -34.7817 3045.28C-34.7817 3048.4 -37.3129 3050.93 -40.4353 3050.93C-43.5577 3050.93 -46.0889 3048.4 -46.0889 3045.28Z" fill="white"/>
<path d="M924.956 2947.71C924.956 2944.59 927.487 2942.06 930.61 2942.06C933.732 2942.06 936.263 2944.59 936.263 2947.71C936.263 2950.84 933.732 2953.37 930.61 2953.37C927.487 2953.37 924.956 2950.84 924.956 2947.71Z" fill="white"/>
<path d="M706.072 2853.8C706.072 2850.67 708.604 2848.14 711.726 2848.14C714.848 2848.14 717.38 2850.67 717.38 2853.8C717.38 2856.92 714.848 2859.45 711.726 2859.45C708.604 2859.45 706.072 2856.92 706.072 2853.8Z" fill="white"/>
<path d="M331.951 3017.91C331.951 3014.79 334.483 3012.25 337.605 3012.25C340.727 3012.25 343.259 3014.79 343.259 3017.91C343.259 3021.03 340.727 3023.56 337.605 3023.56C334.483 3023.56 331.951 3021.03 331.951 3017.91Z" fill="white"/>
<path d="M258.83 2685.89C258.83 2682.76 261.362 2680.23 264.484 2680.23C267.606 2680.23 270.137 2682.76 270.137 2685.89C270.137 2689.01 267.606 2691.54 264.484 2691.54C261.362 2691.54 258.83 2689.01 258.83 2685.89Z" fill="white"/>
<path d="M1242.02 3017.91C1242.02 3014.79 1244.55 3012.25 1247.68 3012.25C1250.8 3012.25 1253.33 3014.79 1253.33 3017.91C1253.33 3021.03 1250.8 3023.56 1247.68 3023.56C1244.55 3023.56 1242.02 3021.03 1242.02 3017.91Z" fill="white"/>
<path d="M1541.29 2859.45C1541.29 2856.33 1543.82 2853.8 1546.94 2853.8C1550.06 2853.8 1552.6 2856.33 1552.6 2859.45C1552.6 2862.57 1550.06 2865.1 1546.94 2865.1C1543.82 2865.1 1541.29 2862.57 1541.29 2859.45Z" fill="white"/>
<path d="M1162.93 2725.1C1162.93 2721.98 1165.46 2719.45 1168.58 2719.45C1171.7 2719.45 1174.23 2721.98 1174.23 2725.1C1174.23 2728.23 1171.7 2730.76 1168.58 2730.76C1165.46 2730.76 1162.93 2728.23 1162.93 2725.1Z" fill="white"/>
<path d="M1819.85 2795.95C1819.85 2792.83 1822.38 2790.3 1825.51 2790.3C1828.63 2790.3 1831.16 2792.83 1831.16 2795.95C1831.16 2799.08 1828.63 2801.61 1825.51 2801.61C1822.38 2801.61 1819.85 2799.08 1819.85 2795.95Z" fill="white"/>
<path d="M-565.77 2882.62C-565.77 2879.49 -563.238 2876.96 -560.116 2876.96C-556.994 2876.96 -554.462 2879.49 -554.462 2882.62C-554.462 2885.74 -556.994 2888.27 -560.116 2888.27C-563.238 2888.27 -565.77 2885.74 -565.77 2882.62Z" fill="white"/>
<path d="M108.722 2853.8C108.722 2850.67 111.253 2848.14 114.375 2848.14C117.498 2848.14 120.029 2850.67 120.029 2853.8C120.029 2856.92 117.498 2859.45 114.375 2859.45C111.253 2859.45 108.722 2856.92 108.722 2853.8Z" fill="white"/>
<path d="M-29.5767 2652.3C-29.5767 2646.3 -34.4382 2641.44 -40.4353 2641.44C-46.4324 2641.44 -51.2939 2646.3 -51.2939 2652.3C-51.2939 2658.3 -46.4324 2663.16 -40.4353 2663.16C-34.4382 2663.16 -29.5767 2658.3 -29.5767 2652.3Z" fill="white"/>
<path d="M1830.21 2459.5C1830.21 2453.5 1825.34 2448.64 1819.35 2448.64C1813.35 2448.64 1808.49 2453.5 1808.49 2459.5C1808.49 2465.5 1813.35 2470.36 1819.35 2470.36C1825.34 2470.36 1830.21 2465.5 1830.21 2459.5Z" fill="white"/>
<path d="M-703.845 2379.91C-703.845 2373.91 -708.707 2369.05 -714.704 2369.05C-720.701 2369.05 -725.562 2373.91 -725.562 2379.91C-725.562 2385.91 -720.701 2390.77 -714.704 2390.77C-708.707 2390.77 -703.845 2385.91 -703.845 2379.91Z" fill="white"/>
<path d="M147.4 2309.16C147.4 2303.17 142.538 2298.3 136.541 2298.3C130.544 2298.3 125.683 2303.17 125.683 2309.16C125.683 2315.16 130.544 2320.02 136.541 2320.02C142.538 2320.02 147.4 2315.16 147.4 2309.16Z" fill="white"/>
<path d="M978.94 1993.37C978.94 1987.37 974.078 1982.51 968.081 1982.51C962.084 1982.51 957.223 1987.37 957.223 1993.37C957.223 1999.37 962.084 2004.23 968.081 2004.23C974.078 2004.23 978.94 1999.37 978.94 1993.37Z" fill="white"/>
<path d="M479.517 2166.35C479.517 2160.35 474.655 2155.49 468.658 2155.49C462.661 2155.49 457.799 2160.35 457.799 2166.35C457.799 2172.35 462.661 2177.21 468.658 2177.21C474.655 2177.21 479.517 2172.35 479.517 2166.35Z" fill="white"/>
<path d="M2035.22 2110.06C2035.22 2104.06 2030.36 2099.2 2024.36 2099.2C2018.36 2099.2 2013.5 2104.06 2013.5 2110.06C2013.5 2116.06 2018.36 2120.92 2024.36 2120.92C2030.36 2120.92 2035.22 2116.06 2035.22 2110.06Z" fill="white"/>
<path d="M-89.1428 2095.42C-89.1428 2089.42 -94.0044 2084.56 -100.001 2084.56C-105.999 2084.56 -110.86 2089.42 -110.86 2095.42C-110.86 2101.41 -105.999 2106.27 -100.001 2106.27C-94.0044 2106.27 -89.1428 2101.41 -89.1428 2095.42Z" fill="white"/>
<path d="M-703.845 1929.3C-703.845 1923.3 -708.707 1918.44 -714.704 1918.44C-720.701 1918.44 -725.562 1923.3 -725.562 1929.3C-725.562 1935.29 -720.701 1940.15 -714.704 1940.15C-708.707 1940.15 -703.845 1935.29 -703.845 1929.3Z" fill="white"/>
<path d="M936.624 2275.85C936.624 2272.73 934.093 2270.2 930.97 2270.2C927.848 2270.2 925.317 2272.73 925.317 2275.85C925.317 2278.97 927.848 2281.5 930.97 2281.5C934.093 2281.5 936.624 2278.97 936.624 2275.85Z" fill="white"/>
<path d="M1419.45 2503.04C1419.45 2499.91 1416.92 2497.38 1413.8 2497.38C1410.67 2497.38 1408.14 2499.91 1408.14 2503.04C1408.14 2506.16 1410.67 2508.69 1413.8 2508.69C1416.92 2508.69 1419.45 2506.16 1419.45 2503.04Z" fill="white"/>
<path d="M448.404 2405.47C448.404 2402.35 445.873 2399.82 442.75 2399.82C439.628 2399.82 437.097 2402.35 437.097 2405.47C437.097 2408.59 439.628 2411.13 442.75 2411.13C445.873 2411.13 448.404 2408.59 448.404 2405.47Z" fill="white"/>
<path d="M667.288 2311.55C667.288 2308.43 664.756 2305.9 661.634 2305.9C658.512 2305.9 655.98 2308.43 655.98 2311.55C655.98 2314.68 658.512 2317.21 661.634 2317.21C664.756 2317.21 667.288 2314.68 667.288 2311.55Z" fill="white"/>
<path d="M1041.41 2475.67C1041.41 2472.54 1038.88 2470.01 1035.76 2470.01C1032.63 2470.01 1030.1 2472.54 1030.1 2475.67C1030.1 2478.79 1032.63 2481.32 1035.76 2481.32C1038.88 2481.32 1041.41 2478.79 1041.41 2475.67Z" fill="white"/>
<path d="M1114.53 2143.64C1114.53 2140.52 1112 2137.99 1108.88 2137.99C1105.75 2137.99 1103.22 2140.52 1103.22 2143.64C1103.22 2146.77 1105.75 2149.3 1108.88 2149.3C1112 2149.3 1114.53 2146.77 1114.53 2143.64Z" fill="white"/>
<path d="M131.336 2475.67C131.336 2472.54 128.805 2470.01 125.683 2470.01C122.56 2470.01 120.029 2472.54 120.029 2475.67C120.029 2478.79 122.56 2481.32 125.683 2481.32C128.805 2481.32 131.336 2478.79 131.336 2475.67Z" fill="white"/>
<path d="M-167.929 2317.21C-167.929 2314.09 -170.46 2311.55 -173.583 2311.55C-176.705 2311.55 -179.236 2314.09 -179.236 2317.21C-179.236 2320.33 -176.705 2322.86 -173.583 2322.86C-170.46 2322.86 -167.929 2320.33 -167.929 2317.21Z" fill="white"/>
<path d="M210.433 2182.86C210.433 2179.74 207.902 2177.21 204.78 2177.21C201.657 2177.21 199.126 2179.74 199.126 2182.86C199.126 2185.98 201.657 2188.51 204.78 2188.51C207.902 2188.51 210.433 2185.98 210.433 2182.86Z" fill="white"/>
<path d="M-342.455 2475.67C-342.455 2472.54 -344.987 2470.01 -348.109 2470.01C-351.231 2470.01 -353.762 2472.54 -353.762 2475.67C-353.762 2478.79 -351.231 2481.32 -348.109 2481.32C-344.987 2481.32 -342.455 2478.79 -342.455 2475.67Z" fill="white"/>
<path d="M1939.13 2340.37C1939.13 2337.25 1936.6 2334.72 1933.48 2334.72C1930.35 2334.72 1927.82 2337.25 1927.82 2340.37C1927.82 2343.5 1930.35 2346.03 1933.48 2346.03C1936.6 2346.03 1939.13 2343.5 1939.13 2340.37Z" fill="white"/>
<path d="M1275.33 2004.23C1275.33 2001.11 1272.8 1998.58 1269.68 1998.58C1266.56 1998.58 1264.02 2001.11 1264.02 2004.23C1264.02 2007.36 1266.56 2009.89 1269.68 2009.89C1272.8 2009.89 1275.33 2007.36 1275.33 2004.23Z" fill="white"/>
<path d="M415.025 539.218C415.025 545.215 410.164 550.076 404.167 550.076C398.17 550.076 393.308 545.215 393.308 539.218C393.308 533.221 398.17 528.359 404.167 528.359C410.164 528.359 415.025 533.221 415.025 539.218Z" fill="white"/>
</g>
<g opacity="0.49">
<line x1="200.197" y1="234.193" x2="270.269" y2="363.126" stroke="white"/>
<line x1="200.462" y1="234.758" x2="53.7201" y2="508.729" stroke="white"/>
<line x1="54.1033" y1="507.994" x2="404.566" y2="538.435" stroke="white"/>
<line x1="1271.17" y1="2004.35" x2="1106.72" y2="2141.54" stroke="white"/>
<line x1="1269.3" y1="1723.37" x2="968.848" y2="1993.12" stroke="white"/>
<line x1="969.243" y1="1992.93" x2="1106.77" y2="2140.82" stroke="white"/>
<line x1="937.142" y1="107.247" x2="1099.2" y2="66.8117" stroke="white"/>
<line x1="1098.88" y1="66.818" x2="1249.27" y2="50.3787" stroke="white"/>
<line x1="1099.16" y1="66.9333" x2="1172.37" y2="399.577" stroke="white"/>
<line x1="994.332" y1="266.66" x2="1172.5" y2="399.829" stroke="white"/>
<line x1="1248.66" y1="50.283" x2="1332.94" y2="540.227" stroke="white"/>
<line x1="126.755" y1="1251.79" x2="442.127" y2="1319.23" stroke="white"/>
<line x1="127.149" y1="1252.25" x2="136.868" y2="1418.68" stroke="white"/>
</g>
<rect x="809.835" y="571.096" width="80.1086" height="65.7733" fill="#5C3F35"/>
<rect x="549.272" y="571.096" width="80.1086" height="65.7733" fill="#5C3F35"/>
<g filter="url(#filter0_i_24_1098)">
<path d="M502.442 511.859H937.943C937.943 511.859 955.941 539.884 955.705 558.899C955.48 577.072 937.943 603.703 937.943 603.703H502.442C502.442 603.703 483.931 577.876 483.607 558.899C483.269 539.114 502.442 511.859 502.442 511.859Z" fill="#5C3F35"/>
</g>
<g filter="url(#filter1_d_24_1098)">
<path d="M585.228 537.101C585.228 537.101 670.051 553.676 722.947 553.79C776.775 553.906 856.466 537.101 856.466 537.101C856.466 537.101 867.675 515.147 867.528 500.251C867.388 486.015 856.466 465.152 856.466 465.152H585.228C585.228 465.152 573.699 485.385 573.497 500.251C573.287 515.751 585.228 537.101 585.228 537.101Z" fill="#5C3F35"/>
</g>
<mask id="mask0_24_1098" style="mask-type:alpha" maskUnits="userSpaceOnUse" x="506" y="86" width="431" height="431">
<circle cx="721.187" cy="301.684" r="214.829" fill="url(#paint1_linear_24_1098)"/>
</mask>
<g mask="url(#mask0_24_1098)">
<circle cx="721.187" cy="301.684" r="214.829" fill="url(#paint2_linear_24_1098)"/>
<path d="M950.217 224.862C950.404 296.142 913.182 354.023 867.079 354.144C820.976 354.264 847.233 296.412 847.046 225.133C846.859 153.854 820.3 96.1399 866.402 96.019C912.505 95.8981 950.03 153.583 950.217 224.862Z" fill="#8D3677" fill-opacity="0.6"/>
<path d="M504.153 443.335C462.865 385.231 459.859 316.481 497.44 289.775C535.021 263.07 546.965 325.469 588.253 383.573C629.542 441.676 684.54 473.481 646.959 500.187C609.378 526.892 545.442 501.438 504.153 443.335Z" fill="url(#paint3_linear_24_1098)"/>
<path d="M638.231 284.897C611.663 322.284 609.729 366.523 633.911 383.706C658.093 400.89 638.246 345.658 664.814 308.271C691.381 270.883 754.302 265.499 730.12 248.315C705.938 231.132 664.798 247.51 638.231 284.897Z" fill="url(#paint4_linear_24_1098)"/>
<path d="M672.215 394.452C664.417 405.426 677.698 428.253 701.88 445.436C726.062 462.62 735.837 456.411 743.635 445.436C751.434 434.462 754.302 422.879 730.12 405.696C705.938 388.512 680.013 383.478 672.215 394.452Z" fill="url(#paint5_linear_24_1098)" fill-opacity="0.48"/>
<path d="M614.583 139.097C573.294 80.9935 570.289 12.2426 607.87 -14.4625C645.45 -41.1676 657.395 21.2315 698.683 79.3349C739.972 137.438 794.969 169.244 757.388 195.949C719.808 222.654 655.871 197.2 614.583 139.097Z" fill="url(#paint6_linear_24_1098)"/>
<path d="M436.604 184.896C491.573 139.518 559.927 131.553 589.277 167.107C618.627 202.66 557.254 219.081 502.285 264.459C447.317 309.837 419.568 366.989 390.218 331.436C360.867 295.882 381.635 230.274 436.604 184.896Z" fill="url(#paint7_linear_24_1098)"/>
</g>
<path d="M806.98 174.978C806.98 207.223 816.203 233.362 795.533 233.362C774.862 233.362 795.533 207.223 795.533 174.978C795.533 142.733 774.862 116.594 795.533 116.594C816.203 116.594 806.98 142.733 806.98 174.978Z" fill="url(#paint8_linear_24_1098)"/>
<circle cx="792.594" cy="257.317" r="13.0143" fill="url(#paint9_linear_24_1098)"/>
<path d="M872.309 423.922C864.576 435.636 848.81 438.863 837.096 431.13C825.382 423.396 834.709 415.919 842.442 404.205C850.175 392.49 853.387 380.975 865.101 388.709C876.815 396.442 880.042 412.207 872.309 423.922Z" fill="url(#paint10_linear_24_1098)" fill-opacity="0.5"/>
<path d="M592.173 160.411C557.888 195.798 552.558 233.411 561.033 235.308C569.508 237.206 579.491 210.512 613.775 175.124C648.059 139.737 698.247 136.846 700.165 124.068C702.084 111.291 626.457 125.023 592.173 160.411Z" fill="#F1A5DE" fill-opacity="0.76"/>
<path d="M1236.68 719.263L1208.77 788.225L1145.99 781.425L1204.63 802.698L1192.42 874.169L1219.6 806.974L1276.91 818.828L1223.73 792.5L1236.68 719.263Z" fill="#F0A4DD"/>
<path d="M1220.26 844.497L1246.36 865.895L1233.37 895.354L1252.12 869.555L1281.83 883.678L1256.39 862.839L1270.75 836.595L1250.64 859.178L1220.26 844.497Z" fill="#F0A4DD"/>
<path d="M210.492 708.263L238.404 777.225L301.179 770.425L242.539 791.698L254.749 863.169L227.574 795.974L170.263 807.828L223.439 781.5L210.492 708.263Z" fill="#F0A4DD"/>
<path d="M226.918 833.497L200.81 854.895L213.806 884.354L195.057 858.555L165.341 872.678L190.783 851.839L176.418 825.595L196.536 848.178L226.918 833.497Z" fill="#F0A4DD"/>
<path d="M210.492 2711.68L238.404 2642.71L301.179 2649.51L242.539 2628.24L254.749 2556.77L227.574 2623.97L170.263 2612.11L223.439 2638.44L210.492 2711.68Z" fill="#F0A4DD"/>
<path d="M226.918 2586.44L200.81 2565.04L213.806 2535.59L195.057 2561.38L165.341 2547.26L190.783 2568.1L176.418 2594.34L196.536 2571.76L226.918 2586.44Z" fill="#F0A4DD"/>
<path d="M1236.68 2702.68L1208.77 2633.71L1145.99 2640.51L1204.63 2619.24L1192.42 2547.77L1219.6 2614.97L1276.91 2603.11L1223.73 2629.44L1236.68 2702.68Z" fill="#F0A4DD"/>
<path d="M1220.26 2577.44L1246.36 2556.04L1233.37 2526.59L1252.12 2552.38L1281.83 2538.26L1256.39 2559.1L1270.75 2585.34L1250.64 2562.76L1220.26 2577.44Z" fill="#F0A4DD"/>
</g>
<defs>
<filter id="filter0_i_24_1098" x="483.603" y="511.859" width="472.105" height="91.8438" filterUnits="userSpaceOnUse" color-interpolation-filters="sRGB">
<feFlood flood-opacity="0" result="BackgroundImageFix"/>
<feBlend mode="normal" in="SourceGraphic" in2="BackgroundImageFix" result="shape"/>
<feColorMatrix in="SourceAlpha" type="matrix" values="0 0 0 0 0 0 0 0 0 0 0 0 0 0 0 0 0 0 127 0" result="hardAlpha"/>
<feOffset dy="-12.4246"/>
<feComposite in2="hardAlpha" operator="arithmetic" k2="-1" k3="1"/>
<feColorMatrix type="matrix" values="0 0 0 0 0 0 0 0 0 0 0 0 0 0 0 0 0 0 0.25 0"/>
<feBlend mode="normal" in2="shape" result="effect1_innerShadow_24_1098"/>
</filter>
<filter id="filter1_d_24_1098" x="573.495" y="465.152" width="294.035" height="104.376" filterUnits="userSpaceOnUse" color-interpolation-filters="sRGB">
<feFlood flood-opacity="0" result="BackgroundImageFix"/>
<feColorMatrix in="SourceAlpha" type="matrix" values="0 0 0 0 0 0 0 0 0 0 0 0 0 0 0 0 0 0 127 0" result="hardAlpha"/>
<feOffset dy="15.7378"/>
<feComposite in2="hardAlpha" operator="out"/>
<feColorMatrix type="matrix" values="0 0 0 0 0 0 0 0 0 0 0 0 0 0 0 0 0 0 0.25 0"/>
<feBlend mode="normal" in2="BackgroundImageFix" result="effect1_dropShadow_24_1098"/>
<feBlend mode="normal" in="SourceGraphic" in2="effect1_dropShadow_24_1098" result="shape"/>
</filter>
<linearGradient id="paint0_linear_24_1098" x1="720" y1="0" x2="720" y2="2866" gradientUnits="userSpaceOnUse">
<stop stop-color="#16041C"/>
<stop offset="1" stop-color="#360A2A"/>
</linearGradient>
<linearGradient id="paint1_linear_24_1098" x1="746.559" y1="83.5537" x2="784.52" y2="573.672" gradientUnits="userSpaceOnUse">
<stop stop-color="#BF61A7"/>
<stop offset="1" stop-color="#592D4E"/>
</linearGradient>
<linearGradient id="paint2_linear_24_1098" x1="721.187" y1="86.8546" x2="721.187" y2="516.513" gradientUnits="userSpaceOnUse">
<stop stop-color="#F4A9E1"/>
<stop offset="0.447115" stop-color="#AA4391"/>
<stop offset="0.75" stop-color="#6D285C"/>
<stop offset="1" stop-color="#260C20"/>
</linearGradient>
<linearGradient id="paint3_linear_24_1098" x1="474.512" y1="306.068" x2="597.703" y2="548.54" gradientUnits="userSpaceOnUse">
<stop stop-color="#8D3677"/>
<stop offset="1" stop-color="#270F21"/>
</linearGradient>
<linearGradient id="paint4_linear_24_1098" x1="619.158" y1="373.223" x2="698.426" y2="217.202" gradientUnits="userSpaceOnUse">
<stop stop-color="#8D3677"/>
<stop offset="1" stop-color="#973E81"/>
</linearGradient>
<linearGradient id="paint5_linear_24_1098" x1="687.127" y1="434.953" x2="715.307" y2="391.388" gradientUnits="userSpaceOnUse">
<stop stop-color="#3A1430"/>
<stop offset="1" stop-color="#6A2158"/>
</linearGradient>
<linearGradient id="paint6_linear_24_1098" x1="584.942" y1="1.82989" x2="708.133" y2="244.302" gradientUnits="userSpaceOnUse">
<stop stop-color="#8D3677"/>
<stop offset="1" stop-color="#D178BA"/>
</linearGradient>
<linearGradient id="paint7_linear_24_1098" x1="571.371" y1="145.416" x2="338.432" y2="285.802" gradientUnits="userSpaceOnUse">
<stop stop-color="#8D3677"/>
<stop offset="1" stop-color="#D178BA"/>
</linearGradient>
<linearGradient id="paint8_linear_24_1098" x1="795.533" y1="116.594" x2="795.533" y2="233.362" gradientUnits="userSpaceOnUse">
<stop stop-color="#8C3676"/>
<stop offset="1" stop-color="#AA3B8D"/>
</linearGradient>
<linearGradient id="paint9_linear_24_1098" x1="792.594" y1="244.302" x2="792.594" y2="270.331" gradientUnits="userSpaceOnUse">
<stop stop-color="#A73A8B"/>
<stop offset="1" stop-color="#7D2265"/>
</linearGradient>
<linearGradient id="paint10_linear_24_1098" x1="865.101" y1="388.709" x2="837.096" y2="431.13" gradientUnits="userSpaceOnUse">
<stop stop-color="#4E0E3E"/>
<stop offset="1" stop-color="#7D2265"/>
</linearGradient>
<clipPath id="clip0_24_1098">
<rect width="1440" height="2866" fill="white"/>
</clipPath>
</defs>
</svg>
